<svg width="25" height="25" viewBox="0 0 25 25" fill="none" xmlns="http://www.w3.org/2000/svg">
<g clip-path="url(#clip0_137_140)">
<path d="M25 12.5759C25 5.67236 19.4036 0.0759277 12.5 0.0759277C5.59644 0.0759277 0 5.67236 0 12.5759C0 18.815 4.57109 23.9863 10.5469 24.9241V16.1892H7.37305V12.5759H10.5469V9.82202C10.5469 6.68921 12.413 4.95874 15.2683 4.95874C16.6359 4.95874 18.0664 5.20288 18.0664 5.20288V8.27905H16.4902C14.9374 8.27905 14.4531 9.24258 14.4531 10.2311V12.5759H17.9199L17.3657 16.1892H14.4531V24.9241C20.429 23.9863 25 18.815 25 12.5759Z" fill="#E8E9E9"/>
</g>
<defs>
<clipPath id="clip0_137_140">
<rect width="25" height="25" fill="white"/>
</clipPath>
</defs>
</svg>
