<svg width="25" height="25" viewBox="0 0 25 25" fill="none" xmlns="http://www.w3.org/2000/svg">
<g clip-path="url(#clip0_181_97)">
<path d="M21.3395 3.66123C19.0766 1.39849 15.9493 0 12.5034 0C9.05068 0 5.92305 1.39849 3.6605 3.66123C1.40454 5.92476 0 9.05308 0 12.4999C0 15.9538 1.40454 19.0752 3.6605 21.3387C5.92305 23.6017 9.05068 25 12.5034 25C15.9493 25 19.0766 23.6017 21.3395 21.3387C23.5952 19.0752 25 15.9538 25 12.4999C25 9.05308 23.5952 5.92476 21.3395 3.66123Z" fill="#E8E9E9"/>
<path fill-rule="evenodd" clip-rule="evenodd" d="M13.5208 8.20902C13.2442 8.17401 12.8912 8.05643 12.829 8.42328C12.7599 8.80389 13.1541 8.7765 13.4101 8.83173C15.154 9.21258 15.749 9.83505 16.0396 11.5244C16.0531 11.5937 16.0605 11.6834 16.0605 11.7596C16.0812 11.9602 16.1296 12.1399 16.4339 12.0849C16.5862 12.064 16.6416 11.9812 16.6485 11.8636C16.6693 11.7596 16.6485 11.621 16.6624 11.5244C16.6693 9.8974 15.2507 8.42328 13.5208 8.20902ZM13.6801 9.54466C13.5002 9.54466 13.3202 9.56537 13.2511 9.75936C13.1472 10.0362 13.3619 10.1121 13.5761 10.1467C14.289 10.2507 14.6627 10.6661 14.7388 11.358C14.7457 11.4549 14.7804 11.5311 14.8218 11.5937C14.8841 11.6622 14.9602 11.6904 15.057 11.6835C15.1193 11.6835 15.1677 11.6622 15.209 11.6418C15.327 11.5518 15.3476 11.3857 15.3338 11.2126C15.3476 10.4309 14.4481 9.52372 13.6801 9.54466ZM17.292 15.0262C16.9392 14.7491 16.5515 14.5001 16.1918 14.244C15.4515 13.7455 14.7734 13.7046 14.2268 14.5139C13.9154 14.9709 13.4793 14.9916 13.0297 14.7907C11.7772 14.244 10.8154 13.3927 10.2481 12.1399C10.1649 11.9462 10.1097 11.7596 10.1026 11.5865C10.0818 11.2542 10.2202 10.9638 10.5941 10.7074C10.9053 10.5068 11.2097 10.2644 11.189 9.81454C11.1614 9.22635 9.70812 7.26756 9.12721 7.05282C8.89171 6.96971 8.65646 6.98378 8.41432 7.05282C7.065 7.50243 6.51149 8.5827 7.0442 9.86283C7.34864 10.5829 7.67394 11.2542 8.06139 11.8838C9.7152 14.6524 12.1507 16.6736 15.2923 17.9954C15.5068 18.0854 15.749 18.1271 15.8803 18.1547C16.7592 18.1685 17.7831 17.3311 18.0807 16.5141C18.3714 15.7184 17.7627 15.414 17.292 15.0262ZM12.9675 7.44779C15.7834 7.87645 17.0774 9.19139 17.4371 11.9672C17.4371 11.995 17.4371 12.0158 17.4371 12.036C17.4581 12.2921 17.4097 12.6246 17.7486 12.6246C18.0464 12.6316 18.0601 12.4101 18.0601 12.1954C18.0464 12.1195 18.0464 12.0572 18.0464 11.9951C18.0808 9.37142 15.749 6.93558 13.0505 6.85223C12.8359 6.88675 12.4207 6.71371 12.3863 7.16361C12.3792 7.46161 12.732 7.41966 12.9675 7.44779Z" fill="#23304B"/>
</g>
<defs>
<clipPath id="clip0_181_97">
<rect width="25" height="25" fill="white"/>
</clipPath>
</defs>
</svg>
