<svg width="23" height="15" viewBox="0 0 23 15" fill="none" xmlns="http://www.w3.org/2000/svg">
<path d="M1.98528 12.9949H21.0118L11.4985 2.00504L1.98528 12.9949ZM0.491645 11.6736L10.0049 0.685698C10.1911 0.470333 10.4207 0.297722 10.6783 0.179455C10.9359 0.0611875 11.2156 0 11.4985 0C11.7815 0 12.0611 0.0611875 12.3187 0.179455C12.5764 0.297722 12.806 0.470333 12.9922 0.685698L22.5054 11.6736C23.6281 12.9709 22.7157 15 21.0118 15H1.98528C1.60395 15.0003 1.2306 14.8895 0.909958 14.6809C0.589312 14.4723 0.334956 14.1746 0.177349 13.8236C0.0197422 13.4726 -0.0344341 13.0831 0.0213081 12.7018C0.0770502 12.3205 0.240348 11.9635 0.491645 11.6736Z" fill="#23304B"/>
</svg>
