<svg width="25" height="25" viewBox="0 0 25 25" fill="none" xmlns="http://www.w3.org/2000/svg">
<g clip-path="url(#clip0_181_81)">
<path d="M14.4032 10.3711H13.9308C13.9135 10.3711 13.8965 10.3745 13.8805 10.3811C13.8646 10.3877 13.8501 10.3973 13.8379 10.4095C13.8257 10.4217 13.8161 10.4362 13.8095 10.4521C13.8029 10.468 13.7995 10.4851 13.7995 10.5023V12.2943L12.4213 10.4486C12.4034 10.4246 12.3801 10.4051 12.3533 10.3917C12.3265 10.3783 12.2969 10.3713 12.2669 10.3713H11.8304C11.8132 10.3713 11.7961 10.3747 11.7802 10.3813C11.7643 10.3879 11.7498 10.3975 11.7376 10.4097C11.7254 10.4219 11.7158 10.4364 11.7092 10.4523C11.7026 10.4682 11.6992 10.4853 11.6992 10.5025V13.4832C11.6992 13.518 11.713 13.5513 11.7376 13.5759C11.7622 13.6006 11.7956 13.6144 11.8304 13.6144H12.3029C12.3377 13.6144 12.3711 13.6006 12.3957 13.5759C12.4203 13.5513 12.4342 13.518 12.4342 13.4832V11.708L13.7995 13.5366C13.8174 13.5606 13.8407 13.5801 13.8675 13.5936C13.8942 13.607 13.9238 13.614 13.9537 13.614H14.4032C14.438 13.614 14.4714 13.6001 14.496 13.5755C14.5206 13.5509 14.5345 13.5175 14.5345 13.4827V10.5021C14.5344 10.4673 14.5205 10.434 14.4959 10.4094C14.4713 10.3849 14.4379 10.3711 14.4032 10.3711Z" fill="#E8E9E9"/>
<path d="M9.93574 12.879H8.63042V10.5021C8.63043 10.4849 8.62704 10.4678 8.62045 10.4519C8.61386 10.436 8.60419 10.4215 8.59201 10.4093C8.57983 10.3971 8.56536 10.3874 8.54944 10.3808C8.53352 10.3742 8.51645 10.3708 8.49922 10.3708H8.02671C8.00948 10.3708 7.99241 10.3742 7.97649 10.3808C7.96057 10.3874 7.9461 10.3971 7.93392 10.4093C7.92173 10.4215 7.91207 10.436 7.90548 10.4519C7.89889 10.4678 7.8955 10.4849 7.89551 10.5021V13.4827C7.89551 13.5175 7.90933 13.5509 7.93393 13.5755C7.95854 13.6001 7.99191 13.614 8.02671 13.614H9.93589C9.9707 13.614 10.0041 13.6001 10.0287 13.5755C10.0533 13.5509 10.0672 13.5175 10.0672 13.4827V13.0103C10.0672 12.993 10.0638 12.9759 10.0572 12.96C10.0506 12.944 10.0409 12.9296 10.0287 12.9174C10.0165 12.9052 10.002 12.8955 9.98603 12.8889C9.97008 12.8824 9.953 12.879 9.93574 12.879Z" fill="#E8E9E9"/>
<path d="M10.6196 10.3708H11.092C11.1268 10.3708 11.1602 10.3847 11.1848 10.4093C11.2094 10.4339 11.2232 10.4673 11.2232 10.5021V13.4827C11.2232 13.5175 11.2094 13.5509 11.1848 13.5755C11.1602 13.6001 11.1268 13.614 11.092 13.614H10.6196C10.5848 13.614 10.5514 13.6001 10.5267 13.5755C10.5021 13.5509 10.4883 13.5175 10.4883 13.4827V10.5021C10.4883 10.4673 10.5021 10.4339 10.5268 10.4093C10.5514 10.3847 10.5848 10.3708 10.6196 10.3708Z" fill="#E8E9E9"/>
<path d="M12.5 0C5.59644 0 0 5.59644 0 12.5C0 19.4036 5.59644 25 12.5 25C19.4036 25 25 19.4036 25 12.5C25 5.59644 19.4036 0 12.5 0ZM16.0355 16.9342C14.2094 18.3912 12.918 19.0513 12.259 19.3298C12.2128 19.3493 12.1621 19.3558 12.1125 19.3485C12.0629 19.3413 12.0162 19.3206 11.9775 19.2887C11.9388 19.2569 11.9096 19.215 11.893 19.1677C11.8764 19.1204 11.873 19.0694 11.8833 19.0204C11.9516 18.687 12.0025 18.3503 12.0357 18.0116C12.0517 17.854 12.0055 17.6963 11.9069 17.5723C11.8084 17.4482 11.6652 17.3676 11.508 17.3476C8.23696 16.9287 5.66406 14.6515 5.66406 11.8728C5.66406 8.79448 8.72461 6.29907 12.5 6.29907C16.2754 6.29907 19.3359 8.79448 19.3359 11.8728C19.3359 13.987 17.9453 15.4105 16.0355 16.9342Z" fill="#E8E9E9"/>
<path d="M17.0454 10.3711H15.1362C15.1189 10.3711 15.1019 10.3745 15.0859 10.3811C15.07 10.3877 15.0555 10.3973 15.0433 10.4095C15.0311 10.4217 15.0215 10.4362 15.0149 10.4521C15.0083 10.468 15.0049 10.4851 15.0049 10.5023V13.483C15.0049 13.5178 15.0187 13.5512 15.0434 13.5758C15.068 13.6004 15.1014 13.6142 15.1362 13.6142H17.0454C17.0626 13.6142 17.0797 13.6108 17.0956 13.6042C17.1115 13.5976 17.126 13.5879 17.1382 13.5758C17.1504 13.5636 17.1601 13.5491 17.1667 13.5332C17.1733 13.5172 17.1767 13.5002 17.1767 13.4829V13.0103C17.1767 12.993 17.1733 12.9759 17.1667 12.96C17.1601 12.9441 17.1504 12.9296 17.1382 12.9174C17.126 12.9052 17.1115 12.8956 17.0956 12.889C17.0797 12.8824 17.0626 12.879 17.0454 12.879H15.74V12.3599H17.0454C17.0802 12.3599 17.1136 12.346 17.1382 12.3214C17.1628 12.2968 17.1766 12.2634 17.1767 12.2286V11.7562C17.1767 11.7389 17.1733 11.7218 17.1667 11.7059C17.1601 11.69 17.1504 11.6755 17.1382 11.6633C17.126 11.6511 17.1115 11.6414 17.0956 11.6348C17.0797 11.6283 17.0626 11.6249 17.0454 11.6249H15.74V11.1058H17.0454C17.0626 11.1058 17.0797 11.1024 17.0956 11.0958C17.1115 11.0892 17.126 11.0795 17.1382 11.0674C17.1504 11.0552 17.1601 11.0407 17.1667 11.0248C17.1733 11.0088 17.1767 10.9918 17.1767 10.9745V10.5021C17.1766 10.4673 17.1627 10.434 17.1381 10.4094C17.1135 10.3849 17.0801 10.3711 17.0454 10.3711Z" fill="#E8E9E9"/>
</g>
<defs>
<clipPath id="clip0_181_81">
<rect width="25" height="25" fill="white"/>
</clipPath>
</defs>
</svg>
