<svg width="25" height="25" viewBox="0 0 25 25" fill="none" xmlns="http://www.w3.org/2000/svg">
<g clip-path="url(#clip0_139_154)">
<circle cx="12.5" cy="12.5" r="12.5" fill="#E8E9E9"/>
<path d="M17.3926 8.09941C17.3926 5.39668 15.202 3.20605 12.4988 3.20605C9.7957 3.20605 7.60547 5.39668 7.60547 8.09941C7.60547 11.9717 12.4988 17.7014 12.4988 17.7014C12.4988 17.7014 17.3926 11.9518 17.3926 8.09941ZM10.0855 7.80723C10.0855 6.47402 11.1664 5.39356 12.4992 5.39356C13.832 5.39356 14.9129 6.47402 14.9129 7.80723C14.9129 9.14043 13.832 10.2209 12.4992 10.2209C11.1664 10.2209 10.0855 9.14043 10.0855 7.80723Z" fill="#136A9E"/>
<path d="M12.4988 8.99404C13.1542 8.99404 13.6855 8.46273 13.6855 7.80732C13.6855 7.15192 13.1542 6.62061 12.4988 6.62061C11.8434 6.62061 11.3121 7.15192 11.3121 7.80732C11.3121 8.46273 11.8434 8.99404 12.4988 8.99404Z" fill="#136A9E"/>
<path d="M15.2656 15.9995C14.8668 16.5757 14.4926 17.078 14.1809 17.4812C17.2731 17.6667 19.2996 18.3343 20.0535 18.8312C19.1703 19.4136 16.5457 20.2323 12.4996 20.2323C8.45352 20.2323 5.82891 19.4132 4.94571 18.8312C5.69962 18.3347 7.72462 17.6675 10.8137 17.4815C10.5012 17.0784 10.1266 16.5765 9.72735 16.0003C5.92227 16.3749 3.1586 17.5007 3.1586 18.8308C3.1586 20.4675 7.34102 21.7948 12.4996 21.7948C17.6586 21.7948 21.8402 20.4679 21.8402 18.8308C21.841 17.4999 19.0742 16.3737 15.2656 15.9995Z" fill="#136A9E"/>
</g>
<defs>
<clipPath id="clip0_139_154">
<rect width="25" height="25" fill="white"/>
</clipPath>
</defs>
</svg>
