<svg width="25" height="25" viewBox="0 0 25 25" fill="none" xmlns="http://www.w3.org/2000/svg">
<g clip-path="url(#clip0_137_136)">
<path d="M21.3395 3.66123C19.0766 1.39849 15.9493 0 12.5034 0C9.05068 0 5.92305 1.39849 3.6605 3.66123C1.40454 5.92476 0 9.05308 0 12.4999C0 15.9538 1.40454 19.0752 3.6605 21.3387C5.92305 23.6017 9.05068 25 12.5034 25C15.9493 25 19.0766 23.6017 21.3395 21.3387C23.5952 19.0752 25 15.9538 25 12.4999C25 9.05308 23.5952 5.92476 21.3395 3.66123Z" fill="#E8E9E9"/>
<path fill-rule="evenodd" clip-rule="evenodd" d="M13.5208 8.20896C13.2442 8.17395 12.8912 8.05637 12.829 8.42322C12.7599 8.80383 13.1541 8.77644 13.4101 8.83166C15.154 9.21252 15.749 9.83498 16.0396 11.5243C16.0531 11.5936 16.0605 11.6834 16.0605 11.7595C16.0812 11.9601 16.1296 12.1399 16.4339 12.0849C16.5862 12.0639 16.6416 11.9811 16.6485 11.8635C16.6693 11.7595 16.6485 11.621 16.6624 11.5243C16.6693 9.89734 15.2507 8.42322 13.5208 8.20896ZM13.6801 9.5446C13.5002 9.5446 13.3202 9.56531 13.2511 9.7593C13.1472 10.0362 13.3619 10.1121 13.5761 10.1466C14.289 10.2507 14.6627 10.666 14.7388 11.358C14.7457 11.4549 14.7804 11.5311 14.8218 11.5937C14.8841 11.6622 14.9602 11.6903 15.057 11.6834C15.1193 11.6834 15.1677 11.6622 15.209 11.6417C15.327 11.5517 15.3476 11.3856 15.3338 11.2125C15.3476 10.4308 14.4481 9.52366 13.6801 9.5446ZM17.292 15.0261C16.9392 14.749 16.5515 14.5001 16.1918 14.2439C15.4515 13.7454 14.7734 13.7045 14.2268 14.5138C13.9154 14.9709 13.4793 14.9916 13.0297 14.7906C11.7772 14.2439 10.8154 13.3927 10.2481 12.1399C10.1649 11.9461 10.1097 11.7595 10.1026 11.5864C10.0818 11.2541 10.2202 10.9637 10.5941 10.7073C10.9053 10.5067 11.2097 10.2644 11.189 9.81448C11.1614 9.22629 9.70812 7.2675 9.12721 7.05276C8.89171 6.96965 8.65646 6.98371 8.41432 7.05276C7.065 7.50237 6.51149 8.58264 7.0442 9.86277C7.34864 10.5829 7.67394 11.2541 8.06139 11.8838C9.7152 14.6524 12.1507 16.6736 15.2923 17.9954C15.5068 18.0854 15.749 18.127 15.8803 18.1547C16.7592 18.1684 17.7831 17.331 18.0807 16.514C18.3714 15.7183 17.7627 15.4139 17.292 15.0261ZM12.9675 7.44773C15.7834 7.87639 17.0774 9.19133 17.4371 11.9671C17.4371 11.9949 17.4371 12.0157 17.4371 12.0359C17.4581 12.292 17.4097 12.6246 17.7486 12.6246C18.0464 12.6315 18.0601 12.4101 18.0601 12.1954C18.0464 12.1195 18.0464 12.0571 18.0464 11.995C18.0808 9.37136 15.749 6.93552 13.0505 6.85217C12.8359 6.88669 12.4207 6.71365 12.3863 7.16355C12.3792 7.46155 12.732 7.4196 12.9675 7.44773Z" fill="#136A9E"/>
</g>
<defs>
<clipPath id="clip0_137_136">
<rect width="25" height="25" fill="white"/>
</clipPath>
</defs>
</svg>
