<svg width="25" height="25" viewBox="0 0 25 25" fill="none" xmlns="http://www.w3.org/2000/svg">
<g clip-path="url(#clip0_139_160)">
<path d="M21.3395 3.66123C19.0766 1.39849 15.9493 0 12.5034 0C9.05068 0 5.92305 1.39849 3.6605 3.66123C1.40454 5.92476 0 9.05308 0 12.4999C0 15.9538 1.40454 19.0752 3.6605 21.3387C5.92305 23.6017 9.05068 25 12.5034 25C15.9493 25 19.0766 23.6017 21.3395 21.3387C23.5952 19.0752 25 15.9538 25 12.4999C25 9.05308 23.5952 5.92476 21.3395 3.66123Z" fill="#E8E9E9"/>
<g clip-path="url(#clip1_139_160)">
<path d="M6.66666 5V19C6.66666 20.1027 7.56399 21 8.66666 21H15.3333C16.436 21 17.3333 20.1027 17.3333 19V5H6.66666ZM16 19C16 19.3673 15.7013 19.6667 15.3333 19.6667H8.66666C8.29932 19.6667 7.99999 19.3673 7.99999 19V6.33333H16V19ZM13.3333 18.3333H10.6667V17H13.3333V18.3333Z" fill="#136A9E"/>
</g>
</g>
<defs>
<clipPath id="clip0_139_160">
<rect width="25" height="25" fill="white"/>
</clipPath>
<clipPath id="clip1_139_160">
<rect width="16" height="16" fill="white" transform="translate(4 5)"/>
</clipPath>
</defs>
</svg>
