<svg width="128" height="128" viewBox="0 0 128 128" fill="none" xmlns="http://www.w3.org/2000/svg">
<g filter="url(#filter0_d_51_1694)">
<circle cx="62" cy="60" r="60" fill="white"/>
</g>
<g opacity="0.8">
<path fill-rule="evenodd" clip-rule="evenodd" d="M59.6284 32.8351C60.5861 33.4742 62.8207 32.5155 63.4591 33.1546C63.7784 33.4742 63.4591 35.0722 63.4591 35.7113C63.4591 36.6701 63.4591 37.3093 63.7784 38.268C65.6938 38.9072 67.9284 38.5876 69.8437 38.5876C72.0784 38.5876 73.9938 39.5464 75.2707 40.5052C76.5476 41.4639 77.8245 43.0618 78.1438 44.6598C78.463 46.2577 78.463 48.1753 78.463 50.0928C78.463 52.9691 78.463 55.8454 79.1014 58.7216C79.4207 60.9588 79.4207 63.5155 79.7399 65.7526C80.3784 65.7526 81.0168 66.3918 81.6553 66.3918C82.2938 66.3918 82.613 66.3918 83.2514 66.7113C84.2091 67.0309 84.8476 67.6701 85.4861 67.9897C86.4437 67.0309 87.0822 66.3917 88.0399 65.433C88.3591 65.1134 88.6784 64.7938 89.3168 64.7938C89.6361 65.433 88.6784 65.7526 88.3591 66.0722C87.7207 66.7113 87.0822 67.6701 86.4438 68.3093C88.0399 69.5876 89.6361 71.5052 89.9553 74.3815C90.2745 77.2577 89.636 80.4536 88.6784 82.3711C88.3591 83.0103 88.0399 83.9691 87.7207 84.2887C86.4438 86.2062 83.8899 87.1649 81.3361 87.8041C81.3361 88.1237 81.336 88.4433 81.0168 88.7629C80.6976 89.4021 80.3784 89.7217 80.0591 89.7217C78.7822 90.3608 77.1861 91 75.2707 91C74.313 91 73.3553 91 72.3976 91C66.6514 90.6804 60.2668 90.6804 54.2014 90.6804C52.6053 90.6804 51.0091 91 49.0938 91C45.9015 91 42.3899 90.6804 40.1553 89.7217C39.1976 89.0825 38.2399 88.4433 37.2822 87.4845C36.3245 86.5258 35.6861 85.567 35.0476 84.6082C33.7707 80.7732 34.7284 75.0206 34.4091 70.5464C34.0899 66.7113 34.4092 63.1959 34.0899 59.3608C34.0899 57.4433 34.0899 55.8454 33.7707 53.9278C33.4515 52.3299 33.1322 50.4124 33.1322 48.8144C32.813 46.8969 33.1322 45.299 33.4515 44.0206C33.7707 43.3814 33.7707 42.4227 34.0899 42.1031C34.7284 41.1443 36.0053 39.866 36.963 39.2268C39.5168 37.6289 43.6668 37.9485 47.8168 37.6289C47.8168 36.3505 47.4976 34.433 47.4976 33.1546C48.1361 32.5155 49.7322 33.1546 50.6899 32.8351C51.0091 32.5155 51.0092 31.8763 51.3284 31.2371C51.9668 30.2784 53.563 29.3196 54.8399 29C58.0322 29.3196 58.9899 30.9175 59.6284 32.8351ZM58.6707 33.1546C58.3515 31.8763 57.713 30.9175 56.7553 30.5979C54.5207 29.9588 52.6053 31.5567 52.2861 32.8351C52.2861 33.1546 52.2861 33.4742 51.9668 33.7938C51.3284 34.433 49.7322 34.1134 48.7745 34.1134C49.0938 36.3505 49.0938 39.5464 49.413 42.1031C53.563 42.4227 58.6707 42.7423 63.1399 42.1031C63.1399 40.8247 63.1399 39.5464 62.8207 38.268C62.8207 36.9897 62.8207 35.3917 62.8207 34.1134C61.5438 33.4742 59.3091 34.1134 58.6707 33.1546ZM74.313 65.1134C73.9937 65.433 73.3553 66.0722 73.0361 66.3918V66.7113C73.3553 66.7113 73.6745 66.3918 73.6745 66.3918V66.0722C73.9938 65.7526 74.6322 65.433 74.9515 65.1134C75.5899 64.7938 75.9091 63.835 76.5476 63.835C76.2284 64.4742 75.9091 64.7938 75.2707 65.1134C74.9514 65.433 74.313 65.7526 73.9938 66.3918C75.2707 66.3918 75.2707 65.1134 76.5476 64.7938C76.5476 65.433 75.9091 65.433 75.9091 66.0722C76.5476 66.0722 76.5476 65.433 77.1861 65.433C77.5053 65.7526 76.8668 65.7526 77.1861 66.0722C77.8245 66.0722 78.463 66.0722 78.7822 66.0722C78.7822 65.1134 78.463 64.1546 78.463 62.8763C78.463 62.2371 78.463 61.9175 78.463 61.2783C78.463 60 78.1437 58.7216 77.8245 57.4433C77.8245 56.8041 77.8245 56.165 77.8245 55.2062C77.8245 52.6495 77.8245 49.7732 77.5053 47.2165C77.1861 44.9794 76.8668 43.3814 75.5899 42.1031C74.313 40.8247 72.0784 39.5464 69.5245 39.5464C68.8861 39.5464 68.2476 39.5464 67.2899 39.5464C66.013 39.5464 64.7361 39.2268 63.4591 39.2268C63.1399 40.5052 63.7784 41.7835 63.4591 43.0618C62.1822 43.3814 60.2668 43.3814 58.9899 43.3814C56.1168 43.3814 52.9245 43.3814 50.3707 43.0618C49.7322 43.0618 49.413 43.0618 48.7745 43.0618C47.1784 42.7423 48.1361 40.5052 47.8168 38.9072C45.5822 38.9072 43.0284 38.9072 41.113 39.2268C40.7938 39.2268 40.4745 39.2268 39.8361 39.5464C37.9207 39.866 35.6861 41.1443 34.7284 42.7423C34.0899 43.701 33.7707 45.6186 33.7707 46.5773C33.4515 49.134 34.0899 51.0515 34.4091 52.9691C34.7284 54.8866 34.7284 56.8041 35.0476 58.7216C35.3668 63.5155 35.0476 68.9485 35.6861 73.7423C35.6861 75.6598 35.3668 77.8969 35.3668 79.8144C35.3668 80.7732 35.3668 81.732 35.6861 82.6907C36.0053 85.8866 37.9207 87.4845 40.1553 89.0825C41.4322 89.7217 42.7091 90.3608 43.9861 90.3608C46.2207 90.6804 48.4553 90.6804 51.0091 90.6804C52.6053 90.6804 54.5207 90.6804 56.1168 90.3608C57.713 90.3608 60.5861 90.3608 62.1822 90.6804C64.7361 91 67.9284 90.3608 70.8014 90.6804C74.313 91 77.5053 91 79.7399 89.7217C80.0591 89.4021 80.6976 89.0825 80.6976 88.4433C78.7822 88.1237 76.8668 88.1237 75.2707 87.4845C74.9514 87.4845 75.2707 88.1237 74.9515 87.8041C74.6322 87.4845 75.2707 87.165 74.6322 87.165C73.9937 87.4845 74.313 88.4433 73.6745 88.4433C73.3553 87.8041 74.6322 86.5258 73.3553 86.2062C73.3553 86.5258 73.0361 86.8454 72.7168 87.4845C72.7168 87.8041 72.3976 88.4433 72.0784 88.4433C72.0784 87.4845 72.7168 86.8454 73.0361 85.8866C72.7168 85.8866 72.7168 85.567 72.3976 85.567C72.0784 86.2062 72.0784 86.8454 71.7591 87.165C71.4399 87.8041 71.4399 88.4433 70.8014 88.4433C70.8014 87.4845 72.7168 85.2474 71.4399 84.6082C71.1207 85.2474 70.8015 86.5258 70.4822 87.165C70.4822 87.4845 70.163 88.1237 69.8437 87.8041C69.8437 87.1649 70.4822 86.5258 70.8014 85.8866C71.1207 84.9278 71.7591 83.9691 70.8014 83.6495C70.4822 84.6082 70.163 85.2474 69.8437 86.2062C69.5245 87.1649 69.2053 87.8041 68.5668 88.4433C68.5668 87.4845 69.2053 86.8454 69.5245 85.8866C69.5245 85.567 69.8437 84.9278 69.8437 84.6082C69.8437 84.2887 70.163 83.6495 70.163 83.3299C70.163 83.0103 69.5245 82.3711 69.2053 81.732C68.2476 80.134 67.6091 78.8557 67.2899 76.9381C66.9707 74.3814 67.6091 72.1443 68.5668 70.866C69.2053 69.5876 70.8014 68.9485 71.4399 67.6701C71.7591 67.6701 72.0784 67.3505 72.3976 67.3505C72.3976 67.0309 72.0784 67.0309 72.3976 66.7113C73.0361 66.3918 73.3553 65.7526 73.9938 65.433C74.6322 65.1134 74.9514 64.1546 75.5899 64.1546C75.2707 64.4742 74.6322 64.7938 74.313 65.1134ZM81.6553 67.0309C81.3361 67.0309 81.0168 66.7113 80.6976 66.7113C77.8245 66.0722 74.313 66.7113 72.3976 67.6701C71.7591 67.9897 71.1207 68.6289 70.8014 69.268C69.5245 70.5464 68.5668 72.1443 68.2476 74.701C67.9284 77.5773 68.5668 79.1753 69.5245 80.7732C70.8014 83.0103 72.3976 84.6083 74.313 85.8866C75.5899 86.8454 76.8668 86.8454 78.7822 87.165C81.0168 87.165 82.2937 87.165 83.8899 86.5258C85.8053 85.567 86.763 84.2887 88.0399 82.3711C88.9976 80.4536 89.6361 77.5773 89.3168 75.0206C89.3168 73.4227 88.6784 72.1443 87.7207 71.1856C87.4014 70.5464 86.763 69.9072 86.1245 69.5876C84.8476 71.1856 83.8899 73.4227 83.2514 75.6598C82.9322 76.299 82.613 77.2577 82.613 77.8969C82.2937 79.4948 82.613 81.0928 81.9745 82.6907C81.3361 82.6907 80.3784 83.0103 79.7399 82.6907C79.4207 80.7732 79.1015 79.4948 78.1438 77.8969C77.8245 76.9381 77.1861 75.9794 76.5476 75.3402C75.9091 74.3814 74.6322 73.4227 73.6745 72.7835C73.3553 72.4639 72.7168 72.4639 72.7168 71.8247C73.0361 71.1856 73.6745 71.8247 73.9938 71.8247C76.2284 73.1031 77.8245 74.701 79.1014 76.9381C79.7399 77.8969 80.0591 78.8557 80.6976 79.8144C81.3361 75.3402 82.9322 71.8247 84.8476 68.6289C84.2091 67.9897 83.2514 67.3505 81.6553 67.0309Z" fill="#034166"/>
<path fill-rule="evenodd" clip-rule="evenodd" d="M55.1589 32.5155C56.1166 32.1959 56.7551 32.5155 57.0743 33.1547C57.3935 33.4743 57.3935 33.4743 57.7127 33.7939C58.3512 35.7114 57.0743 36.9897 55.4781 36.9897C54.2012 36.9897 53.5627 36.3506 53.2435 35.3918C52.9243 33.7939 53.882 32.5155 55.1589 32.5155ZM54.8397 33.4743C54.5204 33.7939 53.882 35.0722 54.5204 35.7114C55.1589 36.3506 56.4358 36.031 56.755 35.3918C57.3935 34.433 56.4358 33.1547 55.4781 33.1547C55.1589 33.1547 54.8397 33.1547 54.8397 33.4743Z" fill="#034166"/>
<path fill-rule="evenodd" clip-rule="evenodd" d="M60.9055 35.3917C60.5863 35.7113 60.267 36.0309 59.9478 36.3505C59.6286 36.6701 58.9901 36.9897 58.6709 36.9897C59.3094 36.3505 60.267 36.0309 60.5863 35.3917H60.9055Z" fill="#034166"/>
<path fill-rule="evenodd" clip-rule="evenodd" d="M61.2243 36.3505C61.2243 36.9896 60.5858 36.9896 59.9474 37.3092C58.9897 37.9484 58.032 38.268 57.0743 38.5876C56.7551 38.9072 56.1166 39.2268 55.7974 39.2268C56.4358 38.5876 57.3935 38.268 58.3512 37.6288C59.3089 37.3092 60.2666 36.9896 61.2243 36.3505Z" fill="#034166"/>
<path fill-rule="evenodd" clip-rule="evenodd" d="M61.5438 37.3091C61.5438 37.6287 61.2246 37.9483 60.9053 37.9483C60.2669 38.2678 59.3092 38.907 58.3515 39.2266C57.713 39.5462 57.3938 39.8658 56.7553 40.1854C56.1169 40.505 55.7976 41.1441 55.1592 40.8246C55.4784 40.1854 56.1169 40.1854 56.7553 39.8658C58.0323 39.2266 59.6284 38.2678 61.5438 37.3091Z" fill="#034166"/>
<path fill-rule="evenodd" clip-rule="evenodd" d="M60.9055 38.9071C60.9055 39.2267 60.267 39.5463 59.9478 39.5463C59.3093 39.8659 58.6709 40.1855 58.0324 40.505C57.7132 40.505 57.3939 41.1442 57.0747 40.8246C57.3939 40.1855 58.0324 40.1855 58.6709 39.8659C59.3093 39.5463 59.9478 38.9071 60.9055 38.9071Z" fill="#034166"/>
<path fill-rule="evenodd" clip-rule="evenodd" d="M61.5437 39.5463C61.2245 39.8659 60.9052 40.1854 60.2668 40.505C59.9475 40.8246 59.6283 40.8246 59.3091 40.8246C59.6283 40.1854 60.586 39.8659 61.2245 39.5463C61.5437 39.5463 61.5437 39.5463 61.5437 39.5463Z" fill="#034166"/>
<path fill-rule="evenodd" clip-rule="evenodd" d="M39.5168 47.2162C40.7937 46.8967 41.7514 48.4946 41.1129 49.4534C40.4745 50.4121 38.5591 49.7729 38.5591 48.4946C38.5591 48.175 39.1975 47.5358 39.5168 47.2162Z" fill="#034166"/>
<path fill-rule="evenodd" clip-rule="evenodd" d="M44.3055 48.4948C47.1786 48.4948 50.3709 48.4948 53.244 48.4948C54.8401 48.4948 56.1171 48.4948 57.7132 48.4948C59.3094 48.4948 60.9055 48.4948 62.1824 48.4948C63.1401 48.4948 63.7786 48.8144 64.4171 48.8144C65.694 48.8144 67.2901 48.8144 68.5671 48.8144C68.8863 48.8144 70.1632 48.1752 70.1632 49.134C70.1632 49.7732 68.8863 49.7732 68.5671 49.7732C67.6094 49.7732 66.3324 49.7732 65.0555 49.7732C63.7786 49.7732 62.8209 49.4536 61.8632 49.4536C60.5863 49.4536 58.9901 49.4536 57.394 49.4536C55.7978 49.4536 54.5209 49.4536 52.9248 49.134C51.6478 49.134 50.0517 49.134 48.7747 49.134C47.4978 49.134 45.9017 49.134 44.6248 49.134C44.3055 49.134 42.3901 49.7732 42.3901 48.8144C43.0286 48.1752 43.6671 48.4948 44.3055 48.4948Z" fill="#034166"/>
<path fill-rule="evenodd" clip-rule="evenodd" d="M73.9937 52.3298C73.6745 52.969 73.3553 53.6081 72.7168 53.6081C72.7168 52.969 73.3553 52.6494 73.9937 52.3298Z" fill="#034166"/>
<path fill-rule="evenodd" clip-rule="evenodd" d="M74.6323 52.9689C74.6323 53.2885 73.9938 53.9276 73.9938 54.2472C73.6746 54.5668 73.3554 55.206 73.0361 55.206C73.3554 54.2472 73.6746 53.2885 74.6323 52.9689Z" fill="#034166"/>
<path fill-rule="evenodd" clip-rule="evenodd" d="M40.1551 53.9281C41.432 53.6085 42.0705 55.526 41.1128 56.1652C40.1551 56.8044 38.5589 56.1652 39.1974 54.5673C38.8782 54.2477 39.5166 53.9281 40.1551 53.9281Z" fill="#034166"/>
<path fill-rule="evenodd" clip-rule="evenodd" d="M75.2708 54.2474C74.9515 54.8866 74.6323 55.2062 74.3131 55.5257C73.9938 55.8453 73.6746 56.4845 73.0361 56.8041C73.0361 56.1649 73.6746 55.8453 73.9938 55.5257C74.3131 54.8866 74.6323 54.567 75.2708 54.2474Z" fill="#034166"/>
<path fill-rule="evenodd" clip-rule="evenodd" d="M45.5824 54.5671C47.1785 54.5671 49.4131 54.5671 51.3285 54.5671C53.2439 54.5671 55.1593 54.5671 57.0747 54.5671C58.3516 54.5671 59.6285 54.8867 60.9055 54.8867C61.8631 54.8867 63.4593 54.8867 64.417 54.8867C65.0554 54.8867 66.3324 54.8867 67.2901 54.8867C67.9285 54.8867 69.5247 54.5671 69.8439 55.2063C70.1631 56.1651 67.9285 55.8455 67.2901 55.8455C65.0554 55.8455 63.1401 55.8455 61.2247 55.8455C60.267 55.8455 59.3093 55.5259 58.3516 55.5259C54.8401 55.2063 51.0093 55.5259 47.1785 55.5259C46.5401 55.5259 45.9016 55.5259 45.2631 55.5259C44.6247 55.5259 43.9862 55.5259 43.667 55.2063C43.667 54.5671 44.6247 54.5671 45.5824 54.5671Z" fill="#034166"/>
<path fill-rule="evenodd" clip-rule="evenodd" d="M75.5897 55.2062C75.2704 56.1649 74.3127 56.4845 73.9935 57.4433C73.6743 57.7629 73.355 58.0825 73.0358 58.4021C72.7166 58.7216 72.3974 59.0412 72.0781 59.3608C72.0781 59.0412 72.3973 58.7216 72.7166 58.4021C73.355 57.7629 73.6743 57.1237 74.3127 56.4845C74.9512 55.8453 75.2704 55.5258 75.5897 55.2062Z" fill="#034166"/>
<path fill-rule="evenodd" clip-rule="evenodd" d="M76.2281 56.4845C75.5896 57.7628 73.9935 59.0412 73.0358 60C72.7166 60.3196 72.7166 60.9587 72.0781 60.9587C72.0781 60.3196 72.7166 60 73.0358 59.6804C74.3127 58.7216 74.9512 57.4433 76.2281 56.4845Z" fill="#034166"/>
<path fill-rule="evenodd" clip-rule="evenodd" d="M75.9093 58.4025C75.9093 58.7221 75.2708 59.0416 74.9516 59.3612C74.6324 59.6808 74.3131 60.0004 73.9939 60.32C73.3554 60.9592 72.717 61.5983 72.3977 62.2375C72.0785 62.5571 72.0785 62.8767 71.7593 63.1963C71.7593 62.5571 72.0785 62.2375 72.3977 61.9179C73.3554 60.6396 74.6323 59.3612 75.9093 58.4025Z" fill="#034166"/>
<path fill-rule="evenodd" clip-rule="evenodd" d="M75.5899 59.6802C75.9091 59.9998 75.2707 60.6389 74.9514 60.9585C73.9937 61.9173 72.7168 63.1956 71.7591 64.474H71.4399C70.4822 65.4328 68.886 65.7523 67.9283 66.7111C68.2476 67.0307 69.5245 66.3915 69.5245 67.3503C69.5245 67.9895 68.5668 67.6699 68.2476 67.6699C67.6091 67.6699 66.3322 67.6699 65.6937 67.9895C64.7361 68.3091 63.7784 69.2678 62.8207 69.5874C61.863 70.2266 60.9053 70.8657 59.9476 70.8657C60.2668 70.5462 60.586 70.2266 61.2245 69.907C62.5014 69.2678 63.7783 68.6286 64.736 67.6699C61.5437 67.6699 58.3514 67.6699 55.1591 67.6699C51.9668 67.6699 48.7745 67.3503 45.9014 67.3503C45.5822 67.3503 44.9437 67.6699 44.6245 67.3503C44.6245 66.3915 45.9014 66.7111 46.5399 66.7111C51.0091 66.7111 55.4784 67.3503 60.2668 67.0307C60.586 67.0307 60.9053 67.0307 61.2245 67.0307C62.8207 67.0307 64.736 67.3503 66.3322 67.0307C66.9707 66.7111 67.9284 66.3915 68.5668 65.7523C68.8861 65.4328 69.2053 65.4328 69.8437 65.1132C70.4822 64.7936 70.4822 64.474 71.4399 64.474C72.7168 62.5565 73.9937 61.2781 75.5899 59.6802Z" fill="#034166"/>
<path fill-rule="evenodd" clip-rule="evenodd" d="M39.836 60.3196C40.7937 60 41.7513 60.6392 41.4321 61.9175C41.1129 63.8351 37.9206 62.5567 39.1975 60.9588C39.1975 60.3196 39.5167 60.3196 39.836 60.3196Z" fill="#034166"/>
<path fill-rule="evenodd" clip-rule="evenodd" d="M69.5244 60.3198C69.8436 60.3198 70.1629 60.3198 70.4821 60.6394C70.4821 61.2786 68.8859 61.2786 68.2475 61.2786C66.9705 61.2786 66.0129 61.2786 65.3744 61.2786C63.1398 61.2786 61.2244 61.2786 59.6282 61.5982C54.5206 61.9178 50.0513 61.5982 45.2629 61.5982C44.6244 61.5982 43.9859 61.9178 43.9859 61.5982C43.6667 60.959 44.9436 60.959 45.5821 60.959C51.009 60.6394 56.1167 60.959 61.2244 60.6394C63.1398 60.3198 66.6513 60.3198 69.5244 60.3198Z" fill="#034166"/>
<path fill-rule="evenodd" clip-rule="evenodd" d="M75.5899 61.2787C75.5899 61.9179 74.9515 61.9179 74.6322 62.2374C73.6746 63.1962 73.0361 64.155 72.0784 65.1137C72.0784 65.4333 71.7592 65.7529 71.4399 65.4333C71.4399 64.7941 71.7592 64.4746 72.0784 64.155C73.0361 63.1962 74.313 62.2374 75.5899 61.2787Z" fill="#034166"/>
<path fill-rule="evenodd" clip-rule="evenodd" d="M76.2285 61.9174C75.2708 63.1957 73.3554 64.4741 72.3977 66.072C72.3977 66.072 72.0785 66.7112 71.7593 66.3916C72.0785 65.4328 73.0362 64.7936 73.6747 63.8349C74.3131 63.1957 75.2708 62.237 75.9093 61.5978C75.9093 61.5978 76.2285 61.5978 76.2285 61.9174Z" fill="#034166"/>
<path fill-rule="evenodd" clip-rule="evenodd" d="M40.4747 66.7118C40.7939 66.7118 41.1131 66.7118 41.4324 67.0314C41.7516 67.351 42.0708 67.9901 42.0708 68.6293C41.7516 69.2685 40.1554 69.9077 39.517 68.9489C38.8785 67.9901 39.1978 66.7118 40.4747 66.7118Z" fill="#034166"/>
<path fill-rule="evenodd" clip-rule="evenodd" d="M65.6936 70.2267C65.3744 70.5463 65.0552 70.8659 64.4167 70.8659C63.1398 71.505 62.1821 72.4638 60.5859 72.4638C60.9052 72.1442 61.2244 71.8246 61.5436 71.8246C62.1821 71.505 63.1398 70.8659 63.7782 70.5463C64.7359 70.5463 65.3744 70.2267 65.6936 70.2267Z" fill="#034166"/>
<path fill-rule="evenodd" clip-rule="evenodd" d="M62.8207 70.866C62.5014 71.5051 61.5437 71.8247 60.9053 71.8247C61.5437 71.5051 62.1822 71.1856 62.8207 70.866Z" fill="#034166"/>
<path fill-rule="evenodd" clip-rule="evenodd" d="M65.3744 71.825C64.4167 72.4641 63.4591 73.1033 62.1821 73.4229C62.1821 73.1033 62.5014 73.1033 62.8206 72.7837C63.7783 72.4641 64.4167 72.1445 65.3744 71.825Z" fill="#034166"/>
<path fill-rule="evenodd" clip-rule="evenodd" d="M40.4747 72.7831C41.1132 72.7831 42.3901 73.7418 42.0709 74.7006C42.0709 75.3398 41.4324 75.6594 40.7939 75.6594C39.517 75.6594 38.5593 73.1027 40.4747 72.7831Z" fill="#034166"/>
<path fill-rule="evenodd" clip-rule="evenodd" d="M45.9014 73.7422C46.2206 73.7422 47.1783 73.7422 47.8167 73.7422C51.3283 74.0618 55.1591 74.0618 58.9898 74.0618C61.2244 74.0618 63.1398 74.0618 64.736 74.0618C65.0552 74.0618 65.3744 74.0618 65.6937 74.3814C65.6937 75.0205 64.0975 75.0205 63.7783 75.0205C61.2244 75.0205 58.3514 75.0205 56.1168 75.0205C54.2014 75.0205 52.6052 75.0205 51.0091 75.0205C49.4129 75.0205 47.8167 74.7009 46.2206 74.7009C45.9014 74.7009 44.6244 75.0205 44.6244 74.3814C44.3052 73.7422 45.2629 73.7422 45.9014 73.7422Z" fill="#034166"/>
<path fill-rule="evenodd" clip-rule="evenodd" d="M60.9055 75.9796C59.9478 76.6188 58.9901 77.258 58.0324 77.8972C57.0747 78.5363 56.117 79.1755 55.1593 79.8147C57.0747 80.4538 58.3516 79.4951 59.3093 78.8559C59.9478 78.5363 60.5862 78.2167 61.2247 77.8972C60.9055 78.5363 60.267 78.5363 59.9478 78.8559C59.6285 79.1755 58.9901 79.4951 58.6709 79.8147C60.9055 80.4538 61.8632 79.1755 63.1401 78.2167C63.4593 77.8971 63.7786 77.5776 64.0978 77.5776C64.417 77.258 64.7362 76.9384 65.3747 76.9384C65.0555 77.5776 64.0978 77.8971 63.4593 78.2167C62.8209 78.5363 62.1824 79.1755 61.5439 79.4951C63.1401 79.8147 64.417 78.8559 65.3747 78.2167C65.6939 77.8971 66.0132 77.5776 66.6516 77.5776C66.0132 78.2167 65.0555 78.5363 64.417 79.1755C64.417 79.4951 64.417 79.8147 64.417 79.8147C64.0978 80.1343 63.7785 80.1343 63.1401 80.1343C62.8209 80.1343 62.5016 80.4539 62.1824 80.4539C60.267 80.7734 57.7132 80.1343 56.117 80.4539C55.4786 80.4539 55.1593 81.093 54.5209 81.093C54.5209 80.7734 54.8401 80.7734 55.1593 80.4539C54.5209 80.4539 53.5632 80.1343 52.9247 80.4539C52.6055 80.4539 52.6055 80.1343 52.6055 80.1343C50.3709 80.1343 47.817 79.8147 45.9016 80.1343C45.5824 80.1343 45.2632 80.4539 44.9439 80.1343C44.6247 79.4951 45.9016 79.1755 46.5401 79.1755C48.7747 78.8559 51.6478 79.4951 53.8824 79.1755C54.5209 79.1755 55.1593 78.5363 55.7978 78.2167C57.0747 77.258 58.9901 76.2992 60.267 75.3405C60.267 75.9796 60.5863 75.9796 60.9055 75.9796Z" fill="#034166"/>
<path fill-rule="evenodd" clip-rule="evenodd" d="M41.1128 78.8556C42.0705 78.8556 42.709 79.4948 42.709 80.4535C42.3897 81.7319 39.8359 81.4123 39.8359 80.4535C39.5166 79.4948 40.4743 79.1752 41.1128 78.8556Z" fill="#034166"/>
<path fill-rule="evenodd" clip-rule="evenodd" d="M66.3321 79.8145C66.0129 80.1341 65.6936 80.7733 65.0552 80.4537C65.3744 80.1341 66.0129 79.4949 66.3321 79.8145Z" fill="#034166"/>
<path fill-rule="evenodd" clip-rule="evenodd" d="M67.2899 80.1337C66.6514 80.4533 66.013 81.0925 65.3745 81.0925C65.6937 80.4533 66.6514 80.4533 67.2899 80.1337Z" fill="#034166"/>
<path fill-rule="evenodd" clip-rule="evenodd" d="M68.2476 81.7321C68.2476 83.0104 67.9284 84.2888 67.2899 85.5671C66.9707 86.5259 66.6514 87.165 66.013 88.1238C66.013 88.4434 66.013 88.763 65.3745 88.763C65.3745 88.1238 65.6937 87.8042 66.013 87.4846C66.9707 85.8867 67.6091 83.6496 68.2476 81.7321Z" fill="#034166"/>
<path fill-rule="evenodd" clip-rule="evenodd" d="M69.2053 82.3711C69.5245 82.3711 69.2053 82.6907 69.2053 83.0103C68.8861 84.2886 67.9284 85.8866 67.6092 87.1649C67.2899 87.4845 67.6092 88.1237 66.9707 88.4433C66.9707 88.1237 67.2899 87.4845 67.2899 87.1649C67.9284 85.567 68.8861 83.969 69.2053 82.3711Z" fill="#034166"/>
<path fill-rule="evenodd" clip-rule="evenodd" d="M66.013 82.3711C66.3322 82.6907 66.013 83.3298 65.6937 83.6494C65.3745 84.6082 65.0553 85.567 64.4168 86.5257C64.0976 86.8453 64.0976 87.4845 63.7783 87.8041C63.4591 87.4845 64.0976 87.1649 64.0976 86.8453C65.0553 85.567 65.3745 83.969 66.013 82.3711C66.013 82.6907 66.013 82.6907 66.013 82.3711Z" fill="#034166"/>
<path fill-rule="evenodd" clip-rule="evenodd" d="M67.2898 82.3711C67.2898 83.0103 66.9706 83.3299 66.9706 83.969C66.6513 84.9278 66.3321 85.8866 65.6936 86.8453C65.3744 87.1649 65.3744 87.8041 64.7359 88.1237C64.4167 87.4845 65.0552 87.1649 65.3744 86.8453C66.0129 85.567 66.3321 83.969 67.2898 82.3711C66.9706 82.6907 66.9706 82.6907 67.2898 82.3711Z" fill="#034166"/>
<path fill-rule="evenodd" clip-rule="evenodd" d="M63.1401 82.6907C63.1401 83.3298 62.8208 83.6494 62.5016 84.2886C61.8631 85.567 61.2247 86.8453 60.5862 88.1237C60.5862 88.4433 60.267 88.7628 59.9478 88.7628C59.9478 88.4433 60.267 87.8041 60.5862 87.4845C61.2247 86.5257 61.8631 85.2474 62.5016 83.969C62.5016 83.3299 62.8208 83.0103 63.1401 82.6907Z" fill="#034166"/>
<path fill-rule="evenodd" clip-rule="evenodd" d="M59.6285 83.3297C59.6285 83.9689 59.3092 84.2885 58.99 84.6081C58.6708 85.5668 58.0323 86.206 57.7131 87.1648C57.3938 87.4844 57.3938 88.1235 56.7554 88.4431C56.7554 87.4843 57.3938 86.8452 58.0323 85.8864C58.6708 85.2472 58.99 84.2885 59.6285 83.3297Z" fill="#034166"/>
<path fill-rule="evenodd" clip-rule="evenodd" d="M61.5436 83.6495C61.2244 84.6083 60.9051 85.2475 60.2667 86.2062C59.9474 86.8454 59.6282 87.8042 58.9897 88.4434C58.9897 88.1238 59.309 87.8042 59.6282 87.4846C59.9474 85.8867 60.5859 84.6083 61.5436 83.6495Z" fill="#034166"/>
<path fill-rule="evenodd" clip-rule="evenodd" d="M64.4166 83.6493C64.0974 84.2885 63.7782 85.2472 63.4589 86.206C63.1397 87.1648 62.5013 88.1235 61.8628 88.4431C61.8628 88.1235 62.182 87.4844 62.5013 87.1648C63.1397 86.206 63.7782 84.6081 64.4166 83.3297C64.0974 83.6493 64.4166 83.6493 64.4166 83.6493Z" fill="#034166"/>
<path fill-rule="evenodd" clip-rule="evenodd" d="M52.9244 83.6495C52.9244 84.6083 52.286 85.2475 51.6475 85.8867C51.3283 86.2062 51.3283 86.5258 51.009 87.165C50.6898 87.4846 50.6898 88.1238 50.0514 88.1238C49.7321 87.8042 50.3706 87.4846 50.6898 87.165C51.6475 86.2062 51.9667 84.9279 52.9244 83.6495Z" fill="#034166"/>
<path fill-rule="evenodd" clip-rule="evenodd" d="M58.3516 83.9691C58.3516 84.6083 58.0324 84.9279 57.7131 85.5671C57.0747 86.5258 56.4362 87.8042 55.4785 88.7629C55.4785 88.1238 55.7977 87.8042 56.117 87.4846C56.4362 86.5258 57.0747 85.2475 58.3516 83.9691Z" fill="#034166"/>
<path fill-rule="evenodd" clip-rule="evenodd" d="M49.0938 83.9691C49.413 84.2887 49.0938 84.9279 48.7745 85.2475C48.4553 86.2062 47.8169 86.8454 47.1784 87.4846C46.8592 87.8042 46.8592 88.4433 46.2207 88.1238C46.5399 87.4846 47.1784 86.8454 47.4976 86.2062C47.8169 85.567 48.1361 84.9279 48.7745 84.2887C48.7745 84.2887 48.7746 84.2887 49.0938 83.9691C48.7746 84.2887 48.7746 84.2887 49.0938 83.9691C48.7746 83.9691 48.7746 83.9691 49.0938 83.9691Z" fill="#034166"/>
<path fill-rule="evenodd" clip-rule="evenodd" d="M56.4362 84.2885C56.1169 85.8864 55.1592 86.8452 54.5208 88.1235C54.5208 88.4431 54.5208 88.7627 53.8823 88.7627C53.8823 88.1235 54.5208 87.4843 54.84 86.8452C55.1592 86.206 55.4785 85.2472 55.7977 84.2885C56.1169 84.2885 56.1169 84.2885 56.4362 84.2885C56.1169 84.2885 56.1169 84.2885 56.4362 84.2885Z" fill="#034166"/>
<path fill-rule="evenodd" clip-rule="evenodd" d="M54.5208 84.2885C54.5208 84.9276 53.8823 85.5668 53.5631 86.5256C53.2438 87.1647 52.9246 88.1235 52.2862 88.4431C51.9669 88.1235 52.6054 87.8039 52.6054 87.4843C53.2438 86.5256 53.8823 85.2472 54.5208 84.2885Z" fill="#034166"/>
<path fill-rule="evenodd" clip-rule="evenodd" d="M45.2632 84.6085C44.9439 85.2476 44.6247 85.8868 43.9862 86.526C43.667 86.2064 43.9862 85.8868 44.3055 85.5672C44.3055 84.9281 44.6247 84.6085 45.2632 84.6085C44.9439 84.6085 44.9439 84.2889 45.2632 84.6085Z" fill="#034166"/>
<path fill-rule="evenodd" clip-rule="evenodd" d="M51.0093 84.2885C51.0093 84.9276 50.3709 85.2472 50.0516 85.5668C49.4132 86.5256 48.7747 87.4843 48.1363 88.4431C47.817 88.1235 48.4555 87.8039 48.4555 87.4843C49.4132 86.5256 50.0516 85.2472 51.0093 84.2885Z" fill="#034166"/>
<path fill-rule="evenodd" clip-rule="evenodd" d="M47.1786 84.6083C47.4978 84.6083 47.4978 84.6083 47.1786 84.6083C47.1786 85.2475 46.8593 85.8866 46.5401 86.5258C46.2209 87.165 45.9016 87.8042 45.2632 87.8042C45.5824 87.165 45.9016 86.8454 46.2209 86.2062C46.5401 85.567 46.8593 85.2475 47.1786 84.6083Z" fill="#034166"/>
<path fill-rule="evenodd" clip-rule="evenodd" d="M45.9014 84.6083C45.9014 85.2475 45.5822 85.567 45.5822 85.8866C45.263 86.2062 45.263 86.8454 44.6245 86.8454C44.9437 85.8866 45.5822 85.2475 45.9014 84.6083Z" fill="#034166"/>
</g>
<defs>
<filter id="filter0_d_51_1694" x="0" y="0" width="128" height="128" filterUnits="userSpaceOnUse" color-interpolation-filters="sRGB">
<feFlood flood-opacity="0" result="BackgroundImageFix"/>
<feColorMatrix in="SourceAlpha" type="matrix" values="0 0 0 0 0 0 0 0 0 0 0 0 0 0 0 0 0 0 127 0" result="hardAlpha"/>
<feOffset dx="2" dy="4"/>
<feGaussianBlur stdDeviation="2"/>
<feComposite in2="hardAlpha" operator="out"/>
<feColorMatrix type="matrix" values="0 0 0 0 0 0 0 0 0 0 0 0 0 0 0 0 0 0 0.25 0"/>
<feBlend mode="normal" in2="BackgroundImageFix" result="effect1_dropShadow_51_1694"/>
<feBlend mode="normal" in="SourceGraphic" in2="effect1_dropShadow_51_1694" result="shape"/>
</filter>
</defs>
</svg>
