<svg width="120" height="84" viewBox="0 0 120 84" fill="none" xmlns="http://www.w3.org/2000/svg">
<g filter="url(#filter0_d_45_1043)">
<path d="M26.9 76C12.9 76 4 63.3 4 37.8C4 12.3 12.9 0 26.9 0C40.8 0 49.7 12.4 49.7 37.8C49.7 63.3 40.8 76 26.9 76ZM26.9 68.7C35.2 68.7 40.8 59.4 40.8 37.8C40.8 16.4 35.2 7.4 26.9 7.4C18.5 7.4 12.9 16.4 12.9 37.8C12.9 59.4 18.5 68.7 26.9 68.7ZM68.9688 74.7V69.3C91.9688 49.2 102.569 34.6 102.569 22C102.569 13.6 98.1688 7.5 89.0688 7.5C83.0688 7.5 77.8688 11.2 73.8688 16L68.5688 10.8C74.5688 4.3 80.8688 0 90.1688 0C103.269 0 111.469 8.6 111.469 21.7C111.469 36.3 99.969 51.2 82.7688 67.5C86.5688 67.2 91.0688 66.8 94.7688 66.8H115.069V74.7H68.9688Z" fill="white"/>
</g>
<defs>
<filter id="filter0_d_45_1043" x="0" y="0" width="119.069" height="84" filterUnits="userSpaceOnUse" color-interpolation-filters="sRGB">
<feFlood flood-opacity="0" result="BackgroundImageFix"/>
<feColorMatrix in="SourceAlpha" type="matrix" values="0 0 0 0 0 0 0 0 0 0 0 0 0 0 0 0 0 0 127 0" result="hardAlpha"/>
<feOffset dy="4"/>
<feGaussianBlur stdDeviation="2"/>
<feComposite in2="hardAlpha" operator="out"/>
<feColorMatrix type="matrix" values="0 0 0 0 0 0 0 0 0 0 0 0 0 0 0 0 0 0 0.25 0"/>
<feBlend mode="normal" in2="BackgroundImageFix" result="effect1_dropShadow_45_1043"/>
<feBlend mode="normal" in="SourceGraphic" in2="effect1_dropShadow_45_1043" result="shape"/>
</filter>
</defs>
</svg>
