<svg width="128" height="128" viewBox="0 0 128 128" fill="none" xmlns="http://www.w3.org/2000/svg">
<g filter="url(#filter0_d_51_1748)">
<circle cx="62" cy="60" r="60" fill="white"/>
</g>
<g opacity="0.8">
<path fill-rule="evenodd" clip-rule="evenodd" d="M69.824 60.967C69.824 61.6413 68.8137 61.9785 68.1402 62.3156C67.4667 62.6527 66.7931 62.9899 66.4564 63.327C65.1093 64.0013 64.099 64.6756 62.7519 65.3499C61.7416 66.0242 60.3946 67.0356 59.3843 67.7099C58.7107 68.047 58.374 68.3842 57.7004 69.0585C57.0269 69.3956 56.6901 70.0699 56.0166 70.0699C56.0166 69.3956 57.0269 69.0585 57.3637 68.7213C59.0475 67.7099 60.7313 66.3613 62.4152 65.3499C63.4255 64.6756 64.7725 64.0013 66.1196 63.327C67.1299 62.3156 68.1402 61.6413 69.824 60.967Z" fill="#034166"/>
<path fill-rule="evenodd" clip-rule="evenodd" d="M69.4876 62.6528C69.4876 63.3271 68.8141 63.3271 68.4773 63.6643C66.1199 65.35 63.089 67.3728 60.3949 69.0585C60.0582 69.3957 59.3846 69.7328 59.0479 69.3957C59.3846 69.0585 59.7214 68.7214 60.3949 68.3843C63.089 66.6985 66.4567 64.6757 69.4876 62.6528Z" fill="#034166"/>
<path fill-rule="evenodd" clip-rule="evenodd" d="M70.4976 64.6758C70.8343 64.6758 70.8343 64.6758 70.4976 64.6758C71.8446 66.0244 73.1917 67.0358 74.5387 68.3844C74.8755 68.7215 75.5491 69.0586 75.5491 69.7329C74.8755 69.7329 74.5388 69.0586 74.202 68.7215C72.8549 67.3729 71.5079 66.3615 70.4976 64.6758Z" fill="#034166"/>
<path fill-rule="evenodd" clip-rule="evenodd" d="M68.1406 65.6873C68.1406 66.3615 67.4671 66.3616 67.1303 66.6987C65.1097 68.0473 63.0891 69.733 60.7317 71.0815C59.7214 71.7558 59.0479 72.4301 58.0376 72.4301C58.0376 71.7558 58.7111 71.7558 59.3847 71.4187C62.0788 69.733 65.1097 67.7101 68.1406 65.6873Z" fill="#034166"/>
<path fill-rule="evenodd" clip-rule="evenodd" d="M75.5494 72.0928C74.8759 72.0928 74.5391 71.4185 74.2023 71.0814C72.8553 69.7328 71.1714 68.7214 70.1611 67.3728C70.1611 67.3728 70.1611 67.3728 70.1611 67.0356C70.1611 67.0356 70.1611 67.0356 70.4979 67.0356C71.845 68.3842 73.5288 69.3956 74.8759 70.7442C74.8759 71.0814 75.5494 71.4185 75.5494 72.0928Z" fill="#034166"/>
<path fill-rule="evenodd" clip-rule="evenodd" d="M75.8859 75.1272C75.2123 75.1272 74.5388 74.4529 74.202 73.7786C72.855 72.0929 70.8344 70.7443 69.4873 69.3958H69.8241C71.5079 70.7443 73.1917 72.43 74.8756 73.7786C75.2123 74.1157 75.8859 74.4529 75.8859 75.1272Z" fill="#034166"/>
<path fill-rule="evenodd" clip-rule="evenodd" d="M68.1406 70.7444C69.4877 71.4187 70.498 72.093 71.5083 73.1044C72.1818 73.7787 72.5186 74.1158 73.1921 74.7901C73.8657 75.4644 74.5392 75.8015 74.8759 76.4758C74.2024 76.4758 73.5289 75.8015 73.1921 75.1273C71.5083 73.7787 69.8245 72.093 68.1406 70.7444Z" fill="#034166"/>
<path fill-rule="evenodd" clip-rule="evenodd" d="M68.4772 72.0928C70.161 74.1156 72.1816 75.8013 73.8655 77.4871C74.539 78.1613 75.2125 78.1613 75.5493 79.1728C75.2125 79.5099 74.8757 78.8356 74.539 78.4985C72.8551 77.1499 71.5081 75.8013 70.161 74.4528C69.1507 73.7785 68.1404 72.7671 68.4772 72.0928Z" fill="#034166"/>
<path fill-rule="evenodd" clip-rule="evenodd" d="M39.5153 27.2529C39.852 27.59 39.852 27.9271 39.852 28.6014C41.8726 32.9843 44.23 37.03 46.2506 41.0757C48.608 45.1214 50.2918 49.5043 52.9859 53.55C57.0271 52.2014 60.7315 50.8529 64.7727 49.1671C66.7933 48.4929 68.4772 47.4814 70.4978 46.8071C72.5184 46.1329 74.539 45.4586 76.5596 44.7843C77.2331 44.4471 77.5699 44.11 78.5802 44.11C79.2537 44.11 79.2537 44.7843 79.9272 45.1214C81.6111 48.4929 83.6317 52.5386 85.6523 55.5728C86.3258 56.5843 87.3361 57.5957 88.0096 58.9443C88.6831 60.2928 89.3567 61.6414 90.367 63.3271C90.7037 64.0014 91.0405 65.35 91.714 65.6871C92.0508 65.6871 93.0611 65.0128 93.3979 65.6871C93.7346 68.0471 92.3876 70.07 91.714 72.0929C91.3773 73.1043 91.3773 74.4529 91.0405 75.4643C90.7037 76.4757 90.367 77.4871 90.0302 78.4986C90.0302 78.8357 90.0302 79.51 89.6934 79.8471C89.3567 80.5214 88.0096 80.8586 87.3361 81.1957C86.3258 81.87 85.6522 82.2071 84.9787 82.5443C82.9581 83.5557 81.2743 83.8929 79.9272 84.9043C80.9375 86.59 80.6008 89.2871 79.9272 90.9729C79.2537 92.3214 77.5699 93.3329 75.886 93.67C72.5184 94.0071 69.1507 92.3214 68.8139 88.95C67.4669 88.95 66.4566 89.9614 64.7727 90.6357C63.4257 91.31 62.0786 91.6471 61.0683 92.3214C60.3948 92.6586 59.3845 93.67 58.0374 93.3329C57.3639 92.9957 56.6904 90.9729 56.3536 90.2986C55.6801 89.2871 55.3433 87.9386 54.6698 86.9271C52.3124 82.5443 49.955 78.4986 47.9344 74.1157C46.9241 71.7557 45.5771 69.7329 44.5668 67.71C43.2197 65.6871 42.2094 63.6643 41.1991 61.3043C40.1888 59.2814 39.1785 56.9214 37.8314 54.8986C35.4741 50.5157 33.7902 46.1329 31.7697 41.4129C30.4226 42.0871 29.7491 41.75 30.0858 40.0643C30.7594 37.7043 32.4432 35.0071 33.7902 32.6471C34.8005 30.2871 35.4741 27.9271 38.1682 27.2529C38.505 26.9157 39.1785 26.9157 39.5153 27.2529ZM38.505 29.2757C37.4947 30.2871 36.4844 31.6357 35.8108 32.9843C35.1373 34.3329 34.4638 35.6814 33.4535 37.03C33.1167 37.3671 32.78 37.7043 32.4432 38.0414C31.4329 39.39 32.1064 40.4014 32.78 42.0871C33.7902 44.4471 34.8005 46.47 35.8108 48.83C36.8211 47.8186 37.4947 46.8071 38.1682 45.4586C38.505 44.7843 39.1785 44.11 39.5153 43.7728C39.852 43.0986 40.5256 42.4243 40.8623 41.75C41.1991 41.4129 41.5359 41.75 41.5359 41.4129C41.8726 40.4014 43.2197 39.7271 43.5565 38.7157C43.5565 38.0414 42.8829 37.03 42.5462 36.3557C41.1991 33.9957 39.852 31.2986 38.505 29.2757C38.8417 29.2757 38.8417 29.2757 38.505 29.2757ZM53.6595 81.5329C52.9859 80.1843 51.9756 78.4986 51.3021 77.15C50.2918 75.8014 49.6183 74.1157 48.9447 72.7671C48.2712 71.0814 47.5977 69.0586 46.5874 67.0357C46.2506 66.6986 45.9138 66.0243 45.9138 65.6871C45.9138 65.35 46.5874 65.35 46.5874 64.6757C46.5874 64.3386 46.9241 64.0014 46.9241 63.6643C46.9241 63.3271 47.2609 62.99 47.2609 62.6529C47.5977 61.6414 47.9344 59.9557 48.608 58.9443C48.608 58.6071 49.2815 58.6071 49.2815 58.27C49.6183 57.5957 49.955 56.9214 50.2918 55.91C50.6286 55.2357 51.3021 54.2243 51.3021 53.55C51.3021 53.2129 50.6286 52.5386 50.2918 51.8643C47.9344 47.8186 46.2506 43.7729 43.8932 39.7271C41.1991 43.0986 38.505 46.1329 36.4844 49.8414C37.8314 53.55 40.1888 56.5843 41.8726 60.2929C42.5462 61.9786 43.5565 64.0014 44.5668 65.6871C45.5771 67.3728 46.5874 69.0586 47.5977 70.7443C48.608 72.43 49.2815 74.4529 50.2918 76.1386C51.9756 79.51 53.9962 82.8814 56.0168 86.2529C56.3536 86.9271 56.6904 87.9386 57.3639 88.95C57.7007 89.6243 58.3742 91.31 59.0477 91.31C59.3845 91.31 60.3948 90.6357 60.7315 90.6357C62.7521 89.6243 65.1095 88.6129 67.4669 87.6014C68.1404 87.2643 69.1507 87.2643 69.4875 86.2529C66.1198 87.2643 63.0889 88.95 59.7212 90.2986C56.6904 87.9386 55.3433 84.5671 53.6595 81.5329ZM76.8963 47.8186C76.8963 47.4814 76.8963 46.8071 77.2331 46.47C77.5699 45.7957 77.9066 45.1214 76.8963 45.4586C74.8757 46.47 72.8551 46.8071 70.8345 47.8186C68.8139 48.4929 66.7933 49.5043 64.7727 50.1786C62.0786 51.19 58.711 52.5386 55.6801 53.55C54.6698 53.8871 53.3227 54.2243 52.6492 54.8986C52.3124 55.2357 52.3124 56.2471 51.6389 56.9214C51.3021 57.5957 50.6286 58.27 50.2918 58.6071C49.2815 60.2929 48.9447 62.3157 47.9344 64.0014C49.6183 63.3271 50.9653 62.99 52.6492 61.9786C55.6801 60.63 58.711 59.2814 62.0786 58.27C66.4566 56.9214 70.4978 55.2357 74.539 53.55C74.8757 51.8643 76.2228 49.8414 76.8963 47.8186ZM78.9169 48.1557C79.2537 47.1443 79.9272 46.47 78.9169 45.7957C78.5802 46.1329 78.5802 46.47 78.2434 46.8071C78.2434 47.1443 78.5802 47.1443 78.5802 47.4814C78.2434 49.8414 76.8963 51.8643 76.8963 54.2243C77.5699 52.5386 78.2434 49.8414 78.9169 48.1557ZM79.5905 47.4814C78.5802 49.8414 78.2434 53.2128 76.8963 55.5728C76.5596 55.5728 76.5596 55.5728 76.2228 55.5728C76.5596 56.2471 76.8963 56.9214 77.2331 57.5957C77.9066 56.9214 77.9066 55.5729 77.9066 54.5614C78.2434 53.55 78.5802 52.8757 78.5802 51.8643C78.9169 50.8529 78.9169 49.5043 79.5905 49.1671C79.9272 49.8414 79.2537 50.8529 78.9169 51.5271C78.5802 53.2129 78.2434 55.2357 77.9066 56.9214C77.5699 57.5957 77.2331 58.27 77.9066 58.6071C78.9169 56.2471 79.9272 53.55 80.264 50.8529C80.264 50.5157 79.9272 49.8414 80.6008 49.8414C80.6008 53.2129 79.2537 55.91 78.5802 58.9443C78.5802 59.2814 78.2434 59.2814 78.2434 59.6186C78.5802 60.2929 78.9169 61.6414 79.5905 61.9786C80.264 59.6186 81.2743 56.5843 81.9478 53.8871C82.2846 53.2128 82.9581 52.2014 81.9478 51.8643C81.2743 53.8871 80.6008 56.2471 79.9272 58.27C79.5905 58.9443 79.5905 59.9557 79.2537 60.2929C78.9169 60.2929 78.9169 60.2929 78.9169 59.9557C79.2537 59.2814 79.5905 58.6071 79.5905 57.9329C79.9272 56.9214 80.264 55.91 80.264 54.5614C80.6008 53.2129 81.2743 51.8643 81.6111 50.8529C81.6111 49.8414 80.9375 49.1671 80.6008 48.4929C80.6008 48.4929 80.264 47.8186 79.5905 47.4814ZM76.2228 54.8986C76.5596 53.55 76.8963 52.2014 76.8963 51.19C76.8963 51.19 76.8963 51.19 76.5596 51.19C76.2228 52.2014 75.2125 53.8871 76.2228 54.8986ZM82.6214 53.2129C82.2846 56.5843 80.264 58.9443 80.264 62.3157C80.264 62.6528 79.9272 62.6529 79.9272 62.6529C79.9272 62.99 79.9272 63.3271 80.264 63.3271C80.6008 62.6529 80.9375 61.9786 80.9375 61.3043C81.6111 59.2814 81.9478 56.9214 82.6214 54.8986C82.9581 54.5614 83.6317 53.8871 82.6214 53.2129C82.9581 53.2129 82.9581 53.2129 82.6214 53.2129ZM76.8963 54.8986C76.8963 54.8986 77.2331 54.2243 76.8963 54.2243C76.5596 54.5614 76.5596 54.8986 76.8963 54.8986ZM83.6317 54.2243C82.6214 57.2586 81.9478 60.63 80.9375 63.6643C80.6008 63.6643 80.6008 63.3271 80.264 63.6643C80.6008 64.3386 80.9375 66.0243 81.9478 66.0243C81.9478 64.6757 82.6214 64.0014 82.6214 62.6529C83.2949 60.9671 83.6317 58.9443 84.3052 56.9214C84.642 56.2471 84.9787 55.5729 84.3052 55.2357C83.9684 56.5843 83.6317 57.2586 83.2949 58.27C82.9581 58.9443 82.9581 59.9557 82.9581 60.63C82.6214 61.6414 82.2846 62.6529 81.9478 63.6643C81.9478 64.0014 81.9478 64.6757 81.2743 65.0129C80.6008 64.3386 81.6111 63.6643 81.6111 62.99C82.2846 61.3043 82.2846 59.2814 82.9581 57.5957C83.2949 56.9214 84.3052 55.91 83.6317 54.2243ZM69.1507 57.2586C68.4772 57.5957 68.1404 57.9329 67.4669 57.9329C66.4566 58.27 65.1095 58.6071 64.0992 58.9443C62.4154 59.6186 60.7315 60.2929 59.0477 60.9671C57.7007 61.6414 56.3536 61.9786 55.0065 62.3157C52.3124 63.3271 49.6183 64.3386 47.5977 66.0243C49.6183 72.43 53.3227 77.8243 56.0168 83.2186C56.3536 84.23 56.6904 84.9043 57.3639 85.9157C58.0374 86.9271 58.3742 87.9386 59.7212 88.6129C60.7315 88.2757 62.0786 87.9386 62.7521 87.2643C62.0786 85.5786 61.7418 83.8929 61.0683 82.5443C60.3948 82.5443 59.7212 83.2186 59.0477 82.5443C59.0477 81.5329 59.3845 80.5214 59.7212 79.1728C59.7212 78.1614 59.7213 77.15 61.0683 77.15C62.0786 77.15 62.7521 78.4986 63.7624 78.8357C64.0992 79.1729 64.436 78.8357 64.7727 79.1728C65.1095 79.1728 65.1095 79.8471 65.1095 80.1843C64.7727 80.8586 64.0992 80.1843 63.7624 80.5214C64.436 82.5443 65.4463 84.23 66.1198 85.9157C67.4669 85.5786 69.1507 85.2414 69.8242 84.23C69.4875 83.2186 68.4772 81.5329 68.1404 80.1843C66.1198 80.5214 66.7933 79.1729 66.7933 77.8243C66.7933 76.4757 66.4566 75.1271 67.1301 75.1271C67.8036 75.1271 68.1404 75.8014 68.4772 76.1386C69.1507 76.4757 70.8345 77.15 70.8345 77.8243C70.8345 78.4986 70.161 78.8357 70.161 79.1728C70.8345 79.8471 71.1713 81.1957 71.8448 82.2071C72.8551 81.87 74.8757 81.87 76.2228 81.87C78.5802 80.5214 81.2743 79.51 83.2949 78.4986C83.9684 78.1614 84.642 77.8243 85.3155 77.4871C83.9684 75.4643 83.2949 72.43 82.2846 70.07C81.6111 68.7214 80.6008 67.3729 79.9272 66.0243C79.2537 64.6757 78.5802 62.99 77.9066 61.6414C76.8963 59.2814 75.886 57.5957 74.8757 55.5728C72.8551 55.91 70.8345 56.5843 69.1507 57.2586ZM82.9581 64.6757C83.2949 63.6643 83.6317 62.99 83.9684 61.9786C84.3052 61.3043 84.642 60.63 84.9787 59.6186C85.3155 58.6071 86.3258 57.2586 85.3155 56.5843C84.3052 59.9557 82.9581 63.3271 82.2846 67.0357C82.6214 66.6986 82.6214 65.6871 82.9581 64.6757ZM84.3052 62.99C83.9684 63.6643 83.6317 64.6757 83.6317 65.35C83.2949 66.6986 82.2846 68.0471 83.2949 69.0586C83.9684 66.6986 84.9787 63.6643 85.989 61.3043C86.3258 60.2929 87.6728 58.6071 86.3258 58.27C85.3155 59.2814 84.642 60.9671 84.3052 62.99ZM84.9787 64.6757C84.642 66.0243 83.9684 67.3729 83.6317 68.7214C83.6317 69.0586 83.2949 69.7329 83.6317 70.07C84.3052 67.71 85.3155 65.0128 86.3258 62.3157C86.6625 61.3043 87.6728 59.9557 86.9993 59.2814C86.3258 60.9671 85.6522 62.6529 84.9787 64.6757ZM84.6419 68.3843C84.3052 69.7329 83.2949 71.0814 84.3052 72.0929C84.642 70.4071 85.3155 68.7214 85.989 67.0357C86.3258 66.3614 86.3258 65.35 86.9993 64.3386C87.3361 63.3271 88.6831 61.6414 87.3361 60.9671C86.6626 62.6529 85.6522 65.6871 84.6419 68.3843ZM88.3464 62.3157C87.6728 64.0014 86.9993 66.0243 86.3258 68.0471C85.989 69.3957 85.3155 70.7443 84.9787 71.7557C84.642 72.43 84.642 73.4414 85.3155 73.7786C86.3258 70.07 87.6729 66.6986 89.3567 63.3271C88.6831 62.99 88.6831 62.3157 88.3464 62.3157ZM85.989 72.7671C85.6523 73.4414 85.3155 73.7786 85.6523 74.4529C85.6523 73.7786 85.989 73.4414 85.989 72.7671C86.9993 71.4186 87.6728 69.7329 88.0096 67.71C88.6831 67.0357 88.6831 65.6871 89.3567 65.0129C89.6934 65.6871 89.0199 66.0243 89.0199 66.3614C90.0302 67.0357 88.6831 68.0471 89.0199 69.0586C89.3567 68.0471 90.0302 67.0357 90.367 65.6871C89.6934 65.35 89.6934 64.3386 89.3567 63.6643C88.0096 66.6986 86.9993 69.7329 85.989 72.7671ZM89.6934 71.4186C89.3567 72.43 89.0199 73.1043 88.6831 74.1157C88.0096 75.4643 87.6728 76.4757 87.3361 77.8243C84.3052 79.51 80.9375 80.8586 77.9066 82.2071C77.9066 82.5443 78.2434 82.5443 78.2434 82.8814C81.6111 81.5329 85.3155 80.1843 88.3464 78.4986C89.0199 76.4757 89.6934 74.4528 90.0302 72.43C90.7037 70.4071 91.3773 68.3843 91.714 66.0243C90.7037 67.71 90.367 69.3957 89.6934 71.4186ZM86.3258 74.79C86.6625 74.4529 86.9993 73.7786 86.9993 73.4414C87.6728 71.4186 88.6831 69.0586 89.0199 66.6986C88.0096 69.0586 86.6625 71.7557 86.3258 74.79ZM88.3464 70.7443C88.3464 71.7557 87.3361 72.43 87.6729 73.4414C88.3464 72.0929 89.0199 70.7443 89.3567 69.0586C88.6831 69.7328 88.6831 70.4071 88.3464 70.7443ZM86.9993 74.1157C87.3361 74.1157 87.3361 73.7786 86.9993 73.7786C87.3361 74.1157 86.9993 74.1157 86.9993 74.1157ZM86.9993 74.79C86.9993 74.79 87.3361 74.4529 86.9993 74.4529C86.9993 74.79 86.6625 74.79 86.9993 74.79ZM71.8448 87.2643C71.8448 87.9386 71.5081 88.95 71.8448 89.2871C72.1816 90.2986 74.2022 90.6357 75.5493 90.2986C76.5596 89.9614 77.9066 88.2757 77.5699 87.2643C77.5699 86.2529 76.2228 84.9043 75.2125 84.9043C74.539 84.9043 73.5287 84.9043 73.1919 84.9043C71.8448 85.5786 72.1816 86.2529 71.8448 87.2643Z" fill="#034166"/>
</g>
<defs>
<filter id="filter0_d_51_1748" x="0" y="0" width="128" height="128" filterUnits="userSpaceOnUse" color-interpolation-filters="sRGB">
<feFlood flood-opacity="0" result="BackgroundImageFix"/>
<feColorMatrix in="SourceAlpha" type="matrix" values="0 0 0 0 0 0 0 0 0 0 0 0 0 0 0 0 0 0 127 0" result="hardAlpha"/>
<feOffset dx="2" dy="4"/>
<feGaussianBlur stdDeviation="2"/>
<feComposite in2="hardAlpha" operator="out"/>
<feColorMatrix type="matrix" values="0 0 0 0 0 0 0 0 0 0 0 0 0 0 0 0 0 0 0.25 0"/>
<feBlend mode="normal" in2="BackgroundImageFix" result="effect1_dropShadow_51_1748"/>
<feBlend mode="normal" in="SourceGraphic" in2="effect1_dropShadow_51_1748" result="shape"/>
</filter>
</defs>
</svg>
