<svg width="121" height="84" viewBox="0 0 121 84" fill="none" xmlns="http://www.w3.org/2000/svg">
<g filter="url(#filter0_d_45_1014)">
<path d="M26.9 76C12.9 76 4 63.3 4 37.8C4 12.3 12.9 0 26.9 0C40.8 0 49.7 12.4 49.7 37.8C49.7 63.3 40.8 76 26.9 76ZM26.9 68.7C35.2 68.7 40.8 59.4 40.8 37.8C40.8 16.4 35.2 7.4 26.9 7.4C18.5 7.4 12.9 16.4 12.9 37.8C12.9 59.4 18.5 68.7 26.9 68.7ZM76.0688 47.2H98.4688V24.7C98.4688 21.1 98.8688 15.2 99.0688 11.4H98.6688C96.8688 15 94.8688 18.6 92.7688 22.2L76.0688 47.2ZM116.869 47.2V54.5H107.169V74.7H98.4688V54.5H66.5688V48.5L97.0688 1.4H107.169V47.2H116.869Z" fill="white"/>
</g>
<defs>
<filter id="filter0_d_45_1014" x="0" y="0" width="120.869" height="84" filterUnits="userSpaceOnUse" color-interpolation-filters="sRGB">
<feFlood flood-opacity="0" result="BackgroundImageFix"/>
<feColorMatrix in="SourceAlpha" type="matrix" values="0 0 0 0 0 0 0 0 0 0 0 0 0 0 0 0 0 0 127 0" result="hardAlpha"/>
<feOffset dy="4"/>
<feGaussianBlur stdDeviation="2"/>
<feComposite in2="hardAlpha" operator="out"/>
<feColorMatrix type="matrix" values="0 0 0 0 0 0 0 0 0 0 0 0 0 0 0 0 0 0 0.25 0"/>
<feBlend mode="normal" in2="BackgroundImageFix" result="effect1_dropShadow_45_1014"/>
<feBlend mode="normal" in="SourceGraphic" in2="effect1_dropShadow_45_1014" result="shape"/>
</filter>
</defs>
</svg>
