<svg width="119" height="84" viewBox="0 0 119 84" fill="none" xmlns="http://www.w3.org/2000/svg">
<g filter="url(#filter0_d_45_1017)">
<path d="M26.9 76C12.9 76 4 63.3 4 37.8C4 12.3 12.9 0 26.9 0C40.8 0 49.7 12.4 49.7 37.8C49.7 63.3 40.8 76 26.9 76ZM26.9 68.7C35.2 68.7 40.8 59.4 40.8 37.8C40.8 16.4 35.2 7.4 26.9 7.4C18.5 7.4 12.9 16.4 12.9 37.8C12.9 59.4 18.5 68.7 26.9 68.7ZM90.6688 76C79.2687 76 72.2688 71.2 67.3688 66.3L71.8688 60.3C76.0688 64.5 81.3688 68.4 89.8688 68.4C98.4688 68.4 105.469 61.8 105.469 51.1C105.469 40.6 99.469 34.4 90.2687 34.4C85.3688 34.4 82.2688 35.9 78.0688 38.7L73.1688 35.7L75.4688 1.4H111.169V9.2H83.4688L81.6688 30.4C84.8688 28.6 88.1688 27.5 92.5688 27.5C104.769 27.5 114.669 34.7 114.669 50.8C114.669 66.9 103.069 76 90.6688 76Z" fill="white"/>
</g>
<defs>
<filter id="filter0_d_45_1017" x="0" y="0" width="118.669" height="84" filterUnits="userSpaceOnUse" color-interpolation-filters="sRGB">
<feFlood flood-opacity="0" result="BackgroundImageFix"/>
<feColorMatrix in="SourceAlpha" type="matrix" values="0 0 0 0 0 0 0 0 0 0 0 0 0 0 0 0 0 0 127 0" result="hardAlpha"/>
<feOffset dy="4"/>
<feGaussianBlur stdDeviation="2"/>
<feComposite in2="hardAlpha" operator="out"/>
<feColorMatrix type="matrix" values="0 0 0 0 0 0 0 0 0 0 0 0 0 0 0 0 0 0 0.25 0"/>
<feBlend mode="normal" in2="BackgroundImageFix" result="effect1_dropShadow_45_1017"/>
<feBlend mode="normal" in="SourceGraphic" in2="effect1_dropShadow_45_1017" result="shape"/>
</filter>
</defs>
</svg>
