<svg width="119" height="84" viewBox="0 0 119 84" fill="none" xmlns="http://www.w3.org/2000/svg">
<g filter="url(#filter0_d_45_1053)">
<path d="M26.9 76C12.9 76 4 63.3 4 37.8C4 12.3 12.9 0 26.9 0C40.8 0 49.7 12.4 49.7 37.8C49.7 63.3 40.8 76 26.9 76ZM26.9 68.7C35.2 68.7 40.8 59.4 40.8 37.8C40.8 16.4 35.2 7.4 26.9 7.4C18.5 7.4 12.9 16.4 12.9 37.8C12.9 59.4 18.5 68.7 26.9 68.7ZM90.9687 76C79.4688 76 72.2688 71.2 67.4688 66L72.0688 60C76.3688 64.5 81.9688 68.4 90.2687 68.4C98.9688 68.4 105.169 63.2 105.169 54.8C105.169 46 99.269 40.1 82.3688 40.1V33.1C97.4688 33.1 102.669 27 102.669 19.1C102.669 12 97.8688 7.5 90.2687 7.3C84.3688 7.5 79.1688 10.5 75.0688 14.6L70.1688 8.8C75.6688 3.7 82.1688 0 90.6688 0C102.969 0 111.969 6.6 111.969 18.4C111.969 27.3 106.669 33.2 98.8688 36.1V36.5C107.569 38.5 114.469 45.1 114.469 55.1C114.469 68.2 103.969 76 90.9687 76Z" fill="white"/>
</g>
<defs>
<filter id="filter0_d_45_1053" x="0" y="0" width="118.469" height="84" filterUnits="userSpaceOnUse" color-interpolation-filters="sRGB">
<feFlood flood-opacity="0" result="BackgroundImageFix"/>
<feColorMatrix in="SourceAlpha" type="matrix" values="0 0 0 0 0 0 0 0 0 0 0 0 0 0 0 0 0 0 127 0" result="hardAlpha"/>
<feOffset dy="4"/>
<feGaussianBlur stdDeviation="2"/>
<feComposite in2="hardAlpha" operator="out"/>
<feColorMatrix type="matrix" values="0 0 0 0 0 0 0 0 0 0 0 0 0 0 0 0 0 0 0.25 0"/>
<feBlend mode="normal" in2="BackgroundImageFix" result="effect1_dropShadow_45_1053"/>
<feBlend mode="normal" in="SourceGraphic" in2="effect1_dropShadow_45_1053" result="shape"/>
</filter>
</defs>
</svg>
