<svg width="128" height="128" viewBox="0 0 128 128" fill="none" xmlns="http://www.w3.org/2000/svg">
<g filter="url(#filter0_d_51_1545)">
<circle cx="62" cy="60" r="60" fill="white"/>
</g>
<g opacity="0.8">
<path fill-rule="evenodd" clip-rule="evenodd" d="M54.089 36.9777C53.366 36.6158 52.643 36.2539 51.92 35.892C51.5585 35.5301 51.197 35.5301 50.8355 35.1682C50.474 35.1682 50.1125 34.8062 49.751 34.4443C50.8355 34.8062 51.92 35.5301 53.0045 36.2539C53.366 36.2539 54.089 36.6158 54.089 36.9777Z" fill="#034166"/>
<path fill-rule="evenodd" clip-rule="evenodd" d="M52.6431 36.9776C51.9201 36.9776 50.8356 36.2538 50.4741 35.8918C51.1971 36.2538 51.9201 36.6157 52.6431 36.9776Z" fill="#034166"/>
<path fill-rule="evenodd" clip-rule="evenodd" d="M62.0425 38.4251C61.3195 39.1489 60.235 39.1489 59.512 39.5109C57.7044 40.2347 55.8969 40.9585 54.4509 41.6823C53.7279 42.0442 53.0049 42.768 51.9204 42.768C52.2819 42.0442 53.0049 42.0442 53.7279 41.6823C55.8969 40.5966 58.0659 39.5109 60.235 38.787C60.5965 38.4251 61.3195 38.4251 62.0425 38.4251C61.681 38.4251 61.681 38.0632 62.0425 38.4251Z" fill="#034166"/>
<path fill-rule="evenodd" clip-rule="evenodd" d="M63.8496 39.1489C63.4881 39.5108 63.1266 39.5108 62.7651 39.5108C60.9576 40.2346 58.7885 40.9585 56.981 42.0442C56.258 42.4061 55.535 42.768 54.812 42.768C55.535 42.0442 56.258 42.0442 56.981 41.6823C58.427 40.9585 59.873 40.2346 61.3191 39.8727C62.0421 39.5108 62.7651 39.5108 63.8496 39.1489Z" fill="#034166"/>
<path fill-rule="evenodd" clip-rule="evenodd" d="M65.296 39.8729C64.9345 40.2348 64.2115 40.2348 63.85 40.5967C62.0425 41.3206 60.5965 42.0444 58.789 42.7682C58.4275 43.1301 57.7045 43.492 56.9814 43.1301C57.3429 42.4063 58.066 42.4063 58.789 42.0444C59.8735 41.6825 61.3195 40.9586 62.7655 40.5967C63.85 40.2348 64.573 39.8729 65.296 39.8729Z" fill="#034166"/>
<path fill-rule="evenodd" clip-rule="evenodd" d="M84.8169 42.4061C84.4554 42.768 84.0939 43.1299 83.7324 43.1299C83.3709 42.768 84.4554 42.4061 84.8169 42.4061Z" fill="#034166"/>
<path fill-rule="evenodd" clip-rule="evenodd" d="M53.3664 43.13C53.3664 43.4919 52.6434 43.8538 52.2819 43.8538C50.1129 44.5776 48.3053 45.6633 46.1363 46.749C45.0518 47.4728 43.9673 47.8348 43.2443 48.5586C42.8828 48.9205 42.1598 48.9205 41.7983 49.2824C41.0753 49.6443 40.7138 50.0062 39.9908 50.3681C39.2678 50.73 38.5448 51.4538 37.8218 51.4538C37.8218 51.0919 38.5448 50.73 38.9063 50.73C39.2678 50.3681 39.6293 50.3681 39.9908 50.0062C40.7138 49.6443 41.7983 49.2824 42.5213 48.9205L42.8828 48.5586C43.2443 48.1967 43.6058 48.1967 43.9673 47.8347C46.8593 46.0252 50.1129 44.2157 53.3664 43.13Z" fill="#034166"/>
<path fill-rule="evenodd" clip-rule="evenodd" d="M71.4412 44.5776C68.1877 45.3014 65.2956 46.3871 62.4036 47.4728C62.0421 47.4728 62.0421 47.4728 62.0421 47.4728C60.9576 47.8347 59.8731 48.5585 58.7886 48.5585C58.7886 48.1966 59.1501 48.1966 59.5116 48.1966C60.2346 47.8347 60.9576 47.4728 62.0421 47.1109C62.4036 47.1109 62.0421 47.4728 62.4036 47.1109C64.5726 46.3871 67.4646 45.3014 69.9952 44.5776C70.3567 44.5776 71.0797 43.8537 71.4412 44.5776Z" fill="#034166"/>
<path fill-rule="evenodd" clip-rule="evenodd" d="M44.3285 45.3014C44.3285 45.6633 43.6055 45.6633 43.6055 46.0252C41.798 47.1109 39.629 48.1966 37.8215 49.2824H37.46C37.0985 49.6443 36.737 50.0062 36.3755 50.0062C36.3755 49.6443 36.737 49.2824 37.0985 49.2824C38.183 48.5586 39.2675 48.1966 40.352 47.4728C41.4365 47.1109 42.8825 46.0252 44.3285 45.3014Z" fill="#034166"/>
<path fill-rule="evenodd" clip-rule="evenodd" d="M37.0985 48.5586C36.737 48.9205 36.3755 49.2824 36.014 49.2824C36.014 49.6443 35.6525 50.0062 35.291 49.6443C35.291 49.2824 36.014 48.9205 37.0985 48.5586Z" fill="#034166"/>
<path fill-rule="evenodd" clip-rule="evenodd" d="M94.939 54.711C94.5775 54.711 94.5774 54.3491 94.2159 53.9872C93.4929 53.2634 92.7699 52.5396 92.0469 51.4539C91.3239 50.7301 90.6009 49.6443 89.8779 48.9205C90.6009 49.2824 90.6009 50.0063 91.3239 50.3682C92.0469 51.4539 92.7699 52.1777 93.8545 53.2634C94.5775 53.6253 95.3005 54.3491 94.939 54.711Z" fill="#034166"/>
<path fill-rule="evenodd" clip-rule="evenodd" d="M88.7935 49.6443C89.5165 50.0062 89.878 50.73 90.601 51.4538C90.9625 52.1776 91.6855 52.5395 92.047 53.2634C93.1315 54.3491 94.216 55.4348 94.939 56.8824C94.5775 56.8824 94.216 56.5205 94.216 56.1586C92.4085 53.9872 90.601 52.1776 88.7935 49.6443C88.7935 50.0062 88.7935 50.0062 88.7935 49.6443Z" fill="#034166"/>
<path fill-rule="evenodd" clip-rule="evenodd" d="M88.0703 50.73C88.7933 51.8157 89.8778 52.9014 90.6008 53.6252C91.3238 54.711 92.4083 55.4348 92.7699 56.8824C92.0468 56.5205 92.0469 55.7967 91.6854 55.4348C90.6009 53.9871 88.7933 52.5395 88.0703 50.73Z" fill="#034166"/>
<path fill-rule="evenodd" clip-rule="evenodd" d="M86.9858 51.8157C87.7088 52.1776 88.0703 53.2633 88.7934 53.9871C89.1549 54.7109 90.2394 55.0728 90.2394 56.1586C89.8779 56.1586 89.5164 55.7966 89.5164 55.4347C88.4319 53.9871 87.7088 52.9014 86.9858 51.8157Z" fill="#034166"/>
<path fill-rule="evenodd" clip-rule="evenodd" d="M85.9014 52.1777C86.6244 52.9015 86.9859 53.2635 87.7089 53.9873C88.0704 54.7111 88.7934 55.073 88.7934 56.1587C88.0704 55.7968 87.7089 55.073 87.3474 54.3492C86.9859 53.6254 85.9014 52.9015 85.9014 52.1777Z" fill="#034166"/>
<path fill-rule="evenodd" clip-rule="evenodd" d="M48.6666 60.5016C48.6666 60.8635 47.9436 61.2254 47.5821 61.5873C46.8591 62.3111 46.1361 63.0349 45.4131 63.7587C45.0516 64.1207 44.6901 64.4826 44.3286 64.8445C44.3286 64.4826 44.6901 64.1207 45.0516 63.7587C46.1361 62.673 47.2206 61.5873 48.6666 60.5016Z" fill="#034166"/>
<path fill-rule="evenodd" clip-rule="evenodd" d="M51.1971 61.2253C51.1971 61.5872 50.8356 61.9492 50.474 62.3111C50.1125 62.673 49.751 63.0349 49.3895 63.0349C48.6665 63.7587 48.305 64.4825 47.582 64.8444C47.582 64.4825 47.9435 64.1206 48.305 63.7587C49.028 63.0349 49.751 62.3111 51.1971 61.2253C50.8356 61.2253 50.8356 61.2253 51.1971 61.2253Z" fill="#034166"/>
<path fill-rule="evenodd" clip-rule="evenodd" d="M54.8122 61.5872C54.4507 62.311 53.7277 62.6729 53.3662 63.0348C52.2817 63.7586 51.5587 64.8443 50.8356 65.93C50.4741 66.2919 50.1127 67.0158 49.3896 67.3777C49.3896 66.6539 50.1127 66.2919 50.4742 65.93C51.1972 64.8443 52.2817 64.1205 53.0047 63.3967C53.7277 62.311 54.0892 61.9491 54.8122 61.5872Z" fill="#034166"/>
<path fill-rule="evenodd" clip-rule="evenodd" d="M51.9204 62.673C51.5588 63.3968 50.8358 63.7587 50.4743 64.4825C50.1128 65.2063 49.3898 65.9301 49.0283 66.292C49.0283 65.9301 49.3898 65.5682 49.7513 65.2063C49.7513 64.4825 50.8358 63.3968 51.9204 62.673C51.5588 62.673 51.5588 62.673 51.9204 62.673Z" fill="#034166"/>
<path fill-rule="evenodd" clip-rule="evenodd" d="M43.9661 63.0348C43.9661 63.3955 43.6057 63.0348 43.9661 63.0348C43.6057 63.0348 43.6057 63.0348 43.9661 63.0348Z" fill="#034166"/>
<path fill-rule="evenodd" clip-rule="evenodd" d="M47.2206 63.397C47.2206 63.7589 46.8591 63.7589 46.4976 64.1208C46.4976 63.7589 46.859 63.397 47.2206 63.397Z" fill="#034166"/>
<path fill-rule="evenodd" clip-rule="evenodd" d="M83.0093 66.6539C83.7323 66.6539 84.0938 66.6539 84.4553 67.0158C84.0938 67.3777 83.3708 67.0158 83.0093 66.6539Z" fill="#034166"/>
<path fill-rule="evenodd" clip-rule="evenodd" d="M85.1786 68.4634C84.0941 68.4634 83.0096 68.1015 82.2866 67.3777C82.6481 67.3777 83.3711 67.7396 84.0941 68.1015C84.4556 67.7396 85.1786 67.7396 85.1786 68.4634Z" fill="#034166"/>
<path fill-rule="evenodd" clip-rule="evenodd" d="M85.1786 72.0826C84.8171 72.4445 84.4556 72.0826 84.4556 72.0826C82.6481 71.3588 80.4791 70.6349 78.3101 69.9111C80.8406 70.273 83.0096 71.3588 85.1786 72.0826Z" fill="#034166"/>
<path fill-rule="evenodd" clip-rule="evenodd" d="M79.0327 71.3586C80.8402 71.7205 83.0092 72.4444 84.8167 73.1682C85.5398 73.5301 85.9013 73.5301 86.6243 73.892C86.2628 74.2539 85.9012 73.892 85.5397 73.892C84.0937 73.5301 82.2862 72.8063 80.8402 72.4444C80.1172 72.0825 79.3942 71.7205 79.0327 71.3586Z" fill="#034166"/>
<path fill-rule="evenodd" clip-rule="evenodd" d="M79.7558 73.1684C79.3943 73.5303 79.0328 73.1684 78.6713 73.1684C77.5868 72.8065 76.5023 72.4445 75.7793 72.0826C77.2253 72.0826 78.6713 72.8065 79.7558 73.1684Z" fill="#034166"/>
<path fill-rule="evenodd" clip-rule="evenodd" d="M44.3284 74.2539C43.9669 74.6158 43.6054 74.6158 43.2439 74.2539C42.8824 74.9778 43.9669 78.2349 43.2439 78.9587C42.8824 79.3206 42.1594 78.5968 42.1594 78.5968C41.4364 77.873 42.1594 75.3397 41.7979 74.2539C41.4364 74.2539 40.7134 74.6158 40.7134 74.2539C40.7134 73.892 41.0749 73.892 41.4364 73.5301C41.7979 73.1682 42.1594 72.4444 42.5209 72.4444C43.2439 72.0825 43.6054 72.8063 43.9669 73.5301C43.9669 73.5301 44.3284 73.892 44.3284 74.2539Z" fill="#034166"/>
<path fill-rule="evenodd" clip-rule="evenodd" d="M81.2021 76.0636C80.1176 76.0636 79.033 75.3397 77.9485 74.9778C76.864 74.6159 75.7795 74.254 74.695 73.5302C73.972 73.5302 73.6105 73.1683 73.249 72.8064C73.6105 72.8064 73.972 73.1683 74.3335 72.8064C76.141 73.8921 78.3101 74.6159 80.4791 75.7017C80.8406 75.7017 81.2021 75.7016 81.2021 76.0636Z" fill="#034166"/>
<path fill-rule="evenodd" clip-rule="evenodd" d="M49.0282 76.0635C49.0282 77.5111 49.0282 78.9587 49.0282 80.7682C48.6667 81.1302 48.3052 81.4921 47.9437 81.1302C47.2207 80.7683 47.5822 79.3206 47.2207 77.873C47.2207 77.1492 47.2207 76.0635 47.2207 75.7016C46.8592 75.3397 46.1362 75.7016 46.1362 74.9777C46.1362 74.6158 46.4977 74.6158 46.8592 74.2539C47.2207 73.892 47.2207 73.5301 47.5822 73.1682C47.9437 73.1682 48.6668 73.892 48.6668 74.2539C49.0283 74.6158 49.7513 74.9777 49.3898 75.7016C49.7513 76.0635 49.3897 76.0635 49.0282 76.0635Z" fill="#034166"/>
<path fill-rule="evenodd" clip-rule="evenodd" d="M85.9015 76.7874C85.54 77.1493 84.817 76.7874 84.4555 76.7874C83.371 76.4255 82.648 76.0636 81.5635 75.7017C82.2865 75.7017 83.0095 76.0636 83.7325 76.0636C84.817 76.4255 85.54 76.4255 85.9015 76.7874Z" fill="#034166"/>
<path fill-rule="evenodd" clip-rule="evenodd" d="M75.7793 78.5968C74.6948 78.5968 73.9718 78.2349 73.2488 77.8729C72.5258 77.511 71.4413 77.1491 70.7183 76.7872C71.8028 77.1491 73.2488 77.873 74.3333 78.2349C75.0563 78.2349 75.4178 78.2349 75.7793 78.5968Z" fill="#034166"/>
<path fill-rule="evenodd" clip-rule="evenodd" d="M73.6101 80.7682C72.5256 80.4063 71.4411 80.0444 70.3566 79.3206C69.9951 79.3206 69.9951 79.3206 69.9951 79.3206C68.5491 78.2349 66.3801 77.873 64.9341 76.7872C65.2956 76.7872 66.0186 77.1491 66.3801 77.1491C67.4646 77.511 68.9106 78.2349 69.9951 78.5968C70.7181 78.5968 71.4411 78.9587 72.1641 79.3206C72.5256 80.0444 73.2486 80.4063 73.6101 80.7682Z" fill="#034166"/>
<path fill-rule="evenodd" clip-rule="evenodd" d="M80.4788 80.0444C79.7558 80.0444 78.6713 79.6825 78.3098 79.3206C77.5868 78.9587 76.5023 78.5967 75.7793 78.2348C75.7793 78.2348 75.7793 78.2348 75.7793 77.8729C77.5868 78.9586 79.3943 79.3206 80.4788 80.0444Z" fill="#034166"/>
<path fill-rule="evenodd" clip-rule="evenodd" d="M69.2721 80.4062C68.5491 80.4062 68.1876 80.0443 67.4646 79.6824C66.7416 79.3205 65.6571 79.3205 64.9341 78.5967C65.6571 78.5967 66.3801 78.9586 67.1031 79.3205C67.4646 79.3205 67.8261 79.6824 68.1876 79.6824C68.5491 79.6824 69.2721 80.0443 69.2721 80.4062Z" fill="#034166"/>
<path fill-rule="evenodd" clip-rule="evenodd" d="M71.4414 78.9587C72.1644 79.3206 73.2489 79.6826 73.9719 80.0445C74.3334 80.0445 75.0564 80.0445 75.0564 80.4064C75.0564 80.4064 74.6949 80.4064 74.3334 80.4064C73.2489 80.0445 72.1644 79.6826 71.4414 78.9587Z" fill="#034166"/>
<path fill-rule="evenodd" clip-rule="evenodd" d="M69.9951 81.4922C69.6336 81.4922 69.2721 81.4922 68.5491 81.1302C67.4646 80.7683 66.0186 80.0445 64.9341 79.6826C66.3801 80.4064 67.4646 80.7683 69.2721 81.4922C69.6336 81.4922 70.3566 81.1302 69.9951 81.4922Z" fill="#034166"/>
<path fill-rule="evenodd" clip-rule="evenodd" d="M80.4788 81.4921C79.0328 81.4921 77.9483 80.7683 76.8638 80.4064C77.9483 80.4064 78.6713 80.7683 79.3943 81.1302C79.7558 81.1302 80.4788 81.1302 80.4788 81.4921Z" fill="#034166"/>
<path fill-rule="evenodd" clip-rule="evenodd" d="M69.9955 80.4064C70.357 80.4064 70.7185 80.4064 70.7185 80.7683C70.357 81.1302 69.634 80.7683 69.9955 80.4064Z" fill="#034166"/>
<path fill-rule="evenodd" clip-rule="evenodd" d="M79.7556 81.854C79.0326 81.854 78.3096 81.4921 77.5866 81.4921C77.2251 81.1302 76.5021 81.1302 76.1406 80.7683C76.8636 80.7683 77.2251 81.1302 77.9481 81.4921C78.3096 81.1302 79.0326 81.4921 79.7556 81.854Z" fill="#034166"/>
<path fill-rule="evenodd" clip-rule="evenodd" d="M74.3331 82.5778C73.2486 82.5778 72.1641 81.854 71.0796 81.4921C71.8026 81.4921 72.1641 81.854 72.8871 82.2159C73.2486 81.854 73.9716 81.854 74.3331 82.5778Z" fill="#034166"/>
<path fill-rule="evenodd" clip-rule="evenodd" d="M78.3098 82.216C77.2253 82.216 76.5023 81.4922 75.7793 81.1302C76.5023 81.4922 77.5868 81.4922 78.3098 82.216Z" fill="#034166"/>
<path fill-rule="evenodd" clip-rule="evenodd" d="M76.1408 82.2159C76.1408 82.9397 76.8639 82.5778 76.8639 82.9397C76.1409 82.9397 75.7793 82.5778 75.4178 82.2159C75.0563 82.2159 74.6948 82.2159 74.6948 81.854C74.6948 81.854 74.6948 81.854 74.6948 81.4921C75.0563 81.854 75.7793 81.854 76.1408 82.2159Z" fill="#034166"/>
<path fill-rule="evenodd" clip-rule="evenodd" d="M73.6105 83.3017C72.526 83.3017 71.4414 82.5778 70.3569 82.2159C70.7184 82.2159 71.0799 82.5778 71.4415 82.5778C72.1645 82.5778 73.249 82.5778 73.6105 83.3017Z" fill="#034166"/>
<path fill-rule="evenodd" clip-rule="evenodd" d="M73.2488 84.0255C72.8873 84.3874 72.5258 84.0255 71.8028 84.0255C71.4413 84.0255 70.7183 84.0255 70.7183 83.6636C71.8028 83.3017 72.5258 83.6636 73.2488 84.0255Z" fill="#034166"/>
<path fill-rule="evenodd" clip-rule="evenodd" d="M70.7183 84.3872C71.4413 84.3872 71.8028 84.7491 72.1643 84.7491C71.8028 85.4729 71.0798 84.7491 70.7183 84.3872Z" fill="#034166"/>
<path fill-rule="evenodd" clip-rule="evenodd" d="M71.8026 85.4731C71.4411 85.4731 71.0796 85.4731 71.0796 85.1112C71.0796 85.1112 71.8026 85.1112 71.8026 85.4731Z" fill="#034166"/>
<path fill-rule="evenodd" clip-rule="evenodd" d="M90.6009 46.749C92.4085 48.5586 94.216 50.0062 96.0235 51.8157C97.4695 53.6253 99.277 55.4348 100 57.9681C99.277 58.692 98.1925 58.692 97.4695 59.0539C94.939 60.1396 92.4085 61.5872 89.878 62.6729C89.878 65.2063 89.878 67.7396 89.878 70.6349C89.878 72.0825 89.878 74.254 89.878 75.7016C89.878 76.0635 90.2395 76.7873 89.878 77.1492C89.878 77.5111 89.1549 77.873 88.4319 78.2349C85.1784 80.0445 81.5634 81.854 77.9484 83.6635C75.0563 85.1112 72.1643 86.5588 68.9108 88.3683C67.8263 88.7302 66.7418 89.8159 65.6573 89.8159C64.5728 89.8159 62.7653 89.454 61.6807 88.7302C59.1502 88.0064 56.9812 87.2826 54.4507 86.1969C49.7512 84.3873 44.6901 82.9397 40.3521 81.1302C39.9906 80.7683 39.2676 80.7683 38.9061 80.4064C37.8216 79.6825 36.7371 79.3206 35.2911 78.9587C34.5681 78.5968 33.4836 78.5968 33.4836 78.2349C33.1221 77.873 33.1221 75.3397 32.7606 74.6159C32.3991 71.3587 32.3991 68.4634 32.0376 65.5682C32.0376 64.8444 32.0376 64.1206 31.6761 63.7587C31.3145 63.3967 30.5915 63.0348 29.8685 62.6729C28.061 61.9491 26.2535 61.2253 24.446 60.1396C24.446 59.7777 24.8075 59.4158 24.446 59.0539C25.169 57.6062 25.892 56.5205 26.615 55.0729C26.9765 54.3491 27.338 53.9872 28.061 53.2634C29.1455 51.8157 29.8685 50.3681 30.953 49.2824C30.23 48.5586 29.1455 48.1967 28.061 47.4729C26.9765 47.1109 25.892 46.3871 24.8075 46.3871C24.0845 46.3871 23 46.3871 23 46.0252C23 45.6633 23.723 44.9395 24.0845 44.5776C25.892 43.4919 27.338 42.7681 28.784 41.6823C34.2066 38.7871 39.6291 35.5299 45.0516 32.6347C45.4131 32.2728 46.1362 31.9109 46.8592 31.9109C47.5822 31.549 48.3052 31.1871 48.6667 31.1871C49.3897 31.1871 50.4742 31.549 50.8357 31.9109C51.1972 31.9109 51.5587 32.2728 51.5587 32.6347C51.9202 32.9966 52.6432 32.9966 53.3662 33.3585C54.4507 34.0823 55.5352 34.4442 56.9812 35.168C57.3427 35.168 58.4272 36.2537 58.7887 36.2537C59.1502 36.2537 60.2347 34.8061 60.5962 34.4442C62.4038 32.6347 64.5728 31.549 66.7418 30.1013C67.1033 29.7394 68.1878 30.4632 68.9108 30.4632C69.6338 30.8251 69.9953 31.1871 70.7183 31.1871C72.1643 31.549 73.2488 31.9109 74.6948 32.2728C75.7793 32.6347 77.2253 33.3585 78.3099 33.7204C79.3944 34.0823 80.8404 34.4442 82.2864 34.8061C84.8169 35.5299 87.3474 36.2537 90.2394 36.9776C92.047 37.3395 93.8545 38.0633 96.0235 38.7871C96.385 38.7871 97.4695 39.149 97.4695 39.5109C97.4695 39.8728 96.0235 40.9585 95.662 41.3204C94.216 43.13 92.047 44.5776 90.6009 46.749ZM81.9249 35.5299C80.8404 35.168 79.7559 34.8061 78.3099 34.4442C77.2253 34.0823 75.7793 33.3585 74.6948 33.3585C73.6103 32.9966 72.1643 32.6347 71.0798 32.2728C69.9953 31.9109 68.9108 31.187 67.8263 30.8251C67.8263 30.8251 67.8263 30.8251 67.4648 30.8251C65.6573 31.9109 63.4883 33.3585 62.0423 34.8061C61.3193 35.168 60.9577 35.8918 60.5962 36.6157C63.4883 37.7014 66.7418 38.0633 69.6338 39.5109C71.0798 40.2347 72.5258 40.5966 73.9718 40.9585C74.6948 41.3204 75.4178 41.6823 76.1408 42.0443C76.8639 42.4062 77.9484 42.7681 78.3099 42.7681C78.6714 42.7681 79.3944 42.0443 79.7559 41.6823C81.2019 40.9585 82.2864 39.8728 83.7324 39.5109C84.0939 39.5109 84.4554 39.149 84.4554 39.5109C84.0939 39.8728 83.3709 40.2347 83.0094 40.2347C82.6479 40.5966 81.9249 40.9585 81.5634 41.3204C80.4789 42.0443 79.3944 42.4062 78.6714 43.13C79.7559 43.8538 80.8404 42.7681 81.5634 42.4062C82.2864 42.0443 83.0094 41.3204 83.3709 41.3204C83.3709 41.6823 83.0094 41.6823 82.6479 42.0443C81.9249 42.4062 80.8404 43.13 80.1174 43.8538C80.4789 44.2157 80.8404 43.4919 81.2019 43.4919C81.9249 43.13 82.6479 42.7681 83.3709 42.4062C83.7324 42.4062 84.0939 41.6823 84.4554 42.0443C83.3709 42.7681 81.9249 43.13 81.2019 44.2157C84.0939 45.3014 86.6244 46.3871 89.5165 47.4729C90.601 46.3871 91.6854 44.9395 92.77 43.8538C93.8545 42.7681 95.3005 42.0443 96.385 40.9585C92.0469 38.0633 86.9859 37.3395 81.9249 35.5299ZM53.3662 33.3585C52.6432 32.9966 51.9202 32.6347 51.5587 32.6347C50.8357 32.2728 50.1127 31.549 49.3897 31.9109C47.2207 32.6347 45.4131 33.7204 43.2441 35.168C39.2676 37.3395 35.2911 39.5109 31.3146 41.6823C29.1455 42.7681 27.338 43.8538 25.5305 45.3014C26.615 45.6633 27.6995 46.0252 28.784 46.3871C29.1455 46.749 29.8685 46.749 30.23 47.1109C30.5916 47.4729 31.3145 47.4729 31.6761 47.8348C32.0376 48.1967 32.3991 48.9205 33.1221 48.9205C33.4836 48.9205 34.2066 48.5586 34.5681 48.1967C36.3756 47.4729 37.8216 46.3871 39.2676 45.6633C41.4366 44.5776 43.9671 43.8538 45.7747 42.7681C47.9437 41.6823 50.1127 40.5966 52.2817 39.5109C53.3662 39.149 54.4507 38.4252 55.5352 38.0633C56.6197 37.7014 57.7042 36.9776 58.7887 36.6157C57.3427 35.168 55.1737 34.4442 53.3662 33.3585ZM73.2488 41.3204C71.4413 40.5966 69.6338 39.8728 67.8263 39.149C66.7418 38.7871 65.2958 38.4252 63.8498 38.0633C62.4038 37.7014 61.3193 37.3395 60.2347 36.9776C59.8732 36.9776 59.8732 36.9776 59.8732 36.9776C57.7042 38.0633 55.5352 39.149 53.3662 40.2347C51.1972 41.3204 49.0282 42.4062 46.8592 43.4919C42.5211 45.6633 37.8216 47.1109 33.8451 49.6443C34.9296 50.0062 36.0141 50.3681 37.0986 50.73C38.1831 50.0062 39.2676 49.6443 40.7136 48.9205C41.4366 48.5586 41.7981 48.1967 42.5211 47.8348C43.6056 47.1109 45.0516 46.3871 46.1361 46.0252C46.8592 45.6633 47.2207 45.3014 47.9437 45.3014C47.2207 45.6633 46.4977 46.0252 45.7747 46.3871C43.6056 47.4729 41.4366 48.5586 39.2676 50.0062C38.5446 50.0062 37.8216 50.3681 37.4601 51.0919C38.1831 51.0919 38.5446 51.8157 39.2676 51.8157C39.6291 51.8157 39.9906 51.4538 40.3521 51.0919C40.7136 50.73 41.0751 50.3681 41.4366 50.3681C41.7981 50.3681 41.7981 50.3681 41.7981 50.3681C46.1361 48.1967 50.1127 45.6633 54.4507 43.8538C54.8122 43.8538 55.1737 43.4919 55.1737 43.4919C55.1737 43.8538 54.8122 43.8538 54.4507 44.2157C53.3662 44.5776 52.2817 45.3014 51.1972 45.6633C51.1972 45.6633 51.1972 46.0252 50.8357 46.0252C47.5822 47.4729 44.3286 48.9205 41.4366 50.73H41.0751C40.7136 51.0919 39.9906 51.4538 39.6291 51.8157C40.7136 52.5395 41.7981 51.0919 42.8826 50.73C43.2441 50.73 42.8826 51.0919 43.2441 51.0919C45.0516 50.0062 47.2207 48.9205 49.3897 47.8348C49.7512 47.8348 49.7512 47.8348 49.7512 47.8348C51.5587 46.749 53.7277 45.6633 55.8967 44.5776C56.6197 44.2157 57.3427 43.8538 58.0657 43.4919C58.7887 43.4919 59.1502 43.13 59.8732 43.13C60.9577 42.7681 62.0423 42.0443 63.1268 41.6823C64.5728 40.9585 66.0188 40.2347 67.8263 40.2347C67.8263 40.5966 67.1033 40.5966 66.7418 40.5966C63.8498 41.3204 61.3192 42.7681 58.7887 43.8538H58.4272C56.2582 44.9395 54.0892 46.0252 51.9202 47.1109C51.1972 47.4729 50.1127 48.1967 49.3897 48.1967C47.2207 49.2824 45.0516 50.73 42.8826 51.8157C42.5211 51.8157 42.5211 51.8157 42.5211 51.8157C42.1596 52.1776 41.7981 52.1776 41.7981 52.5395C42.1596 52.9015 42.5211 52.9015 42.5211 52.9015C42.8826 52.5395 43.2441 51.8157 43.9671 52.1776C43.6056 52.5395 43.2441 52.5395 42.8826 52.9015C43.2441 53.2634 43.6056 52.9015 43.9671 52.5395C44.6901 52.1776 45.4131 51.8157 45.7747 51.0919C45.4131 51.0919 45.0516 51.8157 44.3286 51.8157C44.6901 51.0919 45.4131 51.0919 45.7747 50.73C46.8592 50.0062 47.9437 49.6443 49.0282 49.2824C49.3897 48.9205 50.1127 48.5586 50.8357 48.5586C50.1127 49.6443 48.3052 49.6443 47.2207 50.3681C46.8591 50.73 46.4976 51.0919 46.1361 51.8157C47.5822 51.0919 48.6667 50.3681 50.4742 49.6443C50.8357 49.6443 50.4742 50.0062 50.8357 50.0062C54.4507 47.8348 58.4272 45.3014 62.4038 43.4919C63.1268 43.13 63.4883 43.13 64.2113 42.7681C65.6573 42.4062 67.1033 41.6823 68.5493 41.3204C68.9108 41.3204 69.6338 40.9585 69.9953 41.3204C69.6338 41.6823 69.2723 41.6823 68.9108 41.6823C67.8263 42.0443 66.7418 42.4062 65.6573 42.7681C63.1268 43.8538 60.5963 44.5776 58.4272 45.6633C55.5352 47.1109 52.6432 48.9205 50.1127 50.73V50.3681C49.7512 50.3681 49.7512 50.3681 49.3897 50.73C49.3897 50.73 49.3897 50.73 49.3897 51.0919L49.0282 51.4538C49.3897 51.4538 50.1127 51.0919 50.4742 50.73C50.8357 50.3681 51.5587 50.3681 51.9202 50.0062C52.6432 49.6443 53.0047 49.2824 53.7277 48.9205C54.4507 48.5586 55.1737 48.1967 55.8967 47.8348C57.3427 47.1109 59.5117 46.3871 60.5962 45.3014C62.7653 44.5776 64.9343 43.4919 67.4648 42.7681C68.1878 42.4062 69.2723 42.0443 69.6338 42.4062C69.2723 42.7681 68.5493 42.7681 67.8263 43.13C67.1033 43.13 66.7418 43.4919 66.0188 43.8538C60.9577 45.3014 56.9812 47.8348 52.6432 50.3681C51.9202 50.73 51.5587 51.0919 50.8357 51.0919C49.3897 52.1776 47.2207 52.5395 46.4977 53.9872C47.5822 53.6253 47.9437 53.2634 48.6667 52.5395C49.0282 52.5395 49.0282 52.5395 49.0282 52.5395C50.4742 51.8157 51.9202 51.0919 53.3662 50.3681C53.7277 50.3681 53.3662 50.73 53.7277 50.73C54.0892 50.3681 54.4507 50.3681 54.4507 50.0062C54.8122 49.6443 55.5352 49.2824 55.8967 48.9205C56.2582 48.5586 56.9812 48.1967 57.3427 48.1967C57.3427 48.5586 56.9812 48.5586 56.6197 48.9205C58.0657 48.5586 59.1502 47.8348 60.5962 47.1109V46.749C64.2113 45.3014 67.8263 43.13 71.8028 42.0443C72.1643 42.0443 72.5258 41.6823 72.5258 42.0443C71.8028 42.4062 71.0798 42.4062 70.3568 42.7681C68.1878 43.4919 66.3803 44.2157 64.5728 45.3014C64.9343 45.3014 65.6573 44.9395 66.0188 45.3014C63.1268 46.3871 60.2347 47.4729 57.7042 49.2824C57.7042 49.6443 57.7042 49.6443 57.7042 49.6443C56.2582 50.3681 54.4507 51.4538 53.0047 52.1776C52.2817 52.5395 51.5587 52.9015 51.1972 53.6253C52.2817 53.2634 53.0047 52.5395 53.7277 51.8157C54.8122 51.8157 55.1737 51.0919 55.8967 50.73C58.0657 49.6443 60.2348 48.5586 62.7653 47.8348C63.1268 47.8348 62.7653 48.1967 63.1268 48.1967C66.0188 47.1109 68.9108 46.0252 72.1643 44.9395C72.1643 44.5776 72.1643 44.5776 72.1643 44.5776C72.8873 44.5776 73.6103 44.2157 73.9718 44.2157C74.6948 44.2157 75.4178 44.2157 75.7793 43.4919C75.0563 43.13 74.6948 43.13 73.9718 43.13C73.2488 43.4919 72.1643 43.4919 71.4413 43.8538C70.3568 44.2157 69.6338 44.5776 68.9108 44.5776C69.2723 44.2157 69.6338 44.2157 69.9953 44.2157C71.4413 43.8538 72.8873 43.4919 73.9718 43.13C74.3333 41.6823 73.6103 41.6823 73.2488 41.3204ZM76.8639 43.13C75.4179 43.13 74.3333 43.8538 72.8873 44.2157C72.8873 44.5776 72.8873 44.5776 72.8873 44.5776C68.9108 45.6633 64.9343 47.1109 61.6807 48.5586C61.3192 48.9205 60.5963 49.2824 60.2347 49.2824C59.8732 49.2824 59.8732 49.2824 59.5117 49.2824C59.1502 49.2824 58.4272 49.6443 58.0657 50.0062C56.9812 50.3681 56.2582 50.73 55.8967 51.8157C58.0657 51.0919 59.8732 49.6443 61.6807 48.9205H62.0423C63.1268 48.5586 64.2113 47.8348 65.2958 47.4729C65.6573 47.1109 66.3803 47.1109 67.1033 47.1109C67.1033 47.4729 66.7418 47.1109 66.7418 47.4729C69.2723 46.749 72.1643 45.6633 75.0564 44.9395C75.4179 44.9395 75.0564 45.3014 75.4179 45.3014C76.1409 45.3014 76.5024 44.9395 77.2254 44.5776C77.9484 44.2157 78.3099 43.8538 79.0329 44.2157C78.3099 44.9395 76.8639 44.9395 76.1408 45.6633C75.7793 45.6633 75.4179 46.0252 75.4179 45.6633C75.4179 45.3014 75.7794 45.3014 75.4179 45.3014C74.6948 45.3014 73.9718 45.6633 73.2488 45.6633C72.8873 46.0252 72.1643 46.3871 71.4413 46.749C72.8873 46.3871 74.3333 46.0252 75.7793 45.6633L76.1408 46.0252C76.1408 46.3871 75.7793 46.0252 75.7793 46.3871C77.5869 46.0252 79.7559 45.6633 81.5634 44.9395C81.5634 44.9395 82.6479 44.5776 82.6479 44.9395C82.6479 45.3014 81.5634 45.3014 81.5634 45.3014C81.2019 45.3014 80.8404 45.3014 80.4789 45.6633C80.8404 45.6633 81.2019 45.6633 81.2019 46.0252C80.8404 46.3871 80.4789 46.3871 80.1174 46.3871C79.3944 46.3871 78.6714 46.749 77.9484 47.1109C77.2254 47.4729 76.1408 47.4729 76.1408 48.1967C77.2254 48.5586 78.3099 48.1967 79.3944 47.8348C80.4789 47.4729 81.5634 47.1109 82.6479 47.1109C83.7324 47.1109 84.4554 46.749 85.1784 46.749C84.8169 47.1109 84.4554 47.1109 83.7324 47.1109C82.6479 47.1109 81.5634 47.4729 80.4789 47.8348C79.0329 48.1967 77.5869 48.5586 76.8639 49.2824C77.5869 49.2824 77.9484 49.2824 78.6714 48.9205C80.1174 48.5586 81.5634 48.1967 83.3709 47.8348C84.0939 47.8348 84.4554 47.8348 85.1784 47.4729C85.5399 47.4729 85.9014 47.1109 86.2629 47.4729C84.4554 48.1967 83.0094 48.1967 81.2019 48.9205C79.0329 49.6443 76.8638 50.0062 74.6948 51.0919C74.3333 51.0919 73.9718 51.4538 73.6103 51.8157C75.0564 51.4538 76.1409 50.73 77.5869 50.73C78.6714 50.73 79.3944 50.0062 80.4789 49.6443C81.9249 49.2824 83.3709 48.9205 84.8169 48.5586C85.1784 48.5586 85.5399 48.1967 85.9014 48.5586C85.5399 48.9205 84.8169 48.9205 84.0939 48.9205C83.0094 49.2824 82.2864 49.2824 81.2019 49.6443C80.4789 50.0062 79.7559 50.0062 79.3944 50.0062L79.0329 50.3681C78.6714 50.73 78.3099 50.73 77.9484 51.0919C79.3944 50.73 80.8404 50.3681 82.2864 50.0062C83.3709 49.6443 84.4554 49.6443 85.1784 49.2824C86.2629 48.9205 86.9859 48.1967 88.0704 47.8348C88.4319 47.8348 88.7934 47.4729 88.7934 47.4729C85.5399 46.3871 82.6479 44.9395 79.3944 43.8538C77.9484 44.2157 76.5024 44.9395 75.0564 45.3014C75.0564 45.3014 74.3333 45.6633 74.3333 45.3014C75.7793 44.5776 77.5869 44.2157 79.0329 43.8538C77.9484 43.13 77.2254 43.13 76.8639 43.13ZM79.0329 46.3871C79.3944 46.3871 79.7559 46.3871 79.7559 46.3871C79.7559 46.0252 79.3944 46.0252 79.0329 46.3871ZM68.1878 47.4729C67.8263 47.4729 67.8263 47.8348 67.8263 47.8348C67.1033 48.1967 66.3803 48.1967 65.6573 48.5586C64.2113 49.2824 62.7653 49.6443 61.6807 50.3681C60.9577 50.73 60.2347 50.73 59.8732 51.4538C62.4038 50.3681 64.5728 48.9205 67.4648 48.1967C67.8263 48.1967 67.8263 48.5586 67.8263 48.1967C68.9108 47.4729 70.3568 47.1109 71.4413 46.3871C69.9953 46.749 68.9108 47.1109 68.1878 47.4729ZM77.5869 46.749C77.9484 46.749 77.9484 46.749 78.3099 46.749C77.9484 46.3871 77.5869 46.3871 77.5869 46.749ZM71.0798 48.5586C72.5258 48.5586 73.6103 47.8348 75.0564 47.4729C75.7794 47.1109 76.5024 47.1109 77.2254 46.749C76.1409 46.749 75.4178 47.1109 74.6948 47.4729V47.1109C75.0563 47.1109 75.4179 47.1109 75.4179 47.1109C73.6103 47.1109 72.1643 47.8348 71.0798 48.5586ZM65.6573 50.0062C66.0188 50.3681 66.7418 50.0062 67.1033 49.6443C68.9108 48.9205 70.3568 48.1967 71.8028 47.4729C69.6338 47.8348 67.4648 48.9205 65.6573 50.0062ZM86.2629 49.2824C85.1784 50.0062 84.0939 50.3681 83.0094 51.0919C80.8404 52.1776 78.6714 53.6253 76.5023 54.711C75.4178 55.0729 74.3334 55.7967 73.2488 56.5205C69.9953 58.3301 66.7418 60.1396 63.4883 61.5872C63.8498 62.311 64.5728 63.0348 64.9343 63.3967C65.2958 64.1206 66.0188 64.8444 66.3803 65.5682C66.7418 66.292 67.4648 67.0158 67.8263 67.7396C68.5493 69.1873 69.6338 70.6349 70.3568 72.4444C71.0798 72.0825 71.4413 71.7206 72.1643 71.3587C73.9718 70.273 75.7793 69.5492 77.5869 68.4634C81.2019 66.6539 84.4554 64.4825 88.0704 62.6729C91.324 61.2253 94.216 59.4158 97.4695 58.3301C98.1925 57.9681 98.9155 57.9681 99.277 57.2443C97.108 53.2634 93.8545 50.3681 90.2394 47.4729C88.7934 48.1967 87.3474 48.5586 86.2629 49.2824ZM66.0188 47.8348C66.3803 47.8348 66.3803 47.8348 66.3803 47.8348C66.0188 47.8348 66.0188 47.8348 66.0188 47.8348ZM64.2113 48.5586C64.9343 48.5586 65.2958 48.1967 65.6573 47.8348C64.9343 47.8348 64.5728 48.1967 64.2113 48.5586ZM63.8498 48.5586H64.2113C63.8498 48.5586 63.8498 48.5586 63.8498 48.5586ZM75.0564 48.9205L74.6948 48.5586C73.9718 48.9205 72.8873 49.2824 72.5258 50.0062C73.9718 49.6443 75.0563 49.2824 76.1408 48.5586C75.4178 48.9205 75.4179 48.9205 75.0564 48.9205ZM68.5493 50.0062C69.6338 49.6443 70.3568 49.2824 71.0798 48.9205C69.9953 49.2824 69.2723 49.6443 68.5493 50.0062ZM62.0423 49.2824C60.9578 49.6443 59.8732 50.3681 59.1502 50.73C58.7887 51.0919 58.0657 51.0919 57.7042 51.4538C57.3427 51.8157 56.6197 51.8157 56.2582 52.5395C56.9812 52.5395 57.3427 52.1776 57.7042 51.8157C58.7887 51.0919 59.8732 50.73 60.9578 50.3681C61.3193 50.0062 62.0423 50.0062 62.0423 49.2824ZM62.0423 51.0919C62.4038 51.4538 62.0423 51.4538 61.6807 51.8157C62.7653 51.4538 63.4883 51.0919 64.5728 50.73C64.9343 50.3681 65.2958 50.0062 65.6573 49.6443C64.5728 50.0062 63.1268 50.3681 62.0423 51.0919ZM68.5493 50.73C68.5493 51.0919 68.1878 51.0919 68.5493 50.73C67.8263 51.4538 67.1033 51.8157 66.3803 52.1776C66.3803 51.8157 65.6573 51.8157 65.2958 52.1776C65.2958 52.1776 65.2958 52.5395 64.9343 52.5395C63.4883 53.2634 62.0423 53.9872 60.5962 54.711C59.8732 55.0729 59.1502 55.4348 59.1502 55.7967C60.5963 55.0729 62.0423 53.9872 63.4883 53.2634C64.2113 52.9015 64.5728 52.9015 65.2958 52.5395C66.3803 52.1776 67.4648 51.4538 68.9108 51.0919C69.9953 50.73 71.0798 50.0062 72.1643 49.2824C70.7183 50.0062 69.6338 50.3681 68.5493 50.73ZM81.5634 50.0062C80.1174 50.3681 78.3099 50.73 76.8639 51.4538C76.1409 51.8157 75.4179 51.8157 75.0564 52.5395C75.7794 52.5395 76.5024 52.1776 77.2254 51.8157C77.9484 51.4538 78.6714 51.0919 79.3944 51.0919C79.3944 51.0919 79.7559 51.0919 80.1174 51.0919C80.8404 51.0919 81.5634 50.73 81.9249 50.3681C81.9249 50.0062 81.9249 50.0062 81.5634 50.0062ZM73.2488 50.3681H73.6103C73.6103 50.0062 73.2488 50.0062 73.2488 50.3681ZM54.0892 58.692C52.2817 57.9681 50.1127 57.2443 48.3052 56.5205C47.2207 56.1586 46.4976 55.7967 45.4131 55.4348C44.3286 54.711 43.2441 54.711 42.1596 53.9872C41.0751 53.6253 39.9906 52.9015 38.9061 52.5395C37.8216 52.1776 36.7371 51.8157 35.6526 51.0919C34.5681 50.73 33.4836 50.0062 32.0376 50.0062C32.0376 50.0062 32.0376 50.0062 31.6761 50.0062C30.953 50.3681 30.23 51.4538 29.8685 52.1776C29.1455 52.9015 28.4225 53.6253 28.061 54.711C27.338 56.1586 26.615 57.6062 25.892 58.692C27.338 59.7777 29.1455 60.1396 30.5915 61.2253C31.3146 61.5872 32.3991 62.311 33.1221 62.6729C34.9296 63.3967 36.7371 64.1206 38.5446 65.2063C41.0751 66.292 44.3286 67.3777 47.2207 68.4634C48.6667 68.8254 50.1127 69.5492 51.9202 69.5492C54.4507 66.292 57.3427 63.3967 59.8732 60.8634C58.4272 60.1396 56.2582 59.7777 54.0892 58.692ZM70.7183 51.0919C71.4413 51.0919 72.1643 50.73 72.8873 50.3681C72.1643 50.3681 71.4413 50.73 70.7183 51.0919ZM66.7418 50.3681C65.6573 50.73 64.9343 51.0919 63.8498 51.4538C62.7653 51.8157 61.3193 52.5395 60.2347 52.9015C59.1502 53.6253 58.0657 53.9872 56.6197 54.711C55.8967 55.0729 55.1737 55.4348 54.8122 55.7967C54.8122 56.1586 54.8122 56.1586 54.4507 56.5205C54.4507 56.8824 54.4507 56.8824 54.4507 57.2443C54.8122 57.2443 55.1737 56.8824 55.1737 56.5205C55.8967 56.1586 56.2582 55.4348 56.9812 55.0729C56.9812 55.0729 56.9812 55.4348 57.3427 55.0729C57.7042 55.0729 57.7042 54.711 58.0657 54.711C60.2347 53.6253 62.4038 52.1776 64.9343 51.4538C65.2958 51.4538 66.3803 51.0919 66.7418 50.3681ZM50.4742 51.8157C50.4742 52.1776 50.4742 52.5395 50.1127 52.5395C51.1972 52.1776 51.9202 51.4538 53.0047 50.73C51.9202 50.73 51.1972 51.4538 50.4742 51.8157ZM69.2723 53.6253C70.7183 53.2634 71.8028 52.5395 73.2488 52.1776C74.6949 51.8157 75.7794 51.4538 76.8639 50.73C74.3334 51.4538 71.4413 51.8157 69.2723 53.6253ZM46.1361 51.4538C46.4976 51.8157 45.7747 52.1776 45.7747 52.5395C46.8592 52.1776 47.5822 51.4538 47.9437 50.73C47.2207 50.73 46.8592 51.0919 46.1361 51.4538ZM66.7418 53.9872C68.1878 53.9872 68.9108 53.2634 69.9953 52.9015C70.7183 52.5395 71.8028 52.1776 72.1643 51.4538C69.9953 51.8157 68.1878 52.5395 66.7418 53.9872ZM77.2254 52.9015C78.3099 52.5395 79.0329 52.1776 79.7559 51.8157C78.6714 51.8157 77.9484 52.1776 77.2254 52.9015ZM52.6432 53.6253C53.7277 53.2634 54.8122 52.9015 55.1737 51.8157C54.0892 52.1776 53.3662 52.5395 52.6432 53.6253ZM61.3193 51.8157H61.6807C61.3192 51.8157 61.3193 51.8157 61.3193 51.8157ZM43.2441 53.2634C42.8826 53.2634 42.8826 53.2634 42.8826 53.2634C43.6056 53.6253 44.3286 53.9872 45.0516 53.9872C45.0516 53.2634 45.7747 53.2634 45.7747 52.9015C45.0516 52.9015 45.0516 53.6253 44.3286 53.6253C44.3286 53.6253 43.9671 53.6253 44.3286 53.2634C44.6901 52.9015 45.4131 52.1776 45.7747 51.8157C44.6901 52.1776 43.9671 52.9015 43.2441 53.2634ZM47.2207 53.9872C48.3052 53.6253 49.0282 53.2634 49.7512 52.1776C48.6667 52.5395 47.9437 52.9015 47.2207 53.9872ZM64.5728 52.1776C63.4883 52.5395 62.0423 53.2634 60.9578 53.9872C59.8732 54.3491 58.7887 55.0729 57.7042 55.7967C58.7887 55.4348 59.5117 54.711 60.5962 54.3491C62.0423 53.6253 63.4883 53.2634 64.5728 52.1776ZM74.6948 52.9015C74.3333 52.9015 74.3333 52.9015 74.6948 52.9015C73.6103 52.9015 72.5258 53.2634 72.1643 53.9872C72.8873 53.9872 73.6103 53.2634 74.6948 53.6253C75.4178 53.2634 76.1408 52.9015 76.5023 52.5395C75.7793 52.5395 75.4178 52.9015 74.6948 52.9015ZM50.1127 53.2634C49.0282 53.2634 48.3052 53.9872 47.9437 54.711C49.0282 54.3491 50.1127 53.9872 50.8357 52.9015C50.4742 52.5395 50.4742 53.2634 50.1127 53.2634ZM71.0798 53.6253C71.8028 53.6253 72.1643 53.2634 72.5258 52.9015C72.1643 52.9015 71.8028 53.2634 71.0798 53.6253ZM54.0892 53.9872C54.8122 53.6253 55.1737 53.6253 55.5352 52.9015C54.8122 52.9015 54.4507 53.2634 54.0892 53.9872ZM56.6197 53.2634C55.8967 53.6253 54.8122 53.9872 54.4507 54.711C55.1737 54.3491 56.2582 53.9872 56.6197 53.2634C56.9812 53.2634 56.9812 53.2634 56.6197 53.2634ZM53.7277 53.6253C52.6432 53.9872 52.2817 54.3491 51.5587 55.0729L51.1972 55.4348C52.6432 55.0729 53.3662 54.3491 53.7277 53.6253ZM70.7183 53.6253C71.0798 53.6253 71.0798 53.6253 71.0798 53.6253C71.0798 53.6253 70.7183 53.6253 70.7183 53.6253ZM45.7747 53.9872L45.4131 54.3491C45.7746 55.0729 46.4977 54.3491 46.8592 53.6253C46.4977 53.6253 46.1362 54.3491 45.7747 53.9872ZM67.8263 53.9872C67.8263 54.3491 67.4648 54.3491 67.8263 53.9872C68.5493 54.3491 68.5493 53.9872 68.9108 53.9872C68.5493 53.6253 67.8263 53.9872 67.8263 53.9872ZM50.4742 54.3491H50.8357C50.8357 53.9872 50.4742 53.9872 50.4742 54.3491C50.4742 53.9872 50.1127 54.3491 50.4742 54.3491ZM65.2958 53.9872C63.4883 54.711 61.3192 55.7967 59.8732 56.8824C61.3192 56.5205 62.7653 55.4348 64.2113 54.711C64.5728 54.3491 65.2958 54.3491 65.6573 53.9872C65.6573 53.9872 65.6573 53.9872 65.2958 53.9872ZM67.4648 55.4348C67.4648 55.7967 67.4648 55.7967 67.4648 55.7967C68.9108 55.4348 70.3568 54.711 71.4413 53.6253C69.9953 54.3491 68.9108 55.0729 67.4648 55.4348ZM49.0282 55.7967C50.1127 55.4348 50.8357 55.0729 51.5587 54.3491C50.4742 54.3491 49.7512 55.0729 49.0282 55.7967ZM69.9953 55.7967C71.0798 55.4348 72.5258 55.0729 73.2488 54.3491C71.8028 54.711 70.7183 55.0729 69.9953 55.7967ZM46.4977 54.711C46.8592 55.0729 47.5822 54.711 47.5822 54.3491C47.2207 54.3491 46.8592 54.3491 46.4977 54.711ZM47.5822 55.0729C47.5822 55.4348 47.5822 55.4348 47.5822 55.0729C47.5822 55.4348 47.9437 55.4348 48.3052 55.4348C48.6667 55.0729 49.0282 54.711 49.3897 54.3491C48.6667 54.711 48.3052 54.711 47.5822 55.0729ZM52.6432 55.7967C53.0047 55.7967 53.7277 55.0729 53.3662 55.0729C53.0047 55.0729 52.6432 55.4348 52.6432 55.7967ZM53.7277 55.7967C54.0892 56.1586 54.8122 55.7967 54.8122 55.0729C54.4507 55.0729 54.0892 55.4348 53.7277 55.7967ZM49.7512 56.1586C50.1127 56.1586 50.4742 56.1586 50.4742 55.7967C50.1127 55.7967 49.7512 55.7967 49.7512 56.1586ZM50.4742 56.5205C50.8357 56.8824 51.5587 56.5205 51.9202 55.7967C51.1972 55.7967 50.8357 55.7967 50.4742 56.5205ZM55.5352 57.2443C56.2582 56.8824 56.6197 56.5205 56.9812 56.1586C56.6197 56.5205 55.5352 56.5205 55.5352 57.2443ZM56.9812 57.2443C57.7042 56.8824 58.4272 56.5205 58.4272 56.1586C57.7042 56.5205 56.9812 56.5205 56.9812 57.2443ZM52.6432 56.8824C53.0047 57.2443 53.7277 56.8824 54.0892 56.5205C53.7277 56.5205 53.0047 56.1586 52.6432 56.8824ZM67.8263 57.2443C68.1878 57.2443 68.5493 56.8824 68.5493 56.5205C68.5493 56.5205 67.8263 56.8824 67.8263 57.2443ZM58.4272 56.8824C58.7887 56.8824 58.7887 56.8824 58.4272 56.8824ZM60.5962 57.9681C61.3192 57.6062 62.0423 57.2443 62.7653 56.8824C62.0423 57.2443 60.9577 57.2443 60.5962 57.9681ZM63.8498 57.9681C64.5728 57.6062 65.2958 57.6062 65.6573 56.8824C64.9343 57.2443 64.5728 57.6062 63.8498 57.9681ZM56.6197 57.9681C56.9812 57.9681 57.3427 57.6062 57.7042 57.2443C57.3427 57.6062 56.6197 57.6062 56.6197 57.9681ZM63.1268 57.2443C63.4883 57.6062 63.1268 57.6062 63.1268 57.2443C63.4883 57.2443 63.4883 57.2443 63.1268 57.2443ZM68.5493 57.2443C68.9108 57.6062 68.5493 57.6062 68.5493 57.2443ZM62.7653 57.6062C63.1268 57.6062 63.1268 57.6062 62.7653 57.6062ZM63.4883 58.3301C63.8498 58.3301 63.8498 58.3301 63.4883 58.3301C63.8498 57.9681 63.4883 57.9681 63.4883 58.3301ZM66.7418 58.3301C67.1033 58.3301 67.1033 58.3301 66.7418 58.3301ZM58.7887 64.1206C56.9812 65.9301 55.5352 67.7396 53.7277 69.9111C53.3662 70.273 53.0047 70.9968 52.6432 70.9968C52.2817 70.9968 51.5587 70.9968 51.1972 70.6349C49.7512 70.273 48.3052 69.9111 47.2207 69.5492C42.1596 67.7396 37.4601 65.9301 33.1221 63.7587C33.4836 68.1015 33.8451 72.8063 34.5681 77.1492C36.3756 77.873 38.1831 78.5968 39.6291 79.3206C43.2441 81.1302 46.8591 82.5778 50.8357 84.0254C53.0047 84.7492 55.1737 85.4731 57.7042 86.1969C59.8732 86.9207 62.4038 88.0064 64.5728 88.3683C64.2113 86.1969 64.2113 84.3873 63.8498 82.2159C63.4883 80.0445 63.4883 77.873 63.1268 75.7016C63.1268 74.6159 62.7653 73.1682 62.7653 72.0825C62.7653 70.9968 62.4038 69.5492 62.0423 68.4634C61.6808 65.9301 61.6808 63.7587 60.9578 61.5872C60.5963 62.311 59.8732 63.0348 58.7887 64.1206ZM63.4883 63.0348C63.1268 62.6729 62.7653 62.311 62.4038 61.9491C62.4038 62.6729 63.1268 63.0348 63.4883 63.0348ZM88.4319 63.3967C88.4319 63.7587 88.4319 63.7587 88.4319 63.7587C88.0704 63.7587 88.0704 63.3967 87.7089 63.7587C87.7089 64.1206 88.0704 64.1206 88.0704 64.1206C88.4319 64.4825 88.7934 64.4825 89.1549 64.4825C89.1549 64.1206 89.1549 63.3967 89.1549 63.3967C88.7934 63.0348 88.7934 63.3967 88.4319 63.3967ZM63.4883 63.3967C63.1268 63.3967 63.1268 63.0348 62.7653 63.0348C62.7653 63.3968 62.7653 64.1206 63.1268 64.4825C63.8498 64.8444 64.5728 65.2063 65.6573 65.2063C65.2958 64.4825 64.9343 64.1206 64.2113 63.7587C63.8498 63.7587 63.4883 63.7587 63.4883 63.3967C63.8498 63.0348 64.5728 63.3967 64.5728 63.3967C64.2113 63.7587 64.2113 63.3967 63.4883 63.3967ZM87.7089 64.1206C87.3474 64.1206 87.3474 64.1206 87.7089 64.1206C85.9014 64.8444 84.4554 65.5682 83.0094 66.292C82.2864 66.6539 81.5634 67.0158 80.8404 67.3777C81.5634 67.7396 82.6479 67.7396 83.3709 67.7396C84.0939 68.1015 85.1784 68.4634 85.5399 68.1015C86.6244 68.4634 87.7089 68.8253 89.1549 69.1873C89.5164 68.8253 89.1549 68.4634 89.1549 68.1015C88.0704 67.7396 86.9859 67.7396 86.2629 67.3777C86.2629 67.0158 85.5399 67.3777 85.5399 67.0158C86.6244 67.0158 88.0704 68.1015 89.1549 67.7396C89.1549 67.3777 88.4319 67.3777 88.0704 67.3777C87.3474 67.0158 86.2629 67.0158 85.5399 66.6539C85.1784 66.6539 84.8169 66.292 84.4554 66.292C85.1784 66.292 85.9014 66.6539 86.6244 66.6539C87.3474 67.0158 88.0704 67.0158 88.7934 67.3777V67.0158C87.7089 66.6539 86.9859 66.292 85.9014 66.292C85.1784 66.292 84.4554 66.292 84.4554 65.5682C85.9014 65.9301 87.3474 66.6539 88.7934 66.6539C88.4319 65.9301 86.9859 65.9301 85.9014 65.2063C86.2629 64.8444 86.9859 65.2063 87.3474 65.5682C87.7089 65.9301 88.4319 65.9301 88.7934 65.9301C88.4319 65.2063 87.3474 65.2063 86.9859 64.4825C87.7089 64.1206 88.0704 65.2063 88.7934 64.8444C89.1549 64.4825 88.0704 64.4825 87.7089 64.1206ZM63.1268 65.2063C63.1268 65.5682 63.1268 65.9301 63.1268 65.9301C64.5728 65.9301 65.2958 66.6539 66.0188 67.0158C66.0188 65.9301 64.2113 65.9301 63.1268 65.2063ZM63.1268 66.292C63.1268 67.0158 63.1268 67.7396 63.4883 68.1015C64.9343 68.8253 66.3803 69.1873 67.8263 69.9111C67.4648 68.4634 65.2958 68.1015 64.2113 67.3777C63.8498 67.3777 63.4883 67.3777 63.4883 67.0158C64.9343 66.6539 65.6573 67.7396 66.7418 68.1015C66.3803 67.0158 64.5728 66.6539 63.1268 66.292ZM82.6479 69.1873C82.2864 69.1873 81.9249 68.8253 81.2019 68.8253C80.1174 68.4634 79.3944 68.1015 78.6714 68.8253C79.3944 69.1873 80.1174 69.5492 80.8404 69.5492C82.6479 69.9111 84.4554 69.9111 85.9014 70.9968C85.5399 71.3587 84.8169 70.9968 84.4554 70.6349C83.3709 70.273 82.2864 70.273 80.8404 69.9111C79.7559 69.5492 79.0329 68.8253 78.3099 68.8253C77.5869 68.8253 77.2254 69.5492 76.8639 69.5492C77.2254 69.9111 77.2254 69.9111 77.5869 69.5492C77.5869 70.273 78.3099 69.9111 78.6714 70.6349C77.5869 70.6349 76.5024 69.1873 75.7793 70.273C76.8639 70.6349 77.9484 70.9968 78.6714 71.3587C79.0329 71.3587 79.3944 71.7206 79.3944 71.7206C79.0329 71.7206 78.3099 71.3587 77.5869 71.3587C76.1409 70.9968 74.6948 69.5492 73.9718 70.9968C75.7793 71.7206 77.5869 72.4444 79.3944 73.5301C79.7559 73.892 80.4789 73.892 80.8404 74.2539C80.1174 74.2539 79.7559 73.892 79.3944 73.892C77.5869 73.1682 76.1409 72.0825 73.9718 71.7206V71.3587C73.2488 71.7206 72.5258 72.0825 71.8028 72.4444C72.8873 72.8063 73.9718 73.5301 75.0564 73.892C75.4179 73.892 75.7793 74.2539 75.7793 74.6159C73.9718 74.2539 72.8873 73.1682 71.0798 72.8063C70.7183 72.8063 70.3568 73.5301 69.9953 73.5301C69.6338 73.5301 69.6338 73.1682 69.2723 73.1682C68.9108 72.8063 68.5493 72.8063 67.8263 72.8063C66.7418 72.4444 64.9343 71.3587 63.8498 70.9968C63.8498 71.3587 63.8498 71.7206 63.8498 72.0825C64.5728 71.7206 65.2958 72.0825 66.0188 72.4444C67.1033 72.8063 67.8263 73.1682 68.9108 73.892C69.2723 74.254 69.9953 74.2539 69.9953 74.6159C67.8263 73.892 66.3803 72.8063 63.8498 72.4444C63.8498 72.8063 63.8498 73.1682 63.8498 73.5301C66.0188 74.254 67.8263 74.9778 69.9953 76.0635C70.3568 76.0635 70.3568 76.0635 70.3568 76.0635C71.8028 76.7873 72.8873 77.1492 74.3333 77.873C74.6948 77.873 75.4179 78.2349 75.4179 78.5968C74.6948 78.5968 73.6103 78.2349 72.8873 77.873C72.1643 77.5111 71.4413 77.1492 70.7183 76.7873C70.3568 76.7873 70.3568 77.1492 70.3568 76.7873C69.6338 76.4254 69.2723 76.4254 68.5493 76.0635C68.1878 75.7016 67.4648 75.7016 67.1033 75.3397C66.0188 74.9778 65.2958 74.6159 64.2113 74.2539C64.2113 74.9778 64.9343 74.9778 65.2958 75.3397C66.3803 76.0635 67.4648 76.4254 68.1878 76.7873C68.5493 77.1492 69.2723 77.1492 69.6338 77.5111C67.8263 77.1492 66.0188 76.0635 64.2113 75.3397C64.2113 75.7016 64.2113 76.0635 64.2113 76.4254C66.0188 77.1492 67.4648 77.873 69.2723 78.2349C69.2723 78.2349 69.2723 77.873 69.6338 77.873C70.3568 78.2349 71.4413 78.5968 72.5258 78.9587C73.6103 79.3206 74.6948 79.3206 75.4179 80.0445C75.0564 80.4064 74.3333 80.0445 73.9718 79.6825C72.5258 79.3206 71.0798 78.5968 69.6338 78.2349C69.6338 78.2349 69.9953 78.5968 69.6338 78.5968C67.8263 77.873 66.3803 77.1492 64.2113 76.4254C64.2113 78.2349 64.5728 79.6826 64.5728 81.1302C64.9343 81.1302 64.9343 81.1302 65.2958 81.1302C66.3803 81.4921 67.8263 82.2159 69.2723 82.5778C69.6338 82.5778 70.3568 82.9397 70.3568 83.3016C68.5493 82.5778 66.7418 81.854 64.9343 81.4921C64.5728 82.2159 65.6573 82.5778 66.3803 82.5778C67.4648 82.9397 68.1878 83.3016 68.9108 83.6635C69.2723 83.6635 69.9953 84.0254 69.9953 84.3873C68.5493 84.0254 67.4648 83.3016 66.0188 82.9397C65.6573 82.9397 64.9343 82.2159 64.9343 82.9397H65.2958C66.0188 83.3016 67.1033 83.6635 67.8263 84.0254C68.5493 84.3873 69.6338 84.7492 70.3568 85.4731C69.9953 85.4731 69.2723 85.1111 68.9108 85.1111C67.4648 84.3873 66.3803 84.0254 64.9343 83.3016C64.9343 83.6635 64.9343 84.0254 64.9343 84.3873C66.7418 85.1111 68.5493 85.835 70.3568 86.9207C70.3568 86.9207 70.3568 87.2826 70.7183 87.2826C71.8028 86.5588 72.8873 86.1969 73.9718 85.4731C73.9718 85.4731 73.6103 85.4731 73.6103 85.1111C73.9718 85.1111 74.6949 85.835 75.0564 85.1111C75.0564 84.7492 74.6948 85.1112 74.6948 84.7492C75.0563 84.7492 75.4178 85.1112 75.7793 84.7492C75.4178 84.3873 74.6948 84.3873 74.6948 84.0254C75.0563 83.6635 75.7793 84.3873 76.1408 84.3873C77.9484 83.6635 79.7559 82.9397 81.2019 81.854C81.2019 81.4921 80.4789 81.4921 80.8404 81.1302C81.2019 81.1302 81.9249 81.854 82.2864 81.1302C81.9249 80.7683 81.2019 80.7683 80.8404 80.4064C81.5634 80.0445 82.2864 81.1302 83.0094 80.7683C83.0094 80.4064 82.2864 80.4064 81.9249 80.4064C81.5634 80.0445 81.2019 79.6825 80.4789 80.0445C79.3944 79.6825 78.3099 79.3206 77.2254 78.5968C76.8639 78.5968 76.5023 78.2349 76.1408 77.873C76.8639 77.873 77.5869 78.2349 78.3099 78.5968C79.0329 78.9587 80.1174 79.3206 81.2019 79.3206C81.9249 79.6826 82.6479 80.0445 83.3709 80.0445C83.7324 80.0445 84.0939 80.4064 84.0939 80.0445C83.7324 79.6825 83.3709 79.6826 82.6479 79.3206C82.2864 78.9587 81.5634 78.9587 81.5634 78.5968C82.2864 78.5968 83.3709 79.6825 84.4554 79.6825C84.8169 79.6825 85.1784 79.6826 85.1784 79.3206C82.2864 78.5968 79.3944 77.1492 76.5023 76.0635C77.2253 76.4254 77.9484 76.7873 78.6714 77.1492C79.3944 77.5111 80.1174 77.873 80.4789 77.873C80.8404 77.873 81.2019 77.873 81.2019 78.2349C80.4789 78.2349 79.7559 77.873 78.6714 77.5111C77.9484 77.1492 77.2254 76.7873 76.1408 76.4254C76.1408 76.4254 76.1409 76.7873 75.7793 76.7873C74.3333 76.4254 72.8873 75.7016 71.4413 75.3397C71.0798 75.3397 70.3568 74.9778 70.3568 74.6159C72.1643 75.3397 73.6103 76.0635 75.7793 76.4254C75.4178 76.0635 75.0563 76.0635 74.6948 75.7016C73.9718 75.3397 73.2488 74.9778 72.5258 74.6159C71.8028 74.2539 71.0798 73.892 70.3568 73.5301C70.7183 73.5301 71.0798 73.892 71.8028 73.892C73.2488 74.6159 74.3333 74.9778 75.7793 75.7016C75.7793 75.7016 75.7793 75.3397 76.1408 75.3397C78.3099 76.0635 80.8404 77.1492 83.0094 78.2349C84.0939 78.5968 85.1784 79.3206 85.9014 78.2349C84.8169 77.873 83.0094 77.1492 81.9249 76.7873C81.5634 76.7873 81.2019 76.7873 81.2019 76.4254C82.6479 76.7873 84.4554 77.5111 85.9014 77.873C86.2629 77.873 86.6244 78.2349 86.9859 77.873C86.9859 77.5111 86.2629 77.873 86.2629 77.5111C86.6244 77.1492 86.9859 77.873 87.3474 77.873C87.7089 77.873 88.0704 77.5111 88.4319 77.1492C88.0704 76.7873 87.3474 76.7873 86.9859 76.7873C86.6244 76.7873 86.9859 77.1492 86.6244 77.1492C84.8169 76.7873 83.0094 76.0635 81.5634 75.3397C81.2019 74.9778 80.4789 74.9778 80.1174 74.6159C81.2019 74.6159 81.9249 75.3397 83.0094 75.7016C84.0939 76.0635 85.1784 76.4254 86.2629 76.7873C86.9859 76.4254 87.7089 77.1492 88.7934 77.1492C88.7934 76.4254 88.0704 76.4254 87.7089 76.4254C86.9859 76.0635 86.2629 76.0635 85.9014 75.7016C85.5399 75.7016 85.1784 75.7016 84.8169 75.3397C84.0939 74.9778 83.0094 74.9778 82.2864 74.6159C81.5634 74.2539 80.4789 74.254 80.1174 73.5301C80.4789 73.5301 80.8404 73.892 81.2019 73.892C82.6479 74.254 84.0939 74.6159 85.5399 74.9778C86.2629 75.3397 87.3474 75.7016 88.7934 76.0635C88.7934 75.7016 88.7934 75.3397 88.7934 75.3397C88.0704 74.9778 86.9859 74.9778 86.6244 74.2539C87.3474 74.2539 88.0704 74.9778 88.7934 74.9778V74.6159C88.4319 73.1682 87.7089 73.1682 86.9859 72.8063C86.6244 72.8063 85.9014 72.4444 85.9014 72.0825C86.9859 72.0825 87.7089 72.8063 89.1549 72.8063C89.5164 71.3587 86.6244 72.0825 86.2629 70.9968C87.3474 70.9968 88.0704 71.3587 89.1549 71.7206C89.1549 71.7206 89.1549 71.3587 89.1549 70.9968C88.7934 70.6349 88.0704 70.6349 87.3474 70.273C86.6244 69.9111 85.9014 69.9111 85.9014 69.5492C86.9859 69.5492 88.0704 70.273 89.1549 70.6349C89.1549 70.6349 89.1549 70.273 89.1549 69.9111C88.0704 69.5492 86.6244 69.1873 85.5399 68.8253C84.8169 69.1873 83.7324 68.4634 82.6479 68.4634C81.9249 68.4634 81.5634 68.4634 81.2019 68.1015C81.9249 68.4634 83.0094 69.1873 84.0939 69.5492C84.4554 69.5492 84.8169 69.5492 84.8169 69.9111C84.0939 70.273 83.3709 69.5492 82.6479 69.1873ZM64.9343 69.9111C66.0188 70.273 66.7418 70.6349 67.8263 70.9968C68.1878 70.9968 68.9108 70.9968 68.9108 71.7206C67.1033 71.3587 65.6573 70.273 63.8498 69.9111C63.8498 70.6349 64.5728 70.6349 64.9343 70.6349C66.3803 71.3587 67.8263 72.0825 69.2723 72.4444C68.9108 71.7206 68.9108 70.9968 68.5493 70.6349C68.1878 70.273 67.8263 69.9111 67.1033 69.9111C66.0188 69.5492 64.5728 68.8254 63.4883 68.4634C63.4883 69.5492 64.2113 69.9111 64.9343 69.9111ZM65.2958 84.3873C66.3803 85.1111 67.8263 85.1111 68.5493 86.1969C67.4648 86.1969 66.7418 85.1111 65.6573 85.1111C65.6573 85.835 66.7418 85.835 67.4648 86.1969C67.8263 86.1969 68.5493 86.5588 68.5493 86.9207C67.4648 86.9207 66.7418 85.835 65.6573 85.835V86.1969H66.0188C66.3803 86.5588 67.4648 86.5588 67.8263 87.2826C67.1033 87.6445 66.3803 86.5588 65.6573 86.5588V86.9207C66.0188 86.9207 67.1033 87.2826 66.7418 87.6445C66.3803 87.6445 66.0188 87.2826 65.6573 87.2826C65.6573 87.6445 65.6573 88.0064 65.6573 88.3683C66.3803 88.3683 67.1033 87.6445 67.8263 87.2826C68.5493 86.9207 69.2723 86.5588 69.9953 86.1969C68.1878 85.4731 66.7418 84.7492 64.9343 84.0254C65.2958 84.3873 65.2958 84.3873 65.2958 84.3873Z" fill="#034166"/>
</g>
<defs>
<filter id="filter0_d_51_1545" x="0" y="0" width="128" height="128" filterUnits="userSpaceOnUse" color-interpolation-filters="sRGB">
<feFlood flood-opacity="0" result="BackgroundImageFix"/>
<feColorMatrix in="SourceAlpha" type="matrix" values="0 0 0 0 0 0 0 0 0 0 0 0 0 0 0 0 0 0 127 0" result="hardAlpha"/>
<feOffset dx="2" dy="4"/>
<feGaussianBlur stdDeviation="2"/>
<feComposite in2="hardAlpha" operator="out"/>
<feColorMatrix type="matrix" values="0 0 0 0 0 0 0 0 0 0 0 0 0 0 0 0 0 0 0.25 0"/>
<feBlend mode="normal" in2="BackgroundImageFix" result="effect1_dropShadow_51_1545"/>
<feBlend mode="normal" in="SourceGraphic" in2="effect1_dropShadow_51_1545" result="shape"/>
</filter>
</defs>
</svg>
