<svg width="120" height="84" viewBox="0 0 120 84" fill="none" xmlns="http://www.w3.org/2000/svg">
<g filter="url(#filter0_d_45_1008)">
<path d="M26.9 76C12.9 76 4 63.3 4 37.8C4 12.3 12.9 0 26.9 0C40.8 0 49.7 12.4 49.7 37.8C49.7 63.3 40.8 76 26.9 76ZM26.9 68.7C35.2 68.7 40.8 59.4 40.8 37.8C40.8 16.4 35.2 7.4 26.9 7.4C18.5 7.4 12.9 16.4 12.9 37.8C12.9 59.4 18.5 68.7 26.9 68.7ZM84.3688 74.7C85.5688 46.9 90.6688 29.2 104.969 9.2H69.4688V1.4H115.369V6.9C98.1688 29 94.9688 46 93.8688 74.7H84.3688Z" fill="white"/>
</g>
<defs>
<filter id="filter0_d_45_1008" x="0" y="0" width="119.369" height="84" filterUnits="userSpaceOnUse" color-interpolation-filters="sRGB">
<feFlood flood-opacity="0" result="BackgroundImageFix"/>
<feColorMatrix in="SourceAlpha" type="matrix" values="0 0 0 0 0 0 0 0 0 0 0 0 0 0 0 0 0 0 127 0" result="hardAlpha"/>
<feOffset dy="4"/>
<feGaussianBlur stdDeviation="2"/>
<feComposite in2="hardAlpha" operator="out"/>
<feColorMatrix type="matrix" values="0 0 0 0 0 0 0 0 0 0 0 0 0 0 0 0 0 0 0.25 0"/>
<feBlend mode="normal" in2="BackgroundImageFix" result="effect1_dropShadow_45_1008"/>
<feBlend mode="normal" in="SourceGraphic" in2="effect1_dropShadow_45_1008" result="shape"/>
</filter>
</defs>
</svg>
