<svg width="128" height="128" viewBox="0 0 128 128" fill="none" xmlns="http://www.w3.org/2000/svg">
<g filter="url(#filter0_d_51_1619)">
<circle cx="62" cy="60" r="60" fill="white"/>
</g>
<g opacity="0.8">
<path fill-rule="evenodd" clip-rule="evenodd" d="M73.6452 72.9873C75.4441 74.0678 76.5234 75.1483 77.9624 76.2288C78.3222 76.589 79.0418 76.9492 79.4015 77.3093C78.682 77.3093 78.3222 76.9492 77.9624 76.589C76.8831 75.8687 76.1636 75.1483 75.4441 74.428C74.3648 74.0678 74.005 73.7076 73.6452 72.9873Z" fill="#034166"/>
<path fill-rule="evenodd" clip-rule="evenodd" d="M79.0421 76.2289C78.3226 75.8687 77.603 75.5085 77.2433 74.7882C76.5237 74.428 76.164 74.0679 75.8042 73.3475C76.5237 73.7077 76.8835 74.0679 77.603 74.7882C78.3226 75.1484 79.0421 75.5085 79.0421 76.2289Z" fill="#034166"/>
<path fill-rule="evenodd" clip-rule="evenodd" d="M78.3224 79.1101C77.6029 78.7499 77.2431 78.3898 76.5236 78.0296C74.7247 76.5889 72.9259 75.1483 71.4868 74.0677C72.9259 74.7881 74.0052 75.8686 75.0845 76.9491C75.804 77.6694 76.8833 78.3898 77.6029 79.1101C77.6029 78.7499 78.3224 78.7499 78.3224 79.1101Z" fill="#034166"/>
<path fill-rule="evenodd" clip-rule="evenodd" d="M55.2975 76.2289C55.2975 76.5891 54.9377 76.9492 54.578 76.9492C52.7791 78.3899 50.9803 79.8306 49.1814 81.2713C48.8217 81.6314 48.8217 81.9916 48.4619 81.9916C48.4619 81.2713 49.5412 80.9111 49.901 80.5509C50.9803 79.1102 53.1389 77.6696 55.2975 76.2289C54.9377 76.2289 54.9377 76.2289 55.2975 76.2289Z" fill="#034166"/>
<path fill-rule="evenodd" clip-rule="evenodd" d="M78.6824 81.9914C78.3226 81.9914 77.9628 81.6312 77.9628 81.6312C76.164 80.1906 74.0054 78.7499 72.2065 77.3092C74.0054 78.3897 75.4444 79.8304 77.2433 80.9109C77.6031 80.9109 78.3226 81.2711 78.6824 81.9914Z" fill="#034166"/>
<path fill-rule="evenodd" clip-rule="evenodd" d="M45.9432 77.6694C45.9432 78.0296 45.5834 78.3898 45.2237 78.7499C44.5041 79.4703 43.4248 80.5508 42.3455 81.2711H41.9858C40.9065 82.3516 39.8272 83.072 39.1076 84.5126C38.7479 84.8728 38.7479 85.233 38.0283 85.5932C38.0283 85.233 38.3881 84.5127 38.7479 84.1525C39.8272 83.072 40.9065 81.9915 41.626 80.911H41.9858C43.4248 79.8304 44.5041 78.7499 45.9432 77.6694C45.5834 77.6694 45.5834 77.6694 45.9432 77.6694Z" fill="#034166"/>
<path fill-rule="evenodd" clip-rule="evenodd" d="M64.2915 77.6694C65.011 78.0296 65.7306 78.3898 66.0903 79.1101C66.0903 79.1101 66.4501 79.4703 66.4501 79.8304C66.0903 79.8304 65.7306 79.4703 65.011 79.1101C65.011 78.7499 64.6513 78.3898 64.2915 77.6694C64.2915 78.0296 64.2915 78.0296 64.2915 77.6694Z" fill="#034166"/>
<path fill-rule="evenodd" clip-rule="evenodd" d="M58.5352 78.3898C59.2547 78.7499 59.9742 79.4703 60.334 79.8304C61.7731 81.2711 63.2121 82.3516 64.6512 83.4321C65.011 83.7923 65.3707 83.7923 65.3707 84.1525C64.6512 83.7923 63.9317 83.072 63.5719 82.7118C62.1328 81.6313 60.334 80.1906 58.5352 78.3898Z" fill="#034166"/>
<path fill-rule="evenodd" clip-rule="evenodd" d="M66.4499 83.072C65.7304 82.7118 65.3706 82.3516 64.6511 81.9915C63.5718 81.2711 62.4925 80.5508 61.4132 79.8304C61.0534 79.4703 59.9741 79.1101 59.9741 78.3898C61.773 79.8304 63.9316 80.911 65.7304 82.3516C66.0902 82.3516 66.8097 82.7118 66.4499 83.072Z" fill="#034166"/>
<path fill-rule="evenodd" clip-rule="evenodd" d="M67.1696 81.6313C66.8098 81.6313 66.45 81.2711 65.7305 80.911C65.0109 80.5508 64.2914 79.8304 63.2121 79.1101C62.8523 78.7499 62.4926 78.7499 62.1328 78.3898C62.8523 78.7499 63.5719 79.4703 64.6512 79.8304C65.7305 80.5508 66.45 80.911 67.1696 81.6313Z" fill="#034166"/>
<path fill-rule="evenodd" clip-rule="evenodd" d="M62.4925 86.3136C62.1327 85.9534 61.4132 85.5933 61.0534 85.2331C60.6937 84.8729 60.3339 84.5128 59.9741 84.1526C60.3339 84.5128 60.6937 84.8729 61.4132 85.2331C62.1327 85.2331 62.4925 85.5933 62.4925 86.3136Z" fill="#034166"/>
<path fill-rule="evenodd" clip-rule="evenodd" d="M82.9993 86.3135C81.92 85.9534 81.2005 85.233 80.481 84.5127C80.8407 84.8729 81.5603 85.233 81.92 85.233C82.2798 85.233 82.9993 85.5932 82.9993 86.3135Z" fill="#034166"/>
<path fill-rule="evenodd" clip-rule="evenodd" d="M62.8525 87.7542C62.4927 87.7542 62.1329 87.3941 61.7732 87.0339C60.6939 86.3135 59.9743 85.233 58.895 84.5127C59.6146 84.8729 59.9743 85.5932 60.6939 85.9534C61.0536 86.3135 61.4134 86.6737 61.7732 87.0339C62.4927 87.0339 62.8525 87.3941 62.8525 87.7542Z" fill="#034166"/>
<path fill-rule="evenodd" clip-rule="evenodd" d="M42.3456 84.5127C42.3456 84.8729 41.9859 85.233 41.6261 85.5932C40.9066 86.3136 40.187 87.0339 39.8273 87.7542C39.1077 88.1144 39.1077 88.8347 38.3882 88.8347C38.3882 88.4746 38.748 88.1144 39.1077 87.7542C40.187 86.6737 41.2663 85.5932 42.3456 84.5127Z" fill="#034166"/>
<path fill-rule="evenodd" clip-rule="evenodd" d="M42.7052 85.2332C42.7052 85.9535 41.9857 86.3137 41.2662 87.034C40.9064 87.3942 40.1869 88.1145 39.8271 88.4747C39.4673 88.8349 39.4673 89.195 39.1076 89.195C38.7478 88.8349 39.4673 88.4747 39.4673 88.1145C40.5466 87.3942 41.6259 86.3137 42.7052 85.2332Z" fill="#034166"/>
<path fill-rule="evenodd" clip-rule="evenodd" d="M43.0651 86.3136C43.0651 86.6738 43.0651 86.6738 42.7053 87.0339C41.9858 87.7543 41.2662 88.4746 40.5467 89.5551C40.1869 89.9153 40.1869 90.2755 39.8271 90.2755C39.8271 89.5551 40.5467 88.8348 41.2662 88.4746C41.626 87.3941 42.3455 86.6738 43.0651 86.3136Z" fill="#034166"/>
<path fill-rule="evenodd" clip-rule="evenodd" d="M44.5043 86.6737C44.5043 87.0339 44.1445 87.394 43.7848 87.7542C43.0652 88.4746 41.9859 89.5551 41.2664 90.2754C41.2664 90.6356 41.2664 90.6356 40.9066 90.6356H40.5469C40.5469 90.2754 40.9066 89.5551 41.2664 89.5551C41.9859 88.4746 43.425 87.394 44.5043 86.6737Z" fill="#034166"/>
<path fill-rule="evenodd" clip-rule="evenodd" d="M84.0787 89.1949C83.3592 89.1949 82.9994 88.4745 82.6397 88.1144C81.9201 87.7542 81.5604 87.394 80.8408 86.6737C81.5604 87.394 82.6397 87.7542 83.3592 88.4746C83.719 88.4746 84.0787 88.8347 84.0787 89.1949Z" fill="#034166"/>
<path fill-rule="evenodd" clip-rule="evenodd" d="M45.9434 86.6737C45.5836 87.394 45.2238 87.7542 44.5043 88.1144C44.1445 88.4745 43.425 89.1949 43.0652 89.5551C42.7055 89.9152 42.7055 90.2754 42.3457 90.6356C42.3457 89.9152 43.425 89.1949 43.7848 88.4746C44.5043 88.1144 45.2238 87.394 45.9434 86.6737Z" fill="#034166"/>
<path fill-rule="evenodd" clip-rule="evenodd" d="M80.1213 87.7543C81.2006 88.4746 82.2799 89.5551 83.3592 90.2755C83.719 90.6356 84.0788 90.6356 84.0788 91.356C83.719 91.356 83.3592 90.9958 82.9995 90.6356C81.9202 89.9153 80.8409 88.8348 80.1213 87.7543Z" fill="#034166"/>
<path fill-rule="evenodd" clip-rule="evenodd" d="M45.9436 88.1143C45.9436 88.4744 45.5838 88.8346 45.5838 88.8346C44.8643 89.5549 44.1447 90.2753 43.4252 90.6354C43.4252 90.9956 43.4252 91.3558 43.0654 91.3558C43.0654 90.6354 43.785 90.2753 44.1447 89.5549C44.8643 89.1948 45.224 88.4744 45.9436 88.1143Z" fill="#034166"/>
<path fill-rule="evenodd" clip-rule="evenodd" d="M67.1697 92.0763C66.81 92.4364 66.4502 92.4364 66.4502 92.0763C66.4502 92.7966 66.4502 93.5169 66.81 94.5975C66.81 94.9576 67.1697 95.678 66.4502 96.0381C65.7307 96.0381 65.7307 94.9576 65.7307 94.2373C65.7307 93.5169 65.3709 93.1568 65.3709 92.4364C65.3709 92.0763 65.0111 92.4364 64.6514 92.0763C64.6514 91.7161 64.6514 90.6356 64.6514 89.9152C64.6514 89.5551 65.3709 89.1949 65.7307 89.5551C66.0904 89.9152 66.0904 90.2754 66.4502 90.9958C66.81 91.3559 67.1697 91.7161 67.1697 92.0763Z" fill="#034166"/>
<path fill-rule="evenodd" clip-rule="evenodd" d="M83.7191 92.4364C82.9995 92.4364 82.28 91.7161 81.5605 90.9957C80.8409 90.6356 80.1214 89.9152 79.4019 89.5551C79.4019 89.5551 79.4018 89.5551 79.7616 89.5551C80.4812 89.9152 81.2007 90.6356 81.9202 90.9957C82.28 91.3559 82.9995 91.7161 83.7191 92.4364Z" fill="#034166"/>
<path fill-rule="evenodd" clip-rule="evenodd" d="M61.7731 92.0763C61.7731 92.7967 61.7731 94.2373 61.7731 94.9577C61.7731 95.3178 62.1328 96.3983 61.4133 96.0382C60.6938 95.678 61.0535 93.517 60.6938 92.4365C60.6938 92.4365 60.6938 93.1568 60.334 93.1568C59.2547 93.1568 60.6938 90.2755 60.6938 89.9153C61.4133 89.5551 61.7731 90.6356 62.4926 91.356C62.8524 91.7161 63.5719 92.7967 62.8524 92.7967C62.1328 92.7967 62.1328 92.0763 61.7731 92.0763Z" fill="#034166"/>
<path fill-rule="evenodd" clip-rule="evenodd" d="M55.6572 90.2754C55.2974 90.9957 54.9376 90.9957 54.2181 91.3559C53.1388 92.0762 52.0595 92.4364 51.3399 93.1567C50.9802 93.5169 50.2606 93.8771 49.9009 93.8771C49.9009 93.5169 50.6204 93.1567 51.3399 92.7966C51.6997 92.4364 52.4192 92.0762 52.779 91.7161C53.4986 91.7161 54.5779 90.9957 55.6572 90.2754Z" fill="#034166"/>
<path fill-rule="evenodd" clip-rule="evenodd" d="M81.5601 92.7966C80.8405 92.4364 80.121 92.4364 79.7612 91.7161C79.7612 91.7161 79.7612 91.7161 80.121 91.7161C80.4808 92.0762 81.5601 92.0762 81.5601 92.7966Z" fill="#034166"/>
<path fill-rule="evenodd" clip-rule="evenodd" d="M56.017 92.4365C56.017 92.7967 55.2975 93.1569 55.2975 93.1569C54.5779 93.517 53.8584 94.2374 53.1389 94.5975C52.7791 94.9577 52.4193 95.3179 52.0596 95.3179C52.0596 94.9577 52.4193 94.5975 52.7791 94.5975C53.1389 94.2374 53.4986 94.2374 53.8584 93.8772C54.2182 93.1569 55.2975 92.7967 56.017 92.4365Z" fill="#034166"/>
<path fill-rule="evenodd" clip-rule="evenodd" d="M78.3225 92.4365C78.6823 92.7967 79.4018 93.1569 79.7616 93.517C80.1213 93.517 80.1213 93.517 80.1213 93.8772C80.1213 94.2374 79.7616 93.8772 79.4018 93.8772C79.042 93.517 78.3225 93.1569 78.3225 92.4365C78.3225 92.7967 77.9627 92.7967 78.3225 92.4365Z" fill="#034166"/>
<path fill-rule="evenodd" clip-rule="evenodd" d="M56.7361 94.9575C56.3764 95.3177 56.0166 95.6779 55.6568 96.038C55.2971 96.3982 54.9373 97.1185 54.2178 96.7584C54.2178 96.3982 54.5775 96.3982 54.9373 96.3982C55.2971 95.6779 56.0166 95.3177 56.7361 94.9575Z" fill="#034166"/>
<path fill-rule="evenodd" clip-rule="evenodd" d="M56.3767 96.0381C56.0169 96.3983 55.6571 96.7584 55.2974 96.7584C55.2974 96.7584 56.0169 96.0381 56.3767 96.0381Z" fill="#034166"/>
<path fill-rule="evenodd" clip-rule="evenodd" d="M62.8524 15.7203C62.8524 17.5212 62.1329 19.6822 62.1329 21.4831C62.1329 22.5636 62.1329 23.6441 61.7731 24.3644C61.7731 25.4449 61.4133 26.5254 61.4133 27.2458C61.4133 27.6059 61.7731 27.9661 61.4133 28.3263C59.9743 28.3263 58.5352 28.6864 56.7363 28.6864C56.7363 30.4873 56.7363 32.6483 57.0961 34.8093C57.8157 34.8093 58.1754 34.8093 58.895 34.8093C60.334 34.8093 61.7731 35.5297 62.8524 35.8898C63.9317 36.6102 65.3708 38.411 65.3708 39.8517C65.7305 42.7331 64.2915 45.6144 62.4926 46.6949C61.7731 47.0551 61.0536 47.0551 60.334 47.4152C60.6938 48.1356 61.0536 48.4958 61.7731 48.8559C63.5719 50.2966 65.011 51.7373 66.4501 53.178C67.8891 54.9788 69.3282 56.4195 70.4075 58.2203C71.127 59.3008 71.4868 60.0212 72.5661 60.7415C72.9259 61.1017 73.2856 61.4619 73.6454 61.4619C74.3649 61.822 75.4442 62.1822 76.1638 62.9025C77.9626 63.6229 79.4017 64.7034 81.2005 65.7839C81.92 66.1441 83.3591 66.8644 83.7189 67.2246C84.0786 67.5847 84.0787 69.3856 84.4384 70.1059C85.158 72.2669 85.5177 74.0678 85.8775 76.2288C86.2373 77.3093 86.2373 78.3898 86.597 79.1102C86.9568 80.5508 86.597 81.6314 86.9568 83.072C86.9568 83.4322 86.9568 83.4322 86.9568 83.7924C86.9568 85.2331 86.9568 87.0339 86.9568 88.8347C86.9568 89.9152 87.3166 90.9958 87.6763 91.7161C87.6763 92.0763 87.6763 92.7966 87.6763 92.7966C87.3166 93.1568 86.9568 93.1568 86.2373 93.1568C85.158 93.5169 84.0787 93.8771 82.9994 93.8771C81.92 94.2373 80.8407 94.2373 80.1212 94.5975C77.9626 94.9576 76.1638 95.3178 73.6454 95.678C72.5661 96.0381 71.127 96.3983 70.0477 96.7585C67.5294 97.4788 65.011 97.839 62.4926 98.5593C62.1329 98.5593 61.4133 98.9195 60.6938 98.9195C59.9743 98.9195 59.2547 99.2797 58.895 99.2797C58.5352 99.2797 58.5352 98.5593 58.1754 98.5593C57.8157 98.1991 57.4559 98.1991 57.0961 97.839C56.0168 97.1186 54.5777 96.7585 53.4984 96.0381C52.0594 95.3178 50.2605 94.2373 48.8215 93.5169C47.0226 92.7966 45.5836 92.0763 43.7847 91.3559C43.0652 90.9958 42.3457 90.6356 41.2664 90.2754C40.5468 89.9153 39.8273 89.1949 39.1078 88.8347C38.748 88.8347 38.0285 88.8347 38.0285 88.4746C37.6687 88.1144 38.0285 87.3941 38.0285 86.6737C38.0285 86.3136 38.0285 85.9534 38.0285 85.5932C38.0285 83.7924 38.0285 81.9915 38.0285 80.1907C37.6687 77.6695 37.6687 75.5085 37.3089 72.9873C37.3089 71.9068 37.3089 70.8263 37.3089 69.7458C37.3089 69.0254 36.9492 68.3051 36.9492 67.5847C36.9492 66.1441 36.9492 65.0636 36.9492 63.6229C35.8699 64.3432 35.5101 64.3432 36.9492 63.983C37.6687 63.983 38.748 63.2627 39.8273 63.2627C40.9066 62.9025 41.9859 62.5424 42.7054 62.5424C43.0652 62.5424 43.425 62.5424 43.7847 62.5424C44.1445 62.5424 44.864 62.1822 45.5836 62.1822C45.9433 62.1822 46.6629 62.1822 47.3824 61.822C48.1019 61.822 48.4617 61.822 48.8215 61.4619C49.1812 61.1017 49.1812 60.3814 49.541 59.661C50.2605 57.8602 50.9801 56.0593 51.6996 54.2585C52.7789 52.0975 53.8582 49.9364 54.9375 47.7754C54.218 47.4152 53.1387 47.4153 52.4191 46.6949C52.0594 46.3347 51.6996 45.9746 51.3398 45.2542C50.9801 44.8941 50.2605 43.8136 50.9801 43.4534C51.6996 43.0932 51.6996 44.1737 52.0594 44.5339C52.7789 45.6144 54.218 45.9746 55.2973 46.3347C56.0168 45.9746 56.0168 45.2542 56.3766 45.2542C56.7363 45.2542 57.4559 45.2542 57.8156 45.6144C58.1754 45.9746 58.5352 46.3347 58.895 46.3347C59.2547 46.3347 59.9743 45.9746 60.334 45.6144C61.7731 44.8941 62.8524 43.4534 62.8524 41.2924C62.8524 38.411 59.9743 36.25 57.0961 35.8898C56.3766 35.8898 55.657 35.8898 55.2973 35.8898C54.9375 35.1695 55.2973 34.089 54.9375 33.0085C54.9375 31.5678 54.5777 30.1271 54.5777 29.0466C53.1387 28.6864 50.9801 29.0466 49.9008 28.6864C49.1812 25.0847 48.4617 20.0424 47.3824 16.4407C47.3824 16.0805 46.6629 15.3602 47.3824 15C52.4191 16.0805 57.8157 15.3602 62.8524 15.7203ZM57.4559 17.161C56.3766 17.8814 55.2973 18.6017 54.5777 19.322C55.2973 18.9619 56.0168 18.6017 56.7363 17.8814C57.4559 17.5212 58.1754 16.8008 58.895 16.0805C58.5352 16.4407 58.1754 16.8008 57.4559 17.161ZM58.5352 17.5212V17.8814C57.4559 18.6017 56.0168 18.9619 55.2973 20.0424C54.5777 20.4025 53.8582 20.7627 53.4984 21.4831C54.218 21.1229 54.9375 20.7627 55.2973 20.4025C56.7363 19.6822 57.8157 18.9619 59.2547 17.8814C59.9743 17.5212 60.334 17.161 60.6938 16.4407C59.6145 16.4407 59.2547 17.161 58.5352 17.5212ZM61.4133 16.4407C60.334 17.161 59.6145 18.2415 58.5352 18.9619C58.5352 19.322 58.5352 19.322 58.1754 19.322C57.4559 19.6822 56.3766 20.4025 55.657 20.7627C55.2973 20.7627 54.9375 21.1229 54.9375 21.4831C56.0168 21.1229 56.7363 20.4025 57.8156 20.0424C58.895 18.9619 59.9743 18.2415 60.6938 16.8008C61.0536 16.4407 61.4133 16.4407 61.7731 16.0805C61.7731 16.4407 61.7731 16.4407 61.4133 16.4407ZM48.8215 16.4407C48.8215 16.8008 49.1812 16.4407 49.541 16.4407C49.541 16.4407 49.1812 16.4407 48.8215 16.4407ZM50.2605 17.161C50.6203 17.161 50.9801 17.161 50.9801 16.8008C50.6203 16.4407 50.2605 16.8008 50.2605 17.161ZM48.4617 17.161C48.4617 16.8008 48.4617 16.4407 48.1019 16.4407C48.4617 16.8008 48.4617 17.161 48.4617 17.161ZM56.7363 16.8008V17.161C57.0961 17.161 57.4559 16.8008 57.4559 16.4407C57.0961 16.8008 57.0961 16.8008 56.7363 16.8008ZM52.0594 17.161C52.4191 17.161 52.4191 17.161 52.4191 16.8008C52.4191 16.4407 52.0594 16.8008 52.0594 17.161ZM53.1387 16.8008C53.4984 17.161 53.4984 17.161 53.4984 16.8008H53.1387ZM53.4984 17.8814C54.218 17.8814 54.9375 17.161 55.2973 16.8008C54.218 16.4407 53.4984 17.161 53.4984 17.8814ZM51.3398 17.5212H51.6996V17.161C51.6996 17.161 51.3398 17.161 51.3398 17.5212ZM55.2973 17.161C55.657 17.161 55.657 17.161 55.2973 17.161ZM49.1812 17.8814L49.541 17.5212C49.541 17.161 49.1812 17.5212 49.1812 17.8814ZM52.4191 17.5212C52.4191 17.5212 53.1387 17.161 52.7789 17.161C52.4191 17.5212 52.4191 17.5212 52.4191 17.5212ZM53.4984 18.6017C54.218 18.2415 54.5777 17.8814 55.2973 17.5212C54.5777 17.5212 53.8582 17.8814 53.4984 18.6017ZM61.0536 18.2415C61.4133 18.2415 61.4133 17.8814 61.4133 17.5212C61.4133 17.8814 61.0536 17.8814 61.0536 18.2415ZM54.9375 18.6017C55.2973 18.6017 55.657 18.2415 56.0168 17.8814C56.0168 17.8814 55.2973 18.2415 54.9375 18.6017ZM51.6996 18.2415C52.0594 18.2415 52.0594 17.8814 51.6996 18.2415C51.6996 17.8814 51.6996 17.8814 51.6996 18.2415ZM52.7789 18.2415C53.1387 18.2415 53.1387 18.2415 53.1387 17.8814C52.7789 17.8814 52.4191 17.8814 52.7789 18.2415ZM60.6938 18.2415C58.895 20.4025 56.3766 21.8432 54.218 23.6441C56.3766 22.5636 57.8156 21.1229 59.6145 19.6822C59.9743 19.6822 60.6938 19.322 60.6938 18.2415ZM52.0594 18.9619C52.0594 18.6017 51.6996 18.6017 52.0594 18.9619ZM49.1812 19.6822V19.322C48.8215 19.322 48.8215 19.6822 49.1812 19.6822ZM52.0594 20.0424C52.4191 20.0424 52.4191 20.0424 52.4191 19.6822C52.0594 19.6822 52.0594 20.0424 52.0594 20.0424ZM60.334 19.6822C59.6145 20.4025 58.1754 21.1229 57.4559 22.2034C56.3766 22.9237 55.2973 23.2839 54.9375 24.3644C55.657 24.3644 56.0168 24.0042 56.7363 23.6441C57.8156 22.9237 58.5352 22.2034 59.6145 21.4831C59.9743 21.1229 60.6938 20.4025 60.334 19.6822ZM49.1812 20.7627C49.541 20.7627 49.541 20.4025 49.1812 20.4025C49.1812 20.4025 49.1812 20.4025 49.1812 20.7627ZM59.9743 21.1229C58.5352 22.2034 57.4559 23.6441 56.0168 24.7246C56.7363 24.7246 57.0961 23.6441 57.8156 24.0042C58.895 23.2839 60.334 22.5636 59.9743 21.1229C60.334 21.1229 60.334 21.1229 59.9743 21.1229ZM56.7363 25.8051C57.4559 25.4449 58.1754 25.0847 58.5352 24.7246C59.2547 24.3644 59.9743 23.6441 59.9743 22.9237C58.895 24.0042 57.4559 24.7246 56.7363 25.8051ZM52.4191 23.2839C52.7789 23.2839 52.7789 23.2839 52.4191 23.2839C52.4191 22.9237 52.4191 22.9237 52.4191 23.2839ZM60.334 24.0042C60.6938 24.0042 60.6938 23.6441 61.0536 23.2839C60.6938 23.2839 60.334 23.6441 60.334 24.0042ZM59.6145 24.0042C58.895 25.0847 57.8156 25.4449 56.7363 26.5254C56.3766 26.8856 56.0168 27.2458 55.657 27.6059C55.2973 27.2458 54.5777 27.6059 54.218 27.9661C55.657 27.9661 56.7363 26.8856 57.8156 26.1653C58.1754 25.8051 58.5352 25.4449 58.895 25.0847C59.2547 25.0847 59.9743 24.7246 59.6145 24.0042ZM55.2973 25.8051C55.657 25.8051 55.657 25.4449 56.0168 25.8051C56.3766 25.4449 56.7363 25.4449 56.7363 24.7246C56.3766 25.0847 55.657 25.4449 55.2973 25.8051ZM59.9743 25.4449C60.334 25.8051 60.334 26.1653 60.334 26.5254C60.334 26.1653 60.334 25.8051 60.334 25.4449C60.334 25.0847 60.334 25.4449 59.9743 25.4449ZM51.3398 25.8051C51.3398 25.8051 51.6996 25.8051 51.6996 25.4449C51.3398 25.0847 51.3398 25.4449 51.3398 25.8051ZM58.895 26.1653C59.2547 26.1653 59.6145 25.8051 59.6145 25.4449C59.6145 25.8051 58.895 25.8051 58.895 26.1653ZM57.8156 27.9661C58.1754 27.9661 59.6145 28.3263 59.6145 27.6059C59.2547 27.6059 58.895 27.9661 58.895 27.6059C59.2547 26.8856 59.9743 26.5254 59.9743 25.8051C59.2547 26.5254 58.5352 27.2458 57.8156 27.9661ZM53.4984 26.8856C53.8582 26.8856 54.218 26.5254 54.218 26.1653C53.8582 26.1653 53.8582 26.5254 53.4984 26.8856ZM52.0594 26.8856C52.0594 26.8856 52.4191 26.8856 52.4191 26.5254L52.0594 26.8856ZM56.3766 28.3263C57.4559 28.3263 57.8156 27.6059 58.5352 26.8856C57.4559 27.2458 57.0961 27.9661 56.3766 28.3263ZM53.8582 27.6059C53.8582 27.6059 54.218 27.6059 54.218 27.2458C53.8582 27.2458 53.4984 27.2458 53.8582 27.6059ZM50.6203 27.9661C50.9801 27.9661 50.9801 27.6059 50.9801 27.6059C50.6203 27.2458 50.6203 27.6059 50.6203 27.9661ZM51.3398 28.3263C51.6996 28.3263 51.6996 28.3263 51.3398 28.3263C51.6996 27.9661 51.6996 27.9661 51.6996 27.9661C51.3398 27.6059 51.3398 27.9661 51.3398 28.3263ZM53.1387 28.3263C53.4984 28.3263 53.4984 27.9661 53.1387 28.3263ZM58.895 50.6568C58.5352 49.9364 58.1754 48.8559 57.4559 48.1356H56.7363C55.657 51.7373 54.9375 56.0593 54.218 60.3813C57.0961 60.0212 59.9743 58.9407 62.8524 58.2203C61.7731 55.339 60.334 52.8178 58.895 50.6568ZM63.9317 57.8602C64.2915 57.8602 64.2915 57.8602 64.6512 57.8602C66.4501 58.9407 68.2489 60.0212 70.4075 60.7415C68.9684 58.2203 67.1696 56.0593 65.3708 53.8983C63.5719 51.7373 61.4133 49.9364 59.2547 48.1356C60.334 51.3771 62.1329 54.6186 63.9317 57.8602ZM50.2605 61.1017C51.3398 61.1017 52.4191 60.7415 53.4984 60.3813C53.8582 56.7797 54.9375 53.5381 55.657 49.9364C53.4984 53.5381 51.3398 57.1398 50.2605 61.1017ZM64.2915 58.9407C65.011 60.0212 65.7305 61.4619 66.0903 62.9025C66.0903 63.2627 66.0903 63.983 66.8098 63.983C68.6087 63.6229 70.4075 62.9025 71.8466 62.5424C71.4868 62.1822 70.7673 61.822 70.0477 61.4619C68.2489 60.7415 66.0903 59.661 64.2915 58.9407C64.6512 58.5805 64.2915 58.5805 64.2915 58.9407ZM64.6512 61.4619C64.2915 60.7415 63.9317 58.9407 62.8524 58.9407C61.7731 59.3008 60.334 59.661 58.895 60.0212C57.4559 60.3813 56.3766 60.7415 54.9375 61.1017C55.2973 61.822 56.0168 61.822 56.3766 62.1822C57.4559 62.9025 58.5352 63.6229 59.6145 64.3432C59.9743 64.7034 60.6938 65.4237 61.0536 65.4237C61.7731 65.4237 62.4926 65.0636 63.2122 64.7034C63.9317 64.3432 64.6512 64.3432 65.3708 64.3432C65.3708 63.2627 65.011 62.5424 64.6512 61.4619ZM57.4559 63.983C56.7364 63.2627 55.657 62.9025 54.9375 62.5424C54.218 62.1822 53.8582 61.4619 53.1387 61.822C52.4191 62.1822 51.6996 62.1822 50.9801 62.5424C50.6203 62.5424 50.2605 62.5424 49.9008 62.5424C49.541 62.9025 49.1812 63.6229 49.1812 63.983C48.8215 64.7034 48.8215 65.4237 48.4617 65.7839C48.1019 66.8644 47.3824 68.3051 47.3824 69.3856C48.1019 69.3856 48.4617 69.0254 49.1812 69.0254C49.9008 68.6652 50.9801 68.6652 52.0594 68.3051C52.7789 67.9449 53.8582 67.5847 54.5777 67.2246C56.3766 66.8644 58.1754 66.1441 60.334 65.7839C59.2547 65.0636 58.5352 64.3432 57.4559 63.983ZM47.0226 62.9025C44.864 63.2627 42.7054 63.6229 40.9066 63.983C39.4675 64.3432 38.3882 64.3432 37.3089 65.0636C38.748 65.7839 39.8273 66.5042 41.2664 67.5847C42.7054 68.3051 43.7847 69.3856 45.2238 69.7458C46.3031 67.5847 47.0226 65.0636 48.1019 62.9025C47.7422 62.5424 47.3824 62.9025 47.0226 62.9025ZM79.7614 66.8644C79.4017 66.5042 78.6821 66.1441 78.3224 65.7839C77.2431 65.0636 76.1638 64.3432 75.0845 63.983C74.3649 63.6229 73.6454 63.2627 73.2856 63.2627C72.9259 63.2627 72.9259 63.2627 72.5661 63.6229C72.2063 63.6229 71.8466 63.6229 71.4868 63.6229C70.0477 63.983 68.2489 64.7034 66.8098 65.0636C67.1696 65.7839 67.1696 66.5042 67.5294 67.5847C67.8891 68.3051 67.8891 69.3856 68.6087 69.7458C68.9684 70.1059 69.3282 70.1059 69.688 70.4661C70.0477 70.8263 70.0477 71.1864 70.4075 71.1864C70.7673 71.1864 71.4868 71.1864 71.8466 70.8263C73.2856 70.4661 75.0845 70.1059 76.1638 69.7458C77.2431 69.3856 78.3224 69.3856 79.0419 69.0254C80.1212 68.6652 80.8407 68.3051 81.5603 67.9449C81.5603 67.2246 80.481 67.2246 79.7614 66.8644ZM66.0903 65.0636C64.6512 65.4237 63.2122 65.4237 62.4926 66.1441C63.9317 67.2246 66.0903 67.5847 67.5294 68.6653C66.8098 67.5847 66.4501 66.1441 66.0903 65.0636ZM36.9492 66.5042C37.3089 66.5042 37.3089 66.1441 37.6687 65.7839C37.6687 65.4237 37.3089 65.4237 36.9492 65.4237C36.5894 65.7839 36.5894 66.5042 36.9492 66.5042ZM36.9492 67.2246C36.9492 67.9449 36.9492 68.3051 36.9492 69.0254C36.9492 69.0254 37.3089 69.0254 37.3089 69.3856C37.3089 69.7458 36.9492 69.7458 36.9492 70.1059C37.3089 69.7458 37.6687 69.0254 38.0285 68.6653C38.3882 68.3051 38.748 67.5847 39.4675 67.2246C38.748 68.6652 37.6687 69.3856 36.9492 70.8263C37.6687 70.4661 38.0285 69.7458 38.3882 69.0254C39.1078 68.6652 39.4675 67.9449 39.8273 67.5847C39.4675 67.2246 38.748 66.5042 38.3882 66.8644C37.6687 66.8644 38.0285 67.9449 37.3089 68.3051C37.3089 67.5847 38.0285 67.2246 38.0285 66.5042C37.3089 66.5042 37.3089 66.8644 36.9492 67.2246ZM66.0903 69.3856C64.6512 68.6652 63.5719 68.3051 62.4926 67.5847C61.7731 67.2246 61.0536 66.5042 60.334 66.5042C59.2547 66.8644 58.1754 66.8644 57.0961 67.2246C55.2973 67.5847 53.8582 67.9449 52.0594 68.6653C50.2605 69.3856 48.4617 69.7458 47.0226 70.1059C48.4617 71.1864 49.9008 71.5466 51.3398 72.2669C52.0594 72.6271 52.4191 72.9873 53.4984 73.3475C54.218 73.7076 55.2973 74.428 55.657 74.428C56.0168 74.428 56.3766 74.0678 56.7363 74.0678C59.6145 73.3475 62.8524 72.6271 65.7305 71.9068C66.8098 71.5466 67.8891 71.5466 68.6087 71.1864C68.2489 70.1059 67.1696 69.7458 66.0903 69.3856ZM39.4675 68.6653C39.1078 69.0254 39.1078 69.3856 38.748 69.7458C38.0285 70.8263 36.9492 71.1864 37.3089 72.9873C38.0285 72.6271 38.0285 72.2669 38.3882 71.9068C39.1078 71.1864 39.8273 70.4661 40.1871 69.3856C40.1871 69.0254 40.5468 68.6653 40.9066 68.6653C40.1871 70.8263 38.3882 71.9068 37.6687 73.7076C37.6687 74.7881 37.6687 75.8686 38.0285 76.9491C38.3882 76.589 38.748 76.2288 39.1078 75.8686C40.1871 74.7881 40.9066 73.3475 41.9859 72.2669C42.7054 71.5466 44.1445 70.8263 44.864 69.7458C44.1445 69.0254 43.7847 70.1059 43.425 70.4661C43.0652 70.8263 42.7054 71.1864 42.3457 71.1864C42.7054 70.4661 43.7847 70.1059 44.1445 69.0254C42.7054 69.0254 42.7054 69.0254 42.3457 68.6653C41.9859 69.0254 41.6261 69.7458 41.2664 70.1059C40.5468 71.5466 39.4675 72.9873 38.748 74.428C38.3882 74.7881 38.3882 75.5085 37.6687 75.8686C38.0285 74.7881 38.3882 74.0678 39.1078 73.3475C39.4675 72.6271 40.1871 71.9068 40.5468 70.8263C40.5468 69.7458 41.6261 69.0254 41.9859 68.6653C41.2664 68.3051 40.9066 67.9449 40.1871 67.5847C40.1871 67.9449 39.8273 68.3051 39.4675 68.6653ZM85.5177 89.9152C85.1579 86.6737 85.5177 82.7119 85.1579 79.8305C84.7982 77.6695 84.4384 75.1483 83.7189 73.3475C83.3591 72.2669 82.9994 71.1864 82.9994 70.1059C82.9994 69.7458 82.9993 68.6652 82.6396 69.0254C81.92 69.3856 81.2005 69.3856 80.481 69.7458C77.6028 70.8263 74.0052 71.5466 70.4075 72.2669C70.7673 74.428 70.7673 76.589 71.4868 78.3898C71.4868 78.75 72.2063 79.4703 72.9259 79.8305C74.0052 80.5508 74.7247 81.2712 75.804 81.9915C76.1638 82.3517 76.8833 82.7119 77.2431 83.072C76.5235 83.072 76.1638 82.3517 75.804 82.3517C75.0845 81.6314 74.0052 80.911 73.2856 80.5508C72.9259 80.1907 72.5661 79.8305 71.8466 79.4703C71.8466 79.8305 71.8466 80.911 72.2063 81.2712C72.5661 81.6314 73.2856 82.3517 74.0052 82.7119C75.4442 84.1525 76.8833 85.233 78.3224 86.6737C78.6821 87.0339 79.0419 87.0339 79.0419 87.7542C77.9626 87.0339 76.8833 85.9534 75.804 84.8729C74.7247 83.7924 73.6454 82.7119 72.5661 81.9915C72.5661 83.4322 73.2856 84.1525 74.0052 84.8729C75.4442 85.9534 76.5235 86.6737 77.6028 87.7542C77.9626 88.1144 78.3224 88.1144 77.9626 88.4746C76.8833 87.7542 76.1638 87.0339 75.4442 86.3136C74.7247 85.5932 73.6454 84.8729 72.9259 84.1525C72.5661 86.3136 74.0052 86.6737 75.0845 87.7542C75.4442 88.1144 75.804 88.4746 75.804 88.4746C76.1638 88.8347 76.5235 89.1949 76.5235 89.5551C75.0845 88.8347 74.3649 87.3941 73.2856 86.6737C74.0052 89.5551 74.0052 92.4364 74.3649 95.678C78.6821 95.3178 82.6396 93.8771 86.597 92.7966C85.8775 92.0763 85.5177 90.9958 85.5177 89.9152ZM39.4675 82.3517C39.1078 83.072 37.6687 84.1525 37.6687 84.8729C37.6687 85.233 38.0285 85.9534 37.6687 86.3136C38.748 85.5932 39.4675 84.5127 40.1871 83.7924C40.5468 83.4322 40.9066 83.072 41.2664 83.072C40.5468 84.1525 39.4675 85.233 38.3882 86.3136C38.0285 86.6737 37.6687 87.0339 37.6687 87.7542C38.0285 87.7542 38.3882 87.0339 38.748 86.6737C39.4675 85.9534 40.1871 84.8729 40.9066 84.1525C41.2664 83.7924 41.6261 83.072 41.9859 83.072C41.2664 84.1525 39.8273 85.5932 38.748 86.6737C38.0285 87.3941 36.9492 88.1144 37.6687 89.1949C39.4675 89.9153 40.9066 90.9958 42.7054 91.7161C43.7847 91.3559 44.864 89.5551 45.5836 88.8347C45.9433 88.4746 46.6629 88.1144 45.9433 87.3941C46.3031 86.6737 45.9433 85.5932 45.9433 84.8729C45.2238 85.233 45.2238 85.9534 44.1445 85.9534C44.5043 84.8729 45.9433 84.8729 45.9433 83.4322C44.864 83.7924 44.5043 84.8729 43.425 85.5932C43.0652 85.2331 43.425 84.8729 43.7847 84.8729C44.1445 84.5127 44.1445 84.5127 44.5043 84.1525C45.2238 83.4322 45.9433 83.072 45.5836 81.9915C44.864 82.7119 43.7847 83.4322 43.0652 84.1525C42.7054 84.5127 42.7054 84.8729 42.3457 84.8729C42.3457 84.5127 42.7054 84.1525 43.0652 83.7924C43.7847 83.072 44.864 82.3517 45.5836 81.2712C45.5836 80.911 45.5836 80.5508 45.5836 80.1907C44.5043 80.911 43.7847 81.6314 43.0652 82.3517C42.7054 82.7119 42.7054 83.072 41.9859 83.072C42.3457 82.3517 43.0652 81.9915 43.425 81.2712C44.1445 80.5508 45.5836 79.8305 45.2238 78.75C44.1445 79.4703 43.0652 80.5508 41.9859 81.2712C43.0652 81.9915 42.7054 82.7119 42.3457 82.3517C43.425 80.911 45.2238 80.1907 46.3031 78.75C46.3031 77.6695 46.3031 76.589 45.9433 75.5085C45.2238 75.8686 44.5043 76.589 44.1445 76.9491C43.7847 77.3093 43.425 77.3093 43.0652 77.6695C42.7054 78.0297 42.7054 78.3898 41.9859 78.3898C42.7054 77.6695 43.425 76.9491 44.1445 76.589C44.864 75.8686 45.9433 75.5085 45.5836 74.428C44.5043 75.1483 43.7847 75.8686 43.0652 76.589C42.7054 76.9491 42.7054 77.3093 41.9859 76.9491C41.9859 76.589 42.3457 76.2288 42.7054 76.2288C43.425 75.5085 43.7847 75.1483 44.5043 74.7881C44.864 74.428 45.5836 74.0678 45.2238 73.3475C43.7847 74.0678 43.0652 75.1483 41.9859 76.2288H41.6261C40.5468 77.6695 39.1078 79.4703 38.3882 80.911C38.3882 81.2712 38.0285 81.6314 37.6687 81.2712C39.1078 78.75 40.9066 76.9491 41.9859 75.1483H42.3457C42.7054 74.7881 43.0652 74.428 43.7847 73.7076C44.5043 73.3474 45.5836 72.6271 45.2238 71.5466C43.7847 72.6271 42.3457 74.0678 41.2664 74.7881C40.9066 74.7881 41.2664 74.428 41.2664 74.428C40.1871 75.8686 39.1078 77.3093 38.3882 78.75C38.3882 78.75 38.0285 79.4703 37.6687 79.1102C37.6687 78.75 38.0285 78.0297 38.3882 77.6695C39.1078 76.9492 39.8273 75.8686 40.5468 75.1483C40.9066 74.7881 40.9066 74.0678 41.6261 74.0678C41.9859 74.428 41.6261 74.428 41.6261 74.428C42.7054 73.3475 44.1445 72.6271 45.2238 71.1864H45.5836C45.5836 70.8263 45.5836 70.8263 45.5836 70.8263C45.2238 70.8263 44.864 71.1864 44.5043 71.5466C44.1445 71.9068 43.7847 71.9068 43.7847 72.2669C43.0652 72.6271 42.7054 73.7076 41.9859 73.7076C42.3457 72.9873 43.0652 72.6271 43.425 72.2669C44.1445 71.9068 44.5043 71.1864 45.2238 70.8263C45.2238 70.4661 44.864 70.4661 44.5043 70.4661C43.425 70.8263 42.7054 71.5466 41.6261 72.2669C40.9066 73.7076 39.4675 75.1483 38.3882 76.589C38.0285 76.9491 37.6687 77.6695 37.6687 78.0297C37.3089 79.4703 38.0285 80.5508 38.0285 81.9915C39.1078 80.911 40.1871 79.4703 41.2664 78.3898C41.6261 78.0296 41.9859 77.3093 42.3457 77.3093C42.3457 78.0297 41.9859 78.3898 41.6261 78.75C40.9066 79.4703 40.1871 80.5508 39.4675 81.2712C38.748 81.9915 38.0285 82.7119 38.0285 83.7924C39.4675 82.3517 40.5468 80.5508 41.9859 79.4703C42.3457 79.4703 42.3457 79.8305 42.3457 79.8305C43.0652 79.1102 44.1445 78.0297 45.2238 77.3093C45.5836 76.9491 45.5836 76.589 46.3031 76.589C46.3031 76.9491 45.9433 77.3093 45.5836 77.6695C45.2238 78.0297 44.864 78.3898 44.5043 78.75C43.7847 79.4703 43.0652 80.1907 42.3457 80.5508C41.9859 80.1907 42.7054 80.1907 42.3457 80.1907C40.9066 80.5508 40.1871 81.2712 39.4675 82.3517ZM46.6629 71.9068C46.6629 71.5466 47.0226 71.5466 47.0226 71.1864C46.6629 71.1864 46.6629 70.8263 46.3031 70.8263C46.6629 71.1864 46.3031 71.9068 46.6629 71.9068ZM46.6629 73.3475C47.3824 72.9873 47.7422 72.6271 48.1019 71.9068C47.7422 71.1864 46.6629 72.6271 46.6629 73.3475ZM48.4617 72.2669C47.7422 72.9873 47.3824 73.3474 46.6629 73.7076V74.0678C47.7422 73.7076 48.4617 72.9873 48.4617 72.2669C48.8215 72.2669 48.8215 72.2669 48.4617 72.2669ZM63.9317 73.3475C62.4926 73.7076 61.4133 73.7076 59.9743 74.0678C58.895 74.428 57.4559 74.428 56.3766 75.1483C56.3766 76.2288 56.7363 78.0297 56.7363 79.1102C56.7363 79.4703 56.7363 79.1102 57.0961 79.1102C58.895 80.911 61.7731 82.7119 63.5719 84.5127C63.9317 84.8729 64.2915 84.8729 64.2915 85.5932C62.8524 84.8729 61.7731 83.7924 60.334 82.7119C59.6145 82.3517 58.895 81.6314 58.5352 81.2712C57.8156 80.911 57.4559 80.1907 56.7363 79.8305C57.0961 85.233 57.8157 91.3559 58.1754 96.7585C58.1754 97.839 58.1754 98.9195 58.5352 100C61.4133 99.2797 64.6512 98.5593 67.5294 97.839C69.3282 97.4788 71.127 96.7585 72.5661 96.3983C72.5661 93.8771 72.2063 91.7161 72.2063 89.5551H71.8466C71.4868 89.1949 71.127 88.8347 70.7673 88.4746C70.4075 88.1144 69.688 87.7542 70.0477 87.3941C71.127 87.7542 71.4868 89.1949 72.2063 89.5551C72.2063 88.4746 71.8466 87.0339 71.4868 85.9534C71.4868 85.233 71.4868 84.5127 71.127 84.1525C71.127 83.7924 70.4075 83.7924 70.4075 83.072H70.7673C71.127 81.2712 69.3282 81.2712 68.9684 79.8305C69.688 79.8305 70.0477 80.911 70.4075 80.911C70.4075 79.8305 70.0477 79.4703 70.0477 78.75C69.688 78.3898 68.9684 78.0297 69.3282 77.6695C69.688 77.6695 69.688 78.0297 70.0477 78.0297C69.688 76.589 69.3282 75.1483 69.3282 73.3475C67.5294 72.6271 65.7305 72.9873 63.9317 73.3475ZM49.1812 72.6271C48.8215 72.6271 48.8215 72.9873 48.4617 73.3475C47.7422 74.0678 46.3031 74.428 46.6629 75.5085C47.7422 74.7881 48.4617 74.0678 49.541 72.9873C49.541 72.9873 49.541 72.9873 49.9008 73.3475C49.541 73.7076 48.8215 74.0678 48.4617 74.7881C47.7422 75.1483 46.6629 75.8686 47.0226 76.9491C47.7422 76.589 48.4617 75.8686 49.1812 75.5085C49.9008 74.7881 50.6203 74.428 51.3398 73.7076C50.6203 73.3474 49.9008 72.2669 49.1812 72.6271ZM51.3398 73.7076C49.9008 74.7881 48.1019 76.2288 47.0226 77.3093C47.0226 77.3093 47.0226 77.6695 47.0226 78.0297C47.3824 78.0297 47.7422 77.3093 48.1019 76.9491C49.1812 75.8686 50.6203 75.1483 51.6996 74.0678C51.6996 73.7076 51.6996 73.7076 51.3398 73.7076ZM52.0594 74.0678C51.6996 74.428 51.3398 74.7881 50.6203 75.1483C49.541 75.8686 49.1812 76.589 48.1019 77.3093C47.7422 77.6695 46.6629 78.3898 47.0226 79.1102C48.4617 78.0297 49.9008 76.589 51.6996 75.5085C52.4191 75.1483 52.7789 75.1483 53.1387 74.428C52.7789 74.428 52.7789 74.0678 52.0594 74.0678ZM49.541 83.4322C51.3398 81.9915 52.7789 80.911 54.5777 79.8305C54.9375 79.4703 55.657 79.4703 55.657 79.1102C55.657 78.75 55.657 78.0297 55.657 77.6695C55.657 76.9492 55.657 76.2288 55.2973 75.5085C55.2973 75.5085 53.8582 74.428 53.4984 74.7881C52.7789 75.1483 52.4191 75.5085 51.6996 75.8686C50.6203 76.589 49.541 77.6695 48.4617 78.3898C47.7422 79.1102 46.6629 79.4703 47.0226 80.5508C48.8215 79.1102 50.9801 77.3093 53.1387 75.8686C53.4984 75.5085 53.8582 75.5085 54.218 75.5085C54.218 75.8686 53.8582 76.2288 53.4984 76.2288C51.3398 77.6695 49.1812 79.1102 47.3824 81.2712C47.3824 81.9915 47.3824 82.7119 47.3824 83.4322C49.1812 82.3517 50.6203 80.911 52.7789 79.4703C52.7789 79.4703 52.7789 79.1102 53.1387 79.1102C53.8582 78.75 54.5777 78.0297 55.2973 77.6695C55.2973 78.3898 54.218 78.75 53.8582 79.1102C53.1387 80.1907 51.6996 80.911 50.6203 81.6313C49.9008 81.9915 49.541 82.3517 49.1812 82.7119C48.8215 83.072 48.1019 83.4322 47.7422 83.7924C47.3824 84.5127 47.7422 85.5932 47.7422 86.3136C49.9008 84.8729 52.0594 83.4322 53.8582 81.9915C54.5777 81.6314 55.2973 80.911 56.0168 80.5508C56.0168 80.1907 56.0168 79.8305 56.0168 79.4703C53.8582 80.911 51.3398 82.7119 49.1812 84.5127C48.8215 84.8729 48.8215 85.233 48.1019 85.233C48.1019 84.5127 48.8215 83.7924 49.541 83.4322ZM51.3398 84.1525C50.6203 84.8729 49.9008 85.233 49.1812 85.9534C48.4617 86.3136 47.3824 87.0339 47.7422 87.7542C49.9008 86.3136 52.4191 84.5127 54.5777 83.072C54.9375 82.7119 55.2973 82.7119 55.657 82.7119C55.657 83.072 54.9375 83.4322 54.9375 83.4322C52.7789 84.8729 50.9801 86.3136 48.8215 87.7542C48.1019 88.1144 47.7422 88.4746 47.7422 89.1949C49.9008 87.3941 52.4191 85.5932 54.9375 84.1525C55.2973 84.1525 55.657 83.4322 56.0168 83.7924C56.0168 84.1525 55.2973 84.5127 54.9375 84.5127C52.4191 85.9534 49.9008 87.7542 47.7422 89.5551C47.7422 89.9153 47.7422 90.2754 47.7422 90.2754C49.1812 89.1949 50.9801 87.7542 52.4191 86.6737C52.7789 86.3136 53.4984 85.5932 54.218 85.9534C53.8582 86.3136 53.1387 86.6737 52.4191 87.0339C51.3398 87.7542 50.2605 88.4746 49.1812 89.5551C48.4617 89.9153 47.0226 90.6356 47.7422 91.7161C49.1812 90.6356 50.2605 89.5551 51.6996 88.4746C52.7789 87.7542 53.8582 87.0339 54.9375 86.3136C55.2973 85.9534 55.657 85.5932 56.0168 85.9534C55.657 86.6737 54.5777 87.0339 53.8582 87.3941C51.6996 88.8347 49.9008 90.2754 48.1019 92.0763C47.7422 92.0763 47.7422 92.0763 47.7422 92.4364C49.9008 90.9958 52.4191 89.1949 54.9375 87.7542C55.2973 87.3941 55.657 87.0339 56.0168 87.3941C54.9375 88.4746 53.4984 89.1949 52.0594 89.9152C50.6203 90.6356 49.541 91.7161 48.1019 92.4364C47.7422 92.4364 47.7422 92.4364 47.7422 92.4364C47.7422 92.7966 47.7422 93.1568 48.1019 93.1568C50.6203 91.3559 53.4984 89.1949 56.3766 87.3941C56.3766 84.8729 56.0168 82.3517 55.657 80.1907C54.5777 81.9915 52.7789 83.072 51.3398 84.1525ZM56.3766 88.8347C54.9375 89.9152 53.8582 90.6356 52.4191 91.3559C51.6996 91.7161 51.3398 92.4364 50.6203 92.7966C49.9008 93.1568 49.1812 93.5169 48.8215 94.2373C49.541 94.5975 50.2605 94.9576 50.9801 95.3178C52.0594 95.678 52.7789 96.3983 53.4984 96.7585C53.8582 97.1186 54.5777 97.1186 54.9375 97.4788C55.657 97.839 56.3766 98.5593 57.4559 98.5593C57.4559 98.1991 57.4559 97.4788 57.4559 97.1186C57.0961 97.1186 57.0961 97.839 56.7363 97.4788C56.7363 97.1186 57.0961 96.7585 57.4559 96.3983C57.4559 95.678 57.4559 94.5975 57.0961 93.8771C56.3766 94.2373 55.657 94.9576 54.9375 95.3178C54.5777 95.678 54.218 96.3983 53.8582 95.678C54.5777 94.9576 55.657 94.5975 56.3766 93.8771C56.7363 93.5169 57.4559 93.1568 57.0961 92.7966C56.0168 93.517 54.5777 94.2373 53.4984 94.9576C53.4984 94.9576 53.1387 95.3178 52.7789 95.3178C52.4191 94.9576 53.1387 94.5975 53.4984 94.5975C54.5777 93.8771 55.2973 93.1568 56.3766 92.4364H56.7363C56.7363 91.7161 56.7363 91.3559 56.7363 90.6356C56.0168 90.9958 55.2973 91.7161 54.5777 92.0763C53.8582 92.4364 53.1387 92.7966 52.4191 93.5169C52.4191 93.8771 52.0594 94.2373 51.6996 93.8771C52.4191 93.1568 53.4984 92.7966 54.218 92.0763C55.2973 91.7161 56.0168 90.9958 56.7363 90.2754C56.7363 90.2754 56.7363 89.5551 56.3766 88.8347ZM46.6629 89.1949C45.9433 89.5551 45.5836 90.2754 45.2238 90.6356C44.864 90.9958 44.1445 91.3559 44.1445 92.0763C44.1445 92.4364 44.5043 92.4364 44.864 92.4364C45.2238 92.0763 45.5836 91.7161 45.9433 91.3559C46.3031 90.6356 47.0226 90.2754 46.6629 89.1949ZM45.2238 92.7966C45.5836 93.1568 46.3031 93.5169 47.0226 93.5169C47.0226 92.7966 47.0226 91.3559 46.6629 90.9958C46.3031 91.3559 45.5836 92.0763 45.2238 92.7966Z" fill="#034166"/>
</g>
<defs>
<filter id="filter0_d_51_1619" x="0" y="0" width="128" height="128" filterUnits="userSpaceOnUse" color-interpolation-filters="sRGB">
<feFlood flood-opacity="0" result="BackgroundImageFix"/>
<feColorMatrix in="SourceAlpha" type="matrix" values="0 0 0 0 0 0 0 0 0 0 0 0 0 0 0 0 0 0 127 0" result="hardAlpha"/>
<feOffset dx="2" dy="4"/>
<feGaussianBlur stdDeviation="2"/>
<feComposite in2="hardAlpha" operator="out"/>
<feColorMatrix type="matrix" values="0 0 0 0 0 0 0 0 0 0 0 0 0 0 0 0 0 0 0.25 0"/>
<feBlend mode="normal" in2="BackgroundImageFix" result="effect1_dropShadow_51_1619"/>
<feBlend mode="normal" in="SourceGraphic" in2="effect1_dropShadow_51_1619" result="shape"/>
</filter>
</defs>
</svg>
