<svg width="128" height="128" viewBox="0 0 128 128" fill="none" xmlns="http://www.w3.org/2000/svg">
<g filter="url(#filter0_d_51_1656)">
<circle cx="62" cy="60" r="60" fill="white"/>
</g>
<g opacity="0.8">
<path fill-rule="evenodd" clip-rule="evenodd" d="M64.851 25.0054C64.4503 25.8075 64.0497 26.2086 63.2485 26.6097C62.8479 27.0107 62.4472 27.8128 61.646 27.8128C61.646 27.4118 62.0466 27.4118 62.0466 27.0107C62.8479 26.6096 63.6491 25.8075 64.851 25.0054C64.4503 25.0054 64.4503 25.0054 64.851 25.0054Z" fill="#034166"/>
<path fill-rule="evenodd" clip-rule="evenodd" d="M63.2487 25.4064C63.2487 26.2085 62.0468 26.6096 61.6462 27.0107C61.2456 27.4117 60.4443 28.2139 59.6431 27.8128C60.8449 27.0106 61.6462 26.2085 63.2487 25.4064Z" fill="#034166"/>
<path fill-rule="evenodd" clip-rule="evenodd" d="M66.0529 25.8074C66.0529 26.6096 65.2516 26.6096 64.851 27.0107C64.4504 27.4117 64.0498 28.2139 63.2485 27.8128C64.0498 27.0106 64.851 26.2085 65.6523 25.4064C65.6523 25.8074 65.6523 25.8074 66.0529 25.8074Z" fill="#034166"/>
<path fill-rule="evenodd" clip-rule="evenodd" d="M67.2545 26.2085C67.2545 27.0106 66.4533 27.4117 66.0527 27.4117C65.6521 27.8128 64.8508 28.2138 64.4502 28.2138C64.4502 27.4117 65.2514 27.4117 65.6521 27.0107C66.0527 27.0107 66.8539 26.6096 67.2545 26.2085Z" fill="#034166"/>
<path fill-rule="evenodd" clip-rule="evenodd" d="M46.4225 28.2139C45.6213 30.2192 44.82 31.8235 44.0188 33.8288C43.6181 34.2299 43.6181 35.4331 42.8169 35.4331C43.6181 33.0267 44.82 30.2192 46.4225 28.2139Z" fill="#034166"/>
<path fill-rule="evenodd" clip-rule="evenodd" d="M76.4689 28.2139C75.267 29.4171 74.4658 30.6203 72.8633 31.4224C72.8633 30.6203 73.6645 30.2192 74.0652 29.8182C74.4658 29.4171 75.267 28.6149 76.0683 28.2139H76.4689Z" fill="#034166"/>
<path fill-rule="evenodd" clip-rule="evenodd" d="M46.0216 63.1069C45.6209 61.5026 46.0216 59.8984 46.0216 58.2941C46.0216 55.8877 45.6209 53.4813 45.2203 50.6738C45.2203 49.4706 45.2203 47.8663 45.2203 46.6631C45.2203 45.4599 44.4191 43.8556 44.8197 43.0534C44.8197 42.6524 46.0216 42.2513 46.4222 41.4492C49.6272 38.2406 52.4315 35.4331 56.4377 33.0267C56.8383 32.6256 58.0402 31.8235 58.4408 31.8235C59.2421 31.8235 60.0433 32.6256 61.2452 33.0267C63.2483 33.8288 64.8508 34.2299 66.4533 35.4331C67.2545 35.8342 68.0557 36.6363 68.4564 37.0374C69.2576 37.4385 70.0588 37.8395 71.2607 38.2406C72.062 38.6417 72.8632 39.0427 73.6645 39.4438C75.2669 40.246 76.0682 40.2459 76.4688 41.8502C76.8694 42.6524 76.8694 43.8556 76.8694 45.0588C77.27 49.0695 77.6707 53.0802 78.0713 57.0909C78.0713 57.893 78.4719 58.6952 78.4719 59.4973C78.4719 59.8984 77.27 60.7005 76.8694 61.1016C75.6676 62.3048 74.4657 63.1069 73.2638 63.9091C72.4626 64.3101 72.062 65.1123 71.6614 65.5133C70.0589 67.1176 67.6551 67.9198 65.652 69.524C65.2514 69.9251 64.0495 70.7273 63.6489 70.7273C62.8477 70.7273 61.6458 69.9251 60.8446 69.524C59.6427 69.123 58.8415 68.7219 57.6396 68.3208C56.8383 67.9197 55.6365 67.5187 54.8352 67.1176C54.034 66.7166 52.8321 66.3155 52.0309 65.9144C50.0278 64.7112 48.4253 63.508 46.0216 63.1069ZM69.6582 38.6417C68.4564 38.2406 67.2545 37.4385 66.4533 36.6363C64.8508 35.8342 62.8477 34.631 60.8446 34.2299C60.0433 33.8288 58.8415 33.4278 58.4408 33.8288C57.6396 34.2299 56.8384 34.631 56.0371 35.4331C55.2359 35.8342 54.4346 36.2353 53.6334 37.0374C52.4315 38.2406 51.2296 39.0427 50.0278 40.2459C48.8259 41.4492 47.624 42.2513 46.4222 43.8556C48.0247 44.6577 49.6272 45.4598 51.2296 46.262C52.0309 46.6631 52.4315 47.4652 53.6334 47.4652C54.4346 47.8663 55.2359 48.2674 56.4377 48.6684C57.239 49.0695 58.0402 49.4705 58.8414 49.8716C59.6427 50.2727 61.2452 51.0748 61.6458 50.6738C62.0464 50.6738 62.4471 49.8716 63.2483 49.4706C64.8508 48.2673 66.8539 47.0641 68.4564 46.262C70.0589 45.0588 71.6613 43.8556 73.2638 42.6524C73.6644 42.2513 74.4657 42.2513 74.8663 41.4492C72.8632 40.246 71.2607 39.4438 69.6582 38.6417ZM73.6645 43.8556C74.4657 44.2566 74.8663 45.0588 75.6676 45.4599C76.0682 44.2566 74.8663 44.2566 74.4657 43.4545C74.8663 43.0534 75.2669 43.8556 75.6676 43.8556C76.0682 43.4545 75.2669 43.0535 75.2669 42.6524C75.2669 42.2513 75.6676 42.6524 75.6676 42.2513C74.8663 42.6524 74.0651 43.0534 73.6645 43.8556ZM72.8632 44.2566C73.6644 45.4598 74.8663 45.8609 75.2669 46.6631C73.6644 46.6631 72.4626 43.4545 71.2607 45.4599C72.4626 46.6631 74.4657 47.8663 76.0682 48.2673C76.0682 47.4652 76.0682 46.6631 75.6676 45.8609C74.4657 45.4599 74.0651 44.2566 72.8632 44.2566ZM46.0216 45.0588C46.4222 47.0641 46.4222 49.8716 46.4222 52.278C46.4222 54.2834 46.8228 56.2887 46.8228 57.893C46.8228 59.0962 46.4222 60.7005 47.2234 61.9037C47.6241 61.9037 48.0247 61.9037 48.4253 61.9037C48.8259 62.3048 49.2265 62.7059 49.6272 62.7059C50.0278 62.7059 49.6272 62.3048 50.0278 62.3048C51.2296 61.5026 52.8321 60.2994 53.6334 59.0962C54.034 58.6952 54.4346 58.2941 54.8352 58.2941C53.2327 60.2994 51.2296 61.5026 49.6272 63.1069C50.829 64.7112 52.4315 62.7058 53.2328 61.9037C54.034 61.1016 54.8352 60.2994 55.6365 59.8984C55.6365 60.2994 55.2359 60.7005 54.8352 61.1016C53.6334 62.3048 52.4315 63.1069 51.6303 64.3101C54.8352 65.9144 58.4408 67.5187 62.0464 69.123C62.0464 67.5187 62.0464 65.5133 62.0464 63.9091C62.0464 62.3048 61.6458 59.4973 61.6458 57.4919C61.6458 55.8877 61.6458 53.0802 61.2452 52.278C60.8446 51.4759 58.4408 51.0748 58.0402 51.0748C57.6396 51.0748 57.239 50.6738 56.8383 50.6738C56.4377 50.6738 56.0371 51.4759 55.6365 51.877C54.8352 52.6791 54.034 53.0802 53.2328 53.8823C52.8321 54.2834 52.4315 54.6845 51.6303 54.6845C52.8321 53.0802 54.8352 52.2781 56.4377 50.6738C52.4315 48.2674 49.6272 45.8609 46.0216 45.0588C46.0216 44.6577 46.0216 44.6577 46.0216 45.0588ZM70.4595 45.8609C72.062 47.0641 73.2638 48.2674 74.8663 49.0695C75.2669 49.4706 76.0682 49.8716 76.0682 50.2727C74.8663 49.8716 74.0651 49.0695 72.8632 48.2673C71.6613 47.4652 70.0589 45.0588 68.857 46.6631C70.4595 47.8663 72.4626 49.4706 74.4657 50.6738C74.8663 51.0748 76.0682 51.4759 76.0682 51.877C74.0651 51.0748 71.6613 49.4705 70.0589 47.8663C69.6582 47.4652 68.4564 46.262 68.0558 47.4652C70.8601 49.0695 73.2638 51.0748 76.0682 53.0802C76.4688 53.4813 76.8694 53.4812 76.8694 54.2834C76.0682 54.2834 75.2669 53.4813 74.4657 52.6791C72.8632 51.4759 71.6613 50.2727 70.0589 49.0695C68.857 49.0695 66.4533 47.4652 66.4533 48.6684C69.6582 50.6738 72.4626 52.6791 75.2669 54.6845C75.6675 55.0855 76.0682 55.4866 76.4688 55.8877C76.0682 55.8877 75.6675 55.4866 75.2669 55.0855C74.0651 54.2834 72.8632 53.0802 71.6614 52.278C70.4595 51.4759 68.857 50.6738 67.6551 49.8716C66.8539 49.4705 66.0526 48.6684 65.2514 49.8716C67.2545 51.0748 69.2576 52.278 71.2607 53.8823C72.8632 55.0855 74.0651 55.8877 75.6676 57.0909C76.0682 57.492 76.8694 57.4919 76.8694 58.2941C75.6676 57.893 74.8663 57.0909 74.0651 56.2887C73.2638 55.4866 72.062 55.0855 71.2607 54.2834C70.4595 53.4812 69.6582 53.0802 68.4564 52.278C67.6551 51.877 66.0526 50.6738 65.2514 50.6738C64.4502 50.6738 64.0495 51.877 63.2483 52.278C63.6489 53.8823 63.6489 55.8877 64.0495 57.893C66.0526 59.0962 68.0558 60.7005 69.6582 62.3048C70.0589 62.7058 71.2607 63.1069 71.2607 63.9091C68.857 62.3048 66.8539 59.8984 64.0495 58.6952C64.0495 59.0962 64.0495 59.4973 64.0495 59.4973C66.8539 61.1016 68.4564 63.508 70.8601 65.5133C72.4626 63.9091 74.4657 62.7059 76.4688 61.1016C76.8694 60.7005 78.0713 59.8984 78.0713 59.4973C78.0713 59.0962 78.0713 58.6951 78.0713 58.2941C77.6707 55.4866 77.6707 52.278 77.27 49.8716C74.4657 47.8663 72.4626 47.0641 70.4595 45.8609ZM63.2483 61.1016C63.2483 61.5026 63.6489 61.5026 64.0495 61.5026C64.8508 62.7059 66.0526 63.508 67.2545 64.7112C67.6551 65.1123 68.0558 65.1123 68.0558 65.9144C66.4533 65.1123 65.2514 63.1069 63.6489 62.3048C63.6489 62.7058 63.6489 63.1069 63.6489 63.508C64.4502 63.9091 64.8508 64.7112 65.652 65.1123C66.0526 65.5133 66.8539 65.9144 66.8539 66.7166C65.652 66.3155 65.2514 64.7112 64.0495 64.3101C63.6489 65.9144 66.0526 65.9144 66.0526 67.5187C65.2514 67.5187 65.2514 66.7165 64.4502 66.3155C64.8508 67.1176 65.652 67.5187 66.0526 68.7219C65.2514 68.7219 65.2514 67.5187 64.4502 67.5187C64.4502 68.3208 65.2514 69.123 66.0526 69.123C67.6551 67.9198 69.2576 67.5187 70.4595 65.9144C68.4564 63.9091 66.4533 61.9037 64.0495 60.2994C62.8477 59.8984 63.2483 60.2994 63.2483 61.1016ZM63.6489 68.7219C64.0495 68.7219 64.0495 68.7219 64.4502 68.3208C64.4502 67.9197 64.0495 67.9197 63.6489 67.9197C63.6489 68.3208 63.6489 68.7219 63.6489 68.7219Z" fill="#034166"/>
<path fill-rule="evenodd" clip-rule="evenodd" d="M41.214 35.4332C41.6147 37.0375 40.4128 38.6418 40.0122 40.2461C39.6116 41.0482 39.6116 42.2514 39.2109 42.6525C39.2109 41.4493 39.6116 40.2461 40.0122 39.0429C40.4128 38.2407 40.8134 37.0375 41.214 35.4332Z" fill="#034166"/>
<path fill-rule="evenodd" clip-rule="evenodd" d="M39.6118 35.8342C38.4099 43.0535 35.6056 48.6685 33.6025 55.4866C33.2018 54.6845 33.6025 53.8824 34.0031 53.0802C36.0062 47.4653 38.0093 41.8503 39.6118 35.8342Z" fill="#034166"/>
<path fill-rule="evenodd" clip-rule="evenodd" d="M38.8107 36.2353C39.2113 37.4385 38.4101 38.2406 38.4101 39.4438C37.6089 40.246 38.0095 42.2513 36.8076 42.6524C37.2082 40.246 38.0095 38.2406 38.8107 36.2353Z" fill="#034166"/>
<path fill-rule="evenodd" clip-rule="evenodd" d="M85.2829 37.8395C84.8822 38.6416 84.081 39.0427 83.2797 39.8448C83.2797 40.2459 83.2798 40.647 82.4785 40.647C82.4785 39.0427 84.081 38.6416 85.2829 37.8395C84.8822 37.8395 84.8822 37.8395 85.2829 37.8395Z" fill="#034166"/>
<path fill-rule="evenodd" clip-rule="evenodd" d="M86.8852 43.0535C86.8852 43.4545 86.0839 43.8556 86.0839 44.2567C85.6833 44.6577 85.2827 45.0588 84.4814 45.0588C84.8821 44.2567 86.0839 43.8556 86.8852 43.0535Z" fill="#034166"/>
<path fill-rule="evenodd" clip-rule="evenodd" d="M88.0869 43.8555C87.6862 44.6576 87.2856 45.4597 86.4844 45.8608C86.4844 45.0587 87.2856 44.6576 88.0869 43.8555C87.6862 43.8555 87.6862 43.8555 88.0869 43.8555Z" fill="#034166"/>
<path fill-rule="evenodd" clip-rule="evenodd" d="M38.8105 44.6577C38.8105 45.8609 38.4099 47.0641 38.0092 47.8663C37.208 49.8716 36.4067 52.278 35.6055 54.2834C35.2049 55.4866 35.2049 56.6898 34.4036 57.4919C34.003 57.0909 34.4036 56.2887 34.4036 55.8876C34.8043 54.2834 35.6055 52.6791 36.0061 51.0748C36.8074 49.4705 37.6086 46.6631 38.8105 44.6577C38.4098 44.6577 38.4098 44.6577 38.8105 44.6577Z" fill="#034166"/>
<path fill-rule="evenodd" clip-rule="evenodd" d="M88.0872 45.46C87.6866 46.2621 87.2859 46.6632 86.8853 47.4653C86.4847 46.6632 87.6866 45.861 88.0872 45.46Z" fill="#034166"/>
<path fill-rule="evenodd" clip-rule="evenodd" d="M88.0869 46.6632C87.6862 47.4653 87.2856 48.6685 86.4844 49.4707C86.4844 48.6685 87.2856 47.8664 87.6863 47.0643C87.6863 47.0643 88.0869 47.0643 88.0869 46.6632Z" fill="#034166"/>
<path fill-rule="evenodd" clip-rule="evenodd" d="M89.2887 48.2673C89.2887 49.0695 88.4875 49.4705 88.0869 50.2727C87.6862 50.6738 87.2856 51.4759 86.4844 51.877C86.4844 51.0748 87.2856 50.6738 87.6863 50.2727C88.0869 49.4705 88.0868 48.6684 89.2887 48.2673C88.8881 48.2673 88.8881 48.2673 89.2887 48.2673Z" fill="#034166"/>
<path fill-rule="evenodd" clip-rule="evenodd" d="M52.0311 48.6685C52.0311 49.0695 51.2298 49.4706 50.8292 49.8716C50.028 50.6738 49.2267 51.0749 48.4255 51.877C48.0249 52.2781 47.6243 52.6792 47.2236 52.6792C48.4255 51.0749 50.4286 49.8717 52.0311 48.6685Z" fill="#034166"/>
<path fill-rule="evenodd" clip-rule="evenodd" d="M88.8884 50.2727C88.8884 51.0748 88.0871 51.4759 88.0871 51.877C87.6865 52.2781 87.2859 53.0802 86.8853 53.0802C86.8853 51.877 88.0871 50.6738 88.8884 50.2727Z" fill="#034166"/>
<path fill-rule="evenodd" clip-rule="evenodd" d="M52.4315 50.2727C52.4315 51.0748 51.6302 51.0749 51.2296 51.4759C50.829 51.877 50.4284 52.2781 50.0278 52.6791C49.2265 53.4813 48.4253 54.2834 47.624 54.6845C48.0246 53.8824 49.2265 53.0802 49.6271 52.6791C50.4284 51.4759 51.2296 50.6738 52.4315 50.2727Z" fill="#034166"/>
<path fill-rule="evenodd" clip-rule="evenodd" d="M74.8663 59.4973C73.6645 59.0963 72.8632 58.2941 72.062 57.492C70.0589 55.8877 68.4564 54.6845 66.4533 53.4813C65.652 52.6792 64.4502 52.2781 63.6489 51.476C64.4502 51.476 66.0527 52.6792 66.8539 53.4813C68.0558 54.2834 68.857 54.6845 69.6583 55.4866C71.2608 56.6899 72.4626 57.492 74.0651 58.6952C74.0651 58.6952 74.8663 59.0963 74.8663 59.4973Z" fill="#034166"/>
<path fill-rule="evenodd" clip-rule="evenodd" d="M57.6397 51.8771C57.6397 52.6792 56.4378 53.0803 56.0372 53.4814C54.4347 54.6846 52.8322 56.2888 50.8291 57.4921C50.8291 56.6899 51.6304 56.2888 52.031 56.2888C54.0341 54.2835 55.6366 53.0803 57.6397 51.8771Z" fill="#034166"/>
<path fill-rule="evenodd" clip-rule="evenodd" d="M63.2485 52.2781C66.4535 54.6845 69.6585 56.6899 72.8634 59.0963C73.2641 59.4973 74.0653 59.4973 73.6647 60.2995C72.4628 59.8984 71.6616 59.0963 70.8603 58.2941C68.4566 56.2888 65.6523 54.6845 63.2485 52.2781Z" fill="#034166"/>
<path fill-rule="evenodd" clip-rule="evenodd" d="M72.0622 61.1016C71.2609 60.7005 70.4597 59.8984 69.6585 59.4973C68.056 58.2941 66.4535 57.0909 64.851 55.8877C64.0497 55.0855 63.2485 54.6845 62.4473 53.8823C63.6491 53.8823 64.0497 54.6845 64.851 55.4866C66.8541 57.0909 68.8572 58.6952 70.8603 60.2994C71.6616 60.2994 72.0622 60.7005 72.0622 61.1016Z" fill="#034166"/>
<path fill-rule="evenodd" clip-rule="evenodd" d="M71.6614 62.3049C70.8601 62.3049 70.0589 61.5028 69.6583 61.1017C67.6552 59.4975 65.652 57.8932 63.6489 56.2889C63.6489 56.2889 63.6489 56.2889 63.6489 55.8878C63.6489 55.8878 63.6489 55.8878 64.0496 55.8878C65.652 56.69 66.8539 57.8932 68.0558 59.0964C68.857 59.4975 69.2576 60.2996 70.0589 60.7007C70.4595 61.1017 71.2608 61.5028 71.6614 62.3049Z" fill="#034166"/>
<path fill-rule="evenodd" clip-rule="evenodd" d="M56.4379 62.3049C56.0373 62.706 55.6367 63.1071 55.236 63.5082C54.8354 63.9092 54.4348 64.3103 54.0342 64.3103C54.4348 63.5081 55.236 62.706 56.0373 62.3049H56.4379Z" fill="#034166"/>
<path fill-rule="evenodd" clip-rule="evenodd" d="M47.2237 71.1284C47.2237 71.9306 46.4225 72.7327 46.0219 73.5348C45.6212 74.337 45.2206 75.1391 44.4194 75.9412C44.0187 75.5402 44.4194 75.1391 44.82 74.7381C45.2206 73.9359 46.0219 72.3316 47.2237 71.1284Z" fill="#034166"/>
<path fill-rule="evenodd" clip-rule="evenodd" d="M70.059 74.3369C70.059 75.1391 69.6584 75.5401 69.2578 75.9412C68.4565 77.5455 67.6553 79.9519 66.4534 81.1551C66.0528 80.353 66.854 79.9519 67.2547 79.5508C68.0559 77.9466 68.8572 75.9412 70.059 74.3369Z" fill="#034166"/>
<path fill-rule="evenodd" clip-rule="evenodd" d="M52.4316 79.9519C52.4316 80.7541 52.031 81.1551 51.6303 81.9573C51.2297 82.7594 51.2297 83.1605 50.8291 83.5616C50.8291 82.3584 52.031 81.1551 52.4316 79.9519Z" fill="#034166"/>
<path fill-rule="evenodd" clip-rule="evenodd" d="M55.6369 80.3529C55.6369 81.5561 54.8356 82.3583 54.435 83.1604C54.0344 83.5615 54.0344 84.3636 53.6338 84.7647C53.2331 85.1658 53.2331 85.9679 52.8325 85.9679C52.8325 85.1657 53.6338 84.3636 54.0344 83.1604C54.435 82.3583 54.8356 81.5561 55.2363 80.3529C55.2363 80.754 55.2363 80.754 55.6369 80.3529C55.2363 80.3529 55.2363 80.3529 55.6369 80.3529Z" fill="#034166"/>
<path fill-rule="evenodd" clip-rule="evenodd" d="M59.6427 80.3529C59.6427 81.5561 58.8415 82.7593 58.4409 83.5615C58.0402 83.9625 58.0402 84.7647 57.6396 85.1658C57.239 85.5668 57.239 86.369 56.8384 86.77C56.8384 85.5668 57.6396 84.7647 58.0403 83.5615C58.4409 82.7593 58.8415 81.5561 59.6427 80.3529Z" fill="#034166"/>
<path fill-rule="evenodd" clip-rule="evenodd" d="M56.4381 81.1552C56.4381 82.3584 55.6369 83.1605 54.8356 84.3637C54.435 84.7648 54.435 85.5669 54.0344 85.968C53.6338 86.369 53.6338 87.1712 52.8325 87.1712C53.2331 86.3691 53.6338 85.1658 54.0344 84.3637C55.2363 83.1605 55.6369 81.9573 56.4381 81.1552Z" fill="#034166"/>
<path fill-rule="evenodd" clip-rule="evenodd" d="M60.8447 23C62.4472 23 64.4503 23 66.0528 23.4011C67.6553 23.4011 68.8572 24.2032 70.4597 24.6043C73.264 25.4064 75.6677 26.2086 78.0715 27.4118C78.8727 27.8128 80.0746 28.615 80.8758 29.4171C82.0777 30.2192 83.2796 30.6203 84.0808 31.4225C84.882 32.2246 85.6833 33.4278 86.4845 34.631C88.087 37.0374 89.2889 39.0428 90.0901 42.2513C90.4907 43.4545 90.8914 45.4599 90.8914 47.0642C90.8914 47.4652 90.8914 47.8663 90.8914 48.6685C90.8914 49.4706 91.292 50.6738 91.292 51.877C91.292 55.0856 91.292 58.2941 90.4907 61.1016C90.0901 61.9038 90.0901 62.7059 89.6895 63.508C89.2889 64.3102 89.2889 65.1123 88.8882 66.3155C88.4876 67.9198 87.2858 69.5241 86.8851 71.1284C86.0839 72.7326 85.2827 74.3369 84.4814 75.5401C82.8789 78.7487 80.8758 81.1551 79.2733 83.5615C78.4721 84.3636 77.6708 85.5668 76.8696 86.369C76.0684 87.1711 75.2671 88.7754 74.4659 89.9786C73.264 91.5829 72.0621 93.1872 70.8603 94.7915C70.059 95.5936 69.2578 96.3957 68.8572 96.7968C68.4565 97.1979 68.0559 97.1979 67.6553 97.1979C67.2547 97.5989 66.8541 97.5989 66.4534 98C66.0528 98 64.4503 98 64.0497 98C62.8479 97.5989 60.8447 96.7968 59.6429 95.5936C58.8416 94.7915 58.441 93.9893 57.6398 93.1872C56.8385 92.385 56.0373 91.984 55.236 91.1818C53.6336 89.9786 52.4317 87.9733 51.2298 86.7701C48.4255 83.9626 46.0218 80.754 43.2174 77.5455C40.8137 74.3369 38.0093 71.1283 36.0062 67.5187C35.6056 66.7166 35.205 65.5134 34.8043 64.7112C33.6025 62.3048 32.8012 59.4973 32.8012 56.2888C32.8012 55.4866 32.4006 55.0855 32.4006 54.2834C32.4006 52.6791 32.8012 51.0749 32.8012 49.4706C32.8012 43.4545 35.205 39.0428 38.0093 35.4332C38.8106 34.631 39.2112 33.8289 40.0124 33.0267C40.8137 32.2246 41.6149 31.4225 42.4162 30.6203C43.2174 29.8182 44.0186 29.0161 45.2205 28.615C47.2236 27.4118 50.028 26.2086 52.8323 25.4064C54.0342 23.4011 57.2391 23 60.8447 23ZM52.0311 25.4064C51.6305 25.8075 52.4317 25.4064 52.0311 25.8075C51.6305 26.6096 50.8292 27.8128 50.028 28.615C49.2267 30.2193 48.4255 31.8235 46.823 32.2246C46.823 31.8235 47.2236 31.0214 47.6242 30.6203C48.4255 29.016 49.2267 27.4118 50.028 25.8075C49.2267 26.2085 48.4255 26.2086 48.0249 26.6096C47.6242 27.0107 47.6242 27.8128 47.2236 28.615C46.823 29.8182 46.4224 31.0214 45.6211 32.2246C45.2205 32.6257 45.2205 33.4278 44.4193 33.4278C45.2205 31.4225 46.4224 29.016 46.823 27.0107C45.6211 27.4118 44.8199 27.8128 44.0186 28.2139C44.0186 28.615 44.4193 28.2139 44.4193 28.615C43.618 30.2193 42.8168 31.8235 42.4162 33.4278C42.0155 33.8289 42.0155 34.631 41.6149 34.631C41.6149 34.23 42.0155 33.4278 42.0155 33.0267C42.8168 31.4225 43.618 29.8182 44.0186 28.2139C42.0155 29.016 41.6149 31.0214 40.413 33.0267C40.0124 33.8289 40.0124 34.23 39.2112 34.631C39.2112 33.8289 39.6118 33.4278 40.0124 32.6257C40.4131 31.8235 40.8137 31.4225 40.8137 30.6203C40.0124 31.0214 39.6118 31.4224 39.2112 32.2246C38.8106 33.0267 38.8106 34.631 38.0093 35.0321C37.6087 34.631 38.4099 34.2299 38.0093 33.8289C35.205 37.0374 32.8012 41.4492 32.4006 47.0642C33.2019 45.861 33.2019 44.2567 34.0031 43.0535C34.4037 42.6524 34.4037 41.8503 34.8043 41.4492C35.205 40.246 35.6056 39.0428 36.0062 37.8396C36.0062 37.4385 36.4068 36.6363 36.8074 36.2353C36.4068 38.2406 35.205 39.8449 34.8043 42.2513C34.4037 43.0535 34.0031 43.8556 33.6025 45.0588C32.8012 47.0642 32 49.4706 32 51.877C32.8012 49.8717 33.6025 47.4652 34.4037 45.0588C34.8043 44.2567 34.8043 43.4545 35.205 43.0535C35.205 43.8556 34.8043 44.6578 34.4037 45.4599C33.6025 47.4652 33.2019 49.4706 32.4006 51.4759C32.4006 51.877 32.4006 51.877 32.4006 52.2781C32 52.2781 32 52.2781 32 52.2781C32 54.6845 32.4006 56.2888 32.8012 58.2941C33.2019 59.0962 33.2019 60.2995 33.6025 61.1016C34.4037 57.0909 35.6056 53.4813 36.8074 50.2727C37.2081 50.2727 37.6087 50.6738 37.6087 50.2727C38.0093 47.0642 39.2112 44.2567 40.0124 41.8503C40.0124 41.4492 40.0124 41.4492 40.0124 41.4492C40.8137 40.246 41.2143 38.6417 41.6149 37.0374C41.6149 36.6364 41.6149 35.8342 42.4162 35.8342C42.8168 36.6364 42.0155 37.4385 42.0155 38.6417C43.2174 37.4385 44.0186 35.8342 45.2205 34.631C46.823 33.0267 48.8261 32.2246 50.028 30.6203C51.2298 29.4171 52.4317 27.8128 53.2329 26.6096C53.6336 26.2086 53.6336 25.4064 54.4348 25.4064C53.6336 27.4118 51.6304 28.615 50.8292 30.6203C51.2298 30.6203 51.6305 30.2192 52.4317 30.2192C53.6336 29.016 54.4348 27.8128 55.236 26.2085C55.6367 25.8075 56.0373 25.0053 56.4379 25.4064C56.0373 26.2086 55.236 27.0107 54.8354 27.8128C54.4348 28.615 53.6336 29.016 53.2329 29.8182C55.236 29.8182 56.0373 28.2139 57.2392 27.0107C58.0404 26.2086 58.441 25.4064 59.2423 24.6043C56.8385 24.2032 54.0342 24.6043 52.0311 25.4064ZM60.4441 24.2032C60.0435 25.4064 58.8416 25.8075 58.441 27.0107C59.2423 26.6096 59.6429 26.2085 60.0435 25.8075C60.4441 25.4064 61.2454 24.6043 61.646 25.0053C60.8447 25.8075 59.6429 26.6096 58.441 27.4118C58.0404 27.4118 58.441 27.0107 58.0404 27.0107C57.6398 27.4118 57.2391 27.8128 56.8385 28.2139C60.8447 27.8128 65.2516 28.615 68.8572 29.4171C69.6584 28.615 70.8603 28.2139 71.2609 27.0107C71.6615 26.6096 71.6615 26.2085 72.0622 26.2085C72.0622 26.2085 72.0622 26.2086 72.0622 26.6096C71.2609 27.8128 70.059 28.615 68.8572 29.8182C69.2578 30.2192 70.059 30.6203 70.8603 30.6203C71.2609 30.2193 71.6615 29.4171 72.4628 29.016C72.8634 28.615 73.6646 27.8128 74.4659 27.8128C73.6646 29.016 72.0622 29.8182 71.6615 31.0214C72.4628 31.4225 72.8634 31.8235 73.6646 32.2246C74.0653 32.6257 74.8665 33.4278 75.6678 33.4278C76.0684 33.4278 77.2702 32.2246 77.6709 31.8235C78.4721 31.0214 78.8727 30.6203 79.674 30.2192C78.8727 31.8235 77.2702 32.2246 76.469 33.8289C76.469 34.2299 77.2702 34.631 77.2702 34.631C78.4721 33.0267 79.674 31.8235 80.8758 30.6203C80.4752 30.2193 80.0746 29.8182 79.2733 29.4171C78.4721 29.8182 78.0715 30.6203 77.6709 31.0214C77.2702 31.4225 76.469 32.6257 75.6678 32.2246C76.469 31.0214 78.0715 30.2193 78.8727 28.615C78.8727 28.2139 78.4721 28.2139 78.4721 28.2139C77.6709 29.016 76.8696 29.8182 76.0684 30.6203C75.6677 31.0214 75.2671 31.4225 74.8665 31.0214C75.6677 29.8182 76.8696 29.016 77.6709 28.2139H78.0715C77.2702 27.8128 75.6677 26.6096 74.4659 26.6096C74.0653 26.6096 73.264 27.8128 72.4628 27.8128C72.0621 28.2139 71.6615 28.2139 71.6615 28.615C71.2609 29.0161 71.2609 29.4171 70.8603 29.016C71.6615 27.8128 73.264 27.4117 74.0653 26.2085C73.6646 25.8075 72.4628 25.4064 72.0622 25.4064C71.2609 25.8075 70.4597 26.6096 69.6584 27.0107C68.8572 27.4118 68.0559 28.615 67.2547 28.2139C67.6553 27.8128 68.4565 27.0107 69.2578 26.6096C70.059 26.2086 70.8603 25.8075 71.2609 25.0053C70.4597 25.4064 69.6584 25.8075 68.8572 26.6096C68.0559 27.0107 67.6553 27.8128 66.4534 28.2139C66.8541 27.4117 67.6553 27.0107 68.0559 26.6096C68.8572 26.2086 69.6584 25.8075 70.059 25.0053C66.4535 25.0053 63.2485 24.2032 60.4441 24.2032ZM50.8292 25.8075C50.4286 27.4118 49.6273 28.2139 48.8261 29.8182C49.6273 29.4171 49.6273 28.615 50.028 27.8128C50.4286 27.0107 50.8292 26.6096 51.2298 25.8075C51.2298 25.4064 51.2298 25.8075 50.8292 25.8075ZM48.4255 33.4278C45.2205 35.8342 43.2174 38.6417 41.6149 42.6524C40.0124 46.262 38.4099 50.2727 39.2112 55.4866C39.6118 58.2941 40.8137 59.8984 41.6149 61.9037C42.0155 63.1069 42.8168 64.3102 43.2174 65.1123C44.4193 67.1177 46.0218 69.123 48.0249 70.3262C48.8261 70.7273 49.6273 71.1284 50.4286 71.1284C51.2298 71.5294 52.0311 71.9305 52.8323 72.3315C57.2391 73.9358 65.6522 74.3369 70.059 72.7326C70.4597 72.3316 71.2609 71.9305 72.0622 71.9305C74.0653 70.7273 76.0684 69.5241 78.0715 67.9198C79.2733 66.7166 80.8758 65.5134 81.6771 64.3101C82.4783 63.1069 82.8789 61.9037 83.2795 60.2995C84.0808 57.893 84.4814 55.8877 84.4814 52.6792C84.4814 50.2727 84.0808 48.6685 83.6802 46.6631C82.4783 43.4546 81.2765 41.4492 79.674 39.4438C79.2733 39.0428 78.8727 38.2406 78.4721 37.8396C78.0715 37.4385 77.2702 37.0374 76.8696 36.6364C76.469 36.2353 76.0684 35.8342 75.2671 35.4332C72.0621 33.0267 68.4566 30.6203 63.6491 30.2192C60.0435 29.8182 56.8385 29.8182 54.4348 31.0214C51.6305 30.6203 50.4286 32.2246 48.4255 33.4278ZM81.2764 31.4225C80.0746 32.6257 78.8727 33.8289 77.6709 35.0321H77.2702C77.6708 35.8342 78.4721 35.8342 78.8727 36.2353C79.674 35.8342 80.4752 35.0321 80.8758 34.2299C81.2764 33.4278 83.6802 32.2246 82.4783 31.8235C81.6771 33.0267 80.4752 33.8289 79.674 35.0321C79.2733 35.4332 78.8727 35.8342 78.4721 35.8342C79.674 34.2299 81.2765 33.4278 82.0777 31.8235C81.6771 31.4224 81.2764 31.4225 81.2764 31.4225ZM82.4783 36.6364C82.8789 36.2353 84.4814 35.4332 84.4814 34.631C84.4814 33.8289 83.6802 33.8289 83.2795 33.0267C83.2795 33.0267 83.2795 33.0267 82.8789 33.0267C82.4783 33.4278 81.6771 34.2299 80.8758 35.0321C80.0746 35.8342 78.0715 37.0374 79.674 37.4385C80.4752 36.6364 80.8758 36.2353 81.6771 35.4332C82.0777 35.0321 82.4783 34.631 83.2795 34.2299C83.2795 34.631 82.8789 35.0321 82.4783 35.4332C81.6771 36.2353 80.8758 36.6364 80.4752 37.4385C80.4752 37.4385 80.0746 37.4385 80.0746 37.8396C80.4752 38.6417 80.8758 39.0428 81.2764 39.4438C81.6771 39.0428 82.4783 38.2406 82.8789 37.8396C83.2795 37.4385 84.0808 36.6363 84.882 36.2353C84.0808 37.8396 82.4783 38.6417 81.6771 40.246C82.4783 41.0481 82.4783 42.2513 83.2795 43.0535C84.0808 42.6524 84.4814 41.8503 85.2826 41.0481C86.0839 40.6471 87.2858 39.8449 86.4845 38.6417C85.6833 39.4439 84.882 40.246 84.0808 41.0481C83.6802 41.4492 83.6802 41.8503 83.2795 41.8503C82.8789 41.0481 83.6802 40.246 84.4814 39.8449C84.882 39.4438 86.0839 38.6417 86.0839 37.8396C86.0839 37.0374 84.882 35.8342 84.4814 35.4332C83.2796 36.2353 82.4783 37.0374 81.6771 37.8396C81.2765 38.2406 80.8758 38.6417 80.4752 38.6417C80.8758 37.8396 81.6771 37.4385 82.4783 36.6364ZM88.4876 44.2567C88.087 42.6524 88.4876 41.0481 87.2858 39.4438C86.4845 39.8449 86.0839 40.6471 85.2826 41.0481C84.4814 41.8503 83.2796 42.6524 83.6802 43.4545C84.0808 43.0535 84.882 42.2513 85.2826 41.8503C85.6833 41.4492 86.4845 40.647 87.2858 40.246C86.8851 41.4492 85.6833 41.8503 85.2826 42.6524C84.882 43.0535 84.882 43.4545 84.4814 43.8556C84.4814 43.8556 84.0808 43.8556 84.0808 44.2567C85.2827 46.6631 85.2827 49.0695 85.6833 52.2781C86.0839 57.0909 84.4814 60.2995 83.2795 63.107C82.4783 65.1123 80.8758 65.9144 79.2733 67.5187C78.4721 68.3209 77.2702 69.5241 76.0684 70.3262C74.8665 71.1283 73.6646 71.9305 72.0622 72.3315C72.0622 72.7326 72.0622 72.7326 72.0622 73.1337C71.2609 74.738 70.059 76.7433 69.2578 78.7487C68.8572 79.1497 68.4565 79.9519 68.8572 80.754C69.6584 80.353 70.059 79.5508 70.4597 78.7487C71.2609 77.1444 72.0621 75.9412 72.8634 74.3369C73.264 73.5348 73.264 72.3315 74.0653 72.3315C72.8634 75.5401 71.2609 78.3476 69.6584 81.1551C70.0591 81.5562 70.059 82.3583 70.8603 82.7594C71.2609 82.3583 70.8603 81.5562 70.4597 81.1551C70.4597 80.353 70.8603 79.9519 71.2609 79.5508C71.6615 79.1497 71.6615 78.3476 72.0622 77.5455C72.8634 76.3422 73.264 75.139 74.0653 73.9358C74.4659 73.5348 74.4659 72.3315 75.2671 72.3315C74.8665 73.5348 74.0653 74.3369 73.6646 75.5401C74.0653 75.5401 74.0653 75.9412 74.0653 75.9412C74.4659 75.139 74.8665 74.738 74.8665 73.5348C75.6677 73.1337 75.6677 71.9305 76.469 71.1284H76.8696C77.2702 70.7273 77.2702 69.9251 78.0715 69.9251C78.0715 70.7273 77.6709 71.1283 78.4721 71.5294C78.8727 70.7273 79.674 70.3262 79.674 69.123C80.0746 68.7219 80.0746 68.3208 80.4752 68.3208C80.4752 68.7219 80.4752 69.123 80.4752 69.123C81.2764 69.123 81.2765 68.7219 81.6771 68.3208C81.6771 67.9198 80.8758 67.9198 80.8758 67.5187C81.2764 66.7166 82.8789 67.1176 82.8789 65.9144C82.4783 65.9144 82.0777 66.3155 82.0777 65.9144C82.4783 65.1123 83.6802 65.1123 84.0808 64.3101C85.2827 64.3101 85.6833 63.107 86.4845 63.107C86.0839 62.7059 86.4845 62.3048 86.8851 61.9037C87.2858 61.9037 86.8851 62.3048 87.2858 62.3048C88.087 61.9037 88.4876 61.5027 88.8882 60.2995C87.6864 61.1016 86.0839 61.9038 85.2826 62.7059C84.882 63.107 84.4814 63.508 84.0808 63.508C85.2827 61.1016 89.2889 60.7005 89.6895 57.492C88.8883 57.893 88.087 59.0963 87.2858 59.4973C86.8851 59.8984 86.4845 60.2995 85.6833 60.2995C85.2827 60.7005 84.882 61.1016 84.0808 61.1016C84.0808 60.7005 84.4814 60.7005 84.882 60.2995C86.4845 59.0962 87.2858 58.2941 88.4876 57.0909C88.8883 56.2888 90.0901 55.8877 89.6895 55.0856C88.8883 55.8877 87.6864 57.0909 86.4845 57.893C86.0839 58.2941 85.6833 58.6952 85.2826 58.2941C86.0839 57.492 87.2858 56.6898 88.087 55.8877C88.8883 55.0856 90.0901 54.2834 90.0901 53.0802C88.8883 53.8824 88.087 55.4866 86.4845 56.6899C86.0839 56.2888 86.8851 55.8877 86.8851 55.4866C87.6864 54.6845 88.4876 53.4813 89.2889 52.6792C89.6895 52.2781 89.6895 52.2781 90.0901 52.2781C90.0901 51.877 90.0901 51.4759 89.6895 51.0749C88.4876 51.877 87.6864 53.0802 86.8851 54.2834C86.4845 53.4813 87.2858 53.0802 87.6864 52.6792C88.087 52.2781 88.8882 51.4759 88.8882 51.0749C89.2889 51.0749 89.2889 50.6738 89.6895 50.6738C89.6895 48.6685 88.8883 46.6631 88.4876 44.2567ZM35.205 59.4973C34.8043 60.7005 34.4037 62.7059 35.205 63.508C36.0062 60.7005 36.4068 57.492 37.6087 55.0856C38.0093 55.0856 38.0093 55.0856 38.4099 55.0856C38.4099 53.8824 38.4099 52.6791 38.4099 51.4759C38.4099 51.4759 38.4099 51.4759 38.0093 51.4759C37.2081 53.4813 36.0062 56.6898 35.205 59.4973ZM36.4068 59.4973C36.0062 61.1016 35.6056 63.1069 35.6056 64.3101C35.6056 64.7112 35.6056 65.1123 36.0062 65.1123C36.4068 63.508 36.4068 61.5027 36.8074 59.8984C36.8074 59.0963 36.8074 58.2941 37.6087 57.893C37.2081 59.8984 36.8075 62.3048 36.4068 64.7112C36.4068 65.9145 36.4068 67.1176 37.2081 67.5187C37.6087 63.508 39.2112 58.6952 37.6087 54.6845C37.2081 56.2888 36.8075 57.893 36.4068 59.4973ZM38.4099 64.7112C38.8106 63.107 38.4099 61.1016 39.6118 59.8984C39.2112 59.8984 39.6118 59.0963 38.8106 59.0963C38.8106 61.1016 38.4099 63.107 38.4099 64.7112ZM38.8106 65.5134C38.8106 66.3155 38.8106 67.1176 38.4099 67.9198C38.4099 68.7219 38.0093 69.5241 38.8106 69.9251C39.2112 67.9198 39.6118 65.5134 40.0124 63.9091C40.0124 63.508 40.0124 62.7059 40.8137 62.7059C40.8137 63.9091 40.4131 65.5134 40.0124 67.1177C39.6118 69.123 38.8106 71.5294 40.413 72.3315C40.8137 70.7273 41.6149 68.3209 41.6149 65.9144C41.6149 65.5134 41.6149 64.7112 41.6149 64.3101C41.6149 63.508 40.4131 61.5027 40.0124 61.1016C39.2112 61.9038 39.2112 63.9091 38.8106 65.5134ZM86.0839 64.7112C86.4845 65.1123 86.8851 64.3102 87.2858 64.7112C86.8851 65.5134 84.882 65.5134 85.2826 66.7166C86.0839 66.7166 86.0839 65.9144 86.8851 66.3155C87.6864 65.5134 87.6864 64.3102 88.087 63.107C86.8852 63.508 86.0839 63.9091 86.0839 64.7112ZM84.4814 65.5134C84.882 65.9144 85.2827 65.5134 85.6833 65.1123C85.2827 64.7112 84.4814 65.1123 84.4814 65.5134ZM38.0093 67.1177C38.0093 66.7166 38.4099 65.5134 38.0093 65.1123C38.0093 65.5134 38.0093 66.7166 38.0093 67.1177ZM41.2143 70.3262C40.8137 71.9305 40.413 73.5348 41.6149 73.9358C42.0155 72.7326 42.0155 71.5294 42.4162 69.9251C42.8168 68.3209 43.2174 65.5134 42.0155 64.7112C41.6149 66.7166 41.6149 68.7219 41.2143 70.3262ZM83.2795 66.3155C83.6802 66.3155 84.0808 66.3155 84.0808 65.9144C83.6802 65.5134 83.2795 65.9144 83.2795 66.3155ZM83.6802 66.7166C83.6802 67.1177 83.6802 67.1177 83.6802 67.1177C84.0808 67.1177 84.4814 67.1177 84.4814 66.7166C84.882 66.3155 84.0808 66.3155 83.6802 66.7166ZM84.4814 68.7219C85.2827 68.3209 86.4845 67.9198 86.8851 66.7166C86.0839 67.1177 83.6802 67.5187 84.4814 68.7219ZM42.4162 73.9358C42.4162 74.3369 42.0155 73.9358 42.0155 74.3369C42.0155 74.738 42.4161 75.139 42.8168 75.139C43.2174 72.7326 43.2174 69.9251 44.0186 67.5187C44.0186 67.1176 43.618 67.1177 43.2174 66.7166C42.8168 69.123 42.4162 71.5294 42.4162 73.9358ZM83.2795 67.5187C83.2795 66.7166 82.0777 67.1176 82.0777 67.9198C82.4783 68.7219 83.2795 67.9198 83.2795 67.5187ZM38.0093 68.7219C38.0093 68.3209 38.0093 68.3209 38.0093 67.9198C38.0093 67.9198 38.0093 67.9198 37.6087 67.9198C37.6087 67.9198 37.6087 68.7219 38.0093 68.7219ZM43.2174 75.9412C43.2174 76.7433 44.4193 77.5455 44.8199 77.9465C46.0217 75.9412 46.823 73.9358 48.0249 71.5294C47.6242 71.1283 47.2236 70.7273 46.4224 70.3262C46.0217 70.7273 46.0217 71.1283 45.6211 71.5294C45.2205 71.9305 45.2205 72.7326 44.8199 72.7326C44.4193 71.5294 46.0218 70.7273 46.0218 69.9251C46.0218 69.5241 44.4193 68.3209 44.0186 67.9198C44.0186 70.3262 43.2174 73.5348 43.2174 75.9412ZM82.8789 69.123C84.4814 69.123 83.2795 67.5187 82.8789 69.123ZM84.4814 69.5241C84.0808 69.123 83.2795 69.5241 83.2795 70.3262C83.6802 70.3262 83.6802 69.9251 84.0808 69.9251C84.4814 70.3262 83.6802 70.7273 83.6802 71.1284C83.6802 71.5294 84.0808 71.5294 83.6802 71.9305C83.2796 71.9305 83.2795 71.5294 82.8789 71.5294C82.4783 71.5294 82.4783 71.5294 82.4783 71.9305C82.4783 71.9305 82.4783 71.9305 82.8789 72.3315C83.2795 72.3315 83.2796 71.9305 83.6802 71.9305C84.0808 72.3315 83.2795 72.3316 83.2795 73.1337C83.2795 73.1337 83.6802 73.9358 82.8789 73.9358C82.8789 73.9358 82.8789 73.5348 82.4783 73.5348C81.6771 73.5348 80.8758 74.3369 81.6771 75.139C83.6802 75.139 83.6802 73.5348 84.4814 72.3315C84.882 71.1283 86.0839 69.9251 86.0839 69.123C84.882 68.7219 84.882 69.123 84.4814 69.5241ZM81.2764 70.3262C82.0777 70.3262 82.4783 70.3262 82.4783 69.5241C82.0777 69.123 81.2764 69.5241 81.2764 70.3262ZM79.674 71.1284C80.0746 71.1284 80.8758 71.1283 80.8758 70.3262C80.0746 69.9251 79.674 70.3262 79.674 71.1284ZM81.6771 71.1284C82.4783 71.5294 82.8789 71.1284 82.8789 70.7273C82.4783 70.3262 81.6771 70.3262 81.6771 71.1284ZM80.0746 72.3315C80.8758 72.3315 81.2765 72.3316 81.6771 71.5294C80.8758 70.7273 80.0746 71.5294 80.0746 72.3315ZM48.4255 71.9305C47.6242 73.5348 46.823 75.5401 46.0218 77.1444C45.6211 77.5455 44.8199 78.3476 45.6211 78.7487C46.823 77.5455 47.6242 75.5401 48.4255 73.9358C48.8261 73.5348 49.2267 72.7326 49.6273 72.7326C48.4255 74.738 47.2236 76.7433 46.0218 78.7487C46.0218 78.7487 46.0217 78.7487 45.6211 78.7487C46.0217 79.5508 46.4224 79.9519 47.2236 80.3529C47.6242 79.9519 47.6242 78.7487 48.4255 78.7487C48.4255 79.5508 47.6242 80.353 47.6242 80.754C47.6242 81.1551 48.4255 81.9572 48.8261 82.3583C50.028 83.9626 52.0311 85.1658 53.2329 86.7701C54.0342 87.5722 54.4348 88.7754 55.6367 89.1765C55.6367 88.3743 55.6367 87.5722 56.4379 87.5722C56.4379 88.3743 55.236 89.1765 56.4379 89.5775C56.8385 88.7754 56.8385 87.1711 57.6398 87.1711C57.6398 88.3743 56.0373 90.3797 57.6398 90.7808C57.6398 89.5776 58.0404 89.1765 58.441 87.9733C58.441 87.5722 58.0404 87.9733 58.0404 87.9733C58.441 87.1711 58.0404 86.369 58.441 85.5669C58.8416 85.1658 58.8416 85.9679 58.8416 85.5669C59.2423 83.5615 60.4441 82.3583 60.8447 80.3529C61.646 79.1497 62.4472 77.1444 63.2485 75.9412C63.6491 75.5401 63.6491 74.738 64.4503 74.738C63.2485 76.7433 62.4472 78.7487 61.2454 80.3529C60.8447 82.3583 59.6429 83.1604 59.2423 84.7647C59.6429 84.7647 59.6429 85.1658 60.0435 85.5669C60.8448 83.9626 61.646 82.7594 62.0466 81.1551C62.0466 81.1551 61.646 81.1551 61.646 80.754C62.8479 78.3476 64.0497 75.9412 65.2516 73.9358C64.4503 73.9358 63.6491 73.9358 62.4472 73.9358C60.8447 75.5401 60.0435 77.9465 58.0404 79.9519H57.6398C56.8385 81.1551 56.0373 83.1604 55.236 84.7647C54.8354 85.1658 54.8354 85.9679 54.4348 85.9679C54.4348 85.1658 54.8354 84.7647 55.236 84.3636C56.0373 82.7594 56.8385 80.754 57.6398 79.1497C58.0404 79.1497 58.0404 79.5508 58.0404 79.1497C59.2423 77.5455 60.4441 75.9412 61.2454 73.9358C59.6429 73.9358 59.2423 75.5401 58.441 76.3422C58.0404 77.1444 57.6398 78.3476 56.8385 78.7487C56.8385 77.9465 57.6398 77.1444 58.0404 76.3422C58.441 75.5401 59.2423 74.738 59.6429 73.9358C59.2423 73.9358 59.2423 73.9358 58.8416 73.9358C58.0404 75.139 56.8385 76.7433 56.0373 77.9465C55.6367 78.3476 55.6367 79.1497 54.8354 79.1497C55.6367 77.1444 56.8385 75.9412 57.6398 73.9358C57.2391 73.5348 56.4379 73.5348 55.6367 73.5348C54.8354 75.139 54.4348 76.3422 53.6336 77.5455C53.6336 77.9465 54.0342 77.9465 53.6336 78.3476C53.2329 79.1497 52.8323 79.9519 52.0311 81.1551C51.6305 81.9572 51.2298 83.1604 50.4286 83.9626C50.8292 81.9572 52.0311 80.754 52.8323 79.1497C52.8323 79.1497 52.4317 79.1497 52.4317 78.7487C53.6336 77.1444 54.4348 75.5401 55.236 73.5348C55.236 73.5348 54.8354 73.5348 54.4348 73.5348C53.2329 74.738 52.4317 76.3422 51.6304 77.5455C50.8292 78.7487 50.4286 79.5508 50.028 80.754C49.6273 81.1551 49.6273 81.9572 49.2267 81.9572C49.2267 80.754 50.4286 79.9519 50.4286 78.7487C51.2298 77.9465 52.0311 76.7433 52.4317 75.9412C52.8323 75.139 53.6336 74.3369 54.0342 73.5348C54.0342 73.5348 53.6336 73.5348 53.2329 73.1337C52.8323 75.5401 51.6305 77.5455 50.4286 79.5508C50.4286 79.5508 50.028 79.5508 50.028 79.9519C50.028 80.3529 49.6273 80.754 49.6273 81.1551C49.2267 81.5562 49.2267 81.9572 48.8261 82.3583C48.8261 81.5561 49.6273 80.754 49.6273 79.9519H50.028C51.2298 77.9465 52.0311 76.3422 53.2329 74.3369C53.2329 74.3369 53.6336 74.3369 53.6336 73.9358C53.2329 73.9358 53.2329 73.5348 52.8323 73.5348C51.6304 74.738 51.2298 76.7433 50.4286 78.3476C50.028 78.7487 50.028 79.5508 49.2267 79.5508C49.2267 79.1497 49.6273 78.3476 50.028 77.9465C50.8292 76.3422 51.6305 74.738 52.4317 73.1337C52.0311 73.1337 52.0311 72.7326 51.6304 72.7326C50.8292 73.9358 50.028 75.9412 49.2267 77.1444C48.8261 77.5455 48.8261 78.3476 48.0249 78.3476C48.8261 76.3422 50.028 74.738 51.2298 72.7326C50.028 72.3316 49.2267 71.9305 48.4255 71.9305ZM78.0715 73.1337C78.0715 72.7326 77.6709 72.7326 77.6709 72.3315C77.6709 71.9305 78.0715 71.9305 78.0715 71.9305C76.8696 71.1283 76.8696 74.738 78.0715 73.1337ZM80.4752 73.1337C80.8758 73.5348 81.6771 72.7326 82.0777 72.3315C81.6771 71.9305 80.4752 72.3316 80.4752 73.1337ZM78.8727 72.7326C78.8727 72.7326 79.2733 73.1337 79.674 72.7326V72.3315C79.2733 72.3315 78.8727 72.3316 78.8727 72.7326ZM79.674 73.9358C80.0746 73.9358 80.0746 73.9358 80.0746 73.5348C79.674 73.1337 79.2733 73.5348 79.674 73.9358ZM68.8572 74.3369V74.738C68.4565 75.5401 67.6553 76.7433 67.2547 77.9465C66.4534 79.1497 65.6522 80.3529 65.2516 81.9572C64.851 82.7594 64.4503 83.5615 64.0497 84.3636C63.6491 85.1658 62.4472 86.7701 63.2485 87.1711C63.6491 86.7701 63.6491 86.369 63.6491 85.9679H64.0497C64.4503 85.5668 64.851 84.7647 64.851 84.3636C65.2516 83.5615 65.6522 82.3583 66.0528 81.9572C66.4535 82.7594 65.2516 83.5615 66.0528 83.9626C66.4535 83.9626 66.4534 83.1604 66.8541 83.1604C67.2547 83.5615 66.4534 83.9626 66.4534 84.3636C66.4534 84.7647 66.8541 85.1658 67.2547 85.1658C67.6553 84.7647 67.6553 84.3636 68.0559 83.9626C68.0559 83.5615 67.6553 83.1604 68.0559 82.7594C68.4566 82.7594 68.4566 83.1604 68.4566 83.1604C68.8572 82.7594 68.4566 82.3583 68.4566 81.9572C68.0559 81.9572 68.0559 82.3583 67.6553 81.9572C68.8572 78.7487 70.4597 75.9412 71.6615 72.7326C70.4597 73.5348 69.6584 73.9358 68.8572 74.3369ZM76.469 75.5401C76.8696 75.5401 76.8696 75.1391 77.2702 74.738C77.2702 74.3369 76.8696 74.3369 76.8696 73.9358C76.0684 73.5348 76.0684 75.139 76.469 75.5401ZM78.0715 74.738C78.4721 74.738 78.8727 74.3369 78.8727 74.3369C78.4721 73.5348 78.0715 73.9358 78.0715 74.738ZM80.0746 74.738C80.0746 75.5401 80.8758 75.9412 80.8758 75.139C80.8758 74.3369 80.0746 73.9358 80.0746 74.738ZM66.4534 76.7433C65.2516 78.7487 64.0497 80.754 63.2485 82.3583C63.2485 82.3583 63.2485 82.3583 62.8478 82.3583C62.4472 83.5615 61.2454 85.1658 60.8447 86.369C60.8447 86.77 60.8447 87.1711 61.2454 87.5722C61.646 87.1711 61.646 86.369 61.646 85.9679C62.0466 85.9679 62.0466 85.9679 62.4472 85.9679C64.0497 81.9572 66.4534 78.7487 68.4566 74.738C67.2547 74.3369 66.8541 75.9412 66.4534 76.7433ZM66.4534 74.738C65.2516 75.9412 64.4503 77.9465 63.6491 79.5508C63.2485 79.9519 62.8479 80.754 63.6491 80.754C64.851 78.7487 66.0528 76.7433 67.2547 74.738C66.4534 74.738 66.4534 74.738 66.4534 74.738ZM78.8727 75.9412C79.2733 75.9412 79.2733 75.9412 79.674 75.5401C79.674 73.9358 77.6708 75.139 78.8727 75.9412ZM81.6771 75.5401C82.0777 75.9412 82.4783 75.139 82.0777 75.139C82.0777 75.139 81.6771 75.139 81.6771 75.5401ZM78.4721 75.9412C78.4721 74.738 76.8696 75.5401 77.2702 76.7433C77.6708 76.7433 78.4721 76.3422 78.4721 75.9412ZM80.4752 76.3422C80.8758 76.3422 81.2764 76.3422 81.2764 75.9412C81.2764 75.5401 80.4752 75.5401 80.4752 76.3422ZM73.6646 77.5455C74.0653 77.1444 74.0653 76.3422 73.6646 76.3422C72.8634 76.3422 73.264 77.1444 73.6646 77.5455ZM75.2671 77.9465C75.6677 77.9465 76.0684 77.5455 76.469 77.5455C76.469 77.1444 76.469 76.7433 76.469 76.3422C75.6677 76.3422 74.8665 77.1444 75.2671 77.9465ZM79.2733 76.7433C79.2733 77.1444 79.2733 77.1444 79.674 77.1444C80.0746 77.1444 80.0746 77.1444 80.4752 76.7433C80.0746 75.9412 79.2733 76.3423 79.2733 76.7433ZM74.8665 77.1444C74.8665 76.7433 74.8665 76.7433 74.8665 76.7433C74.4659 76.7433 74.4659 77.1444 74.8665 77.1444ZM80.8758 77.1444C81.2764 77.1444 81.6771 77.1444 81.6771 76.7433C80.8758 76.7433 80.8758 76.7433 80.8758 77.1444ZM77.6709 77.5455C79.674 77.5455 78.0715 75.9412 77.6709 77.5455ZM79.2733 77.9465C78.8727 77.9465 78.0715 77.9465 78.0715 78.3476C78.8727 78.3476 79.674 77.9465 80.4752 77.5455C80.4752 77.1444 79.6739 77.5455 79.2733 77.9465ZM73.6646 78.3476C73.6646 78.3476 74.0653 78.3476 74.4659 78.3476C74.4659 77.9465 74.4659 77.9465 74.0653 77.9465C74.0653 77.5455 73.6646 77.9465 73.6646 78.3476ZM72.4628 79.1497C72.8634 78.7487 73.264 77.9465 72.8634 77.5455C72.4628 77.9465 71.6615 78.7487 72.4628 79.1497ZM75.6678 78.7487C76.0684 78.7487 76.0684 78.3476 76.469 78.3476C76.8696 78.7487 77.6709 78.3476 77.6709 77.9465C77.2702 77.1444 75.2671 77.9465 75.6678 78.7487ZM75.2671 79.1497C75.2671 78.7487 74.8665 78.7487 74.4659 78.7487C73.264 79.1497 75.2671 79.9519 75.2671 79.1497ZM76.0684 79.9519C76.8696 79.5508 77.6709 79.5508 77.6709 78.7487C77.2702 78.3476 75.6677 79.1497 76.0684 79.9519ZM77.2702 79.9519C76.469 80.3529 75.6677 80.754 75.2671 81.1551C76.0684 81.1551 76.469 80.754 77.2702 80.3529C78.4721 79.9519 79.674 79.9519 79.674 78.7487C78.8727 79.1497 78.0715 79.5508 77.2702 79.9519ZM73.6646 79.5508C73.6646 78.7487 72.4628 78.7487 72.4628 79.9519C73.264 80.3529 73.6646 79.9519 73.6646 79.5508ZM72.0622 81.1551C72.4628 80.353 72.0622 79.9519 71.6615 79.5508C71.2609 79.9519 71.2609 81.1551 72.0622 81.1551ZM73.264 80.754C73.264 81.9572 75.2671 80.3529 74.0653 80.3529C73.6646 80.3529 73.264 80.353 73.264 80.754ZM75.6678 81.9572C75.6678 82.3583 75.6677 82.3583 76.0684 82.7594C76.469 82.7594 76.8696 81.9572 77.6709 82.3583C78.0715 81.9572 78.4721 81.1551 78.8727 80.754C78.0715 80.754 75.6678 81.5561 75.6678 81.9572ZM68.0559 81.9572H68.4566C68.4566 81.5561 68.4566 81.1551 68.0559 81.5562C68.4566 81.5562 68.0559 81.5561 68.0559 81.9572ZM71.6615 81.9572C71.6615 81.5561 71.2609 81.5562 71.2609 81.5562C71.2609 81.5562 71.2609 81.9572 71.6615 81.9572ZM71.6615 83.5615C72.4628 83.5615 73.264 83.1604 73.264 82.3583C72.8634 81.9572 71.6615 82.7594 71.6615 83.5615ZM74.8665 83.1604C75.2671 83.1604 75.2671 83.1604 75.2671 82.7594C75.2671 82.3583 74.8665 82.7594 74.8665 83.1604ZM74.8665 84.3636C75.6677 83.9626 76.8696 83.5615 76.8696 82.7594C76.469 83.1604 74.8665 83.5615 74.8665 84.3636ZM72.0622 84.3636C72.4628 84.3636 72.4628 84.3636 72.0622 84.3636C72.4628 84.3636 72.8634 84.3636 72.8634 83.9626C72.4628 83.5615 72.0622 83.9626 72.0622 84.3636ZM69.2578 85.1658C69.2578 84.7647 68.8572 83.9626 68.4566 83.9626C68.4566 84.3636 68.8572 84.7647 69.2578 85.1658ZM65.2516 85.5669C65.2516 85.1658 65.6522 85.1658 65.6522 84.3636L65.2516 83.9626C64.851 84.3636 64.851 85.1658 65.2516 85.5669ZM70.8603 85.1658C71.2609 85.1658 71.6615 85.1658 71.6615 84.7647C71.6615 83.9626 70.8603 84.7647 70.8603 85.1658ZM73.6646 85.1658C74.0653 85.1658 74.0653 84.7647 74.4659 84.7647C74.4659 84.3637 74.4659 84.3636 74.4659 84.3636C74.0653 84.3636 73.6646 84.7647 73.6646 85.1658ZM68.0559 86.7701C68.8572 86.7701 68.8572 85.1658 68.0559 85.1658C67.6553 85.1658 67.2547 86.369 68.0559 86.7701ZM66.8541 85.9679C66.8541 85.1658 65.6522 85.1658 65.6522 86.369C65.6522 86.77 66.0528 86.7701 66.0528 87.1711C66.4535 86.7701 66.8541 86.369 66.8541 85.9679ZM72.8634 86.369C72.4628 86.77 71.6615 86.7701 72.0622 87.5722C73.264 87.1711 74.4659 86.7701 74.8665 85.5669C74.0653 85.1658 73.6646 85.9679 72.8634 86.369ZM71.2609 85.9679C71.6615 85.9679 71.6615 85.9679 72.0622 85.5669C71.6615 85.1658 71.2609 85.5668 71.2609 85.9679ZM64.4503 85.5669C64.0497 85.5669 63.6491 86.7701 64.4503 86.7701C64.851 86.7701 64.851 85.5669 64.4503 85.5669ZM70.059 86.7701C70.4597 87.1711 70.8603 86.77 70.8603 86.369C70.8603 85.9679 70.059 86.369 70.059 86.7701ZM59.2423 88.7754C59.6429 87.9733 60.0435 86.77 59.2423 86.369C58.441 86.77 58.441 88.3743 59.2423 88.7754ZM64.851 87.5722C65.2516 87.5722 65.2516 87.9733 65.6522 87.9733C66.0528 87.5722 65.6522 86.7701 65.2516 86.7701C64.851 86.7701 64.851 87.1711 64.851 87.5722ZM64.0497 87.1711C63.6491 86.369 62.8479 87.9733 63.6491 88.3743C64.0497 88.3743 64.4503 87.9733 64.0497 87.1711ZM71.2609 87.9733C71.2609 86.369 69.6584 87.9733 71.2609 87.9733ZM71.2609 88.7754C72.4628 88.7754 73.264 88.3743 73.6646 87.5722C72.8634 87.5722 72.0621 87.9733 71.2609 88.7754ZM60.8447 88.3743C60.8447 87.9733 60.8447 87.5722 60.4441 87.5722C60.4441 87.9733 60.4441 87.9733 60.8447 88.3743ZM62.0466 88.7754C62.4472 88.7754 62.8479 87.5722 62.0466 87.5722C61.646 87.5722 61.646 88.7754 62.0466 88.7754ZM69.2578 87.9733C69.2578 88.3743 69.2578 88.3743 69.2578 88.7754C69.6584 88.7754 70.059 88.3743 70.059 88.3743C70.4597 87.5722 69.6584 87.5722 69.2578 87.9733ZM64.851 90.3797C65.2516 89.9786 65.2516 88.3743 64.4503 88.3743C64.0497 88.7754 64.4503 89.9786 64.851 90.3797ZM66.4534 89.5775C66.4534 89.1765 66.8541 88.3743 66.0528 88.3743C66.0528 88.7754 66.0528 89.1765 66.4534 89.5775ZM59.6429 89.5775C60.0435 89.5775 60.0435 88.7754 60.4441 88.7754C60.4441 88.3743 60.4441 88.3743 60.0435 88.3743C60.0435 88.7754 59.6429 89.1765 59.6429 89.5775ZM63.2485 89.1765C63.2485 87.5722 61.646 89.5775 62.8478 89.9786C63.2485 89.5775 63.2485 89.5776 63.2485 89.1765ZM68.4566 89.1765C68.4566 87.9733 67.2547 89.1765 68.4566 89.1765ZM61.646 89.5775C61.646 89.5775 61.646 89.1765 61.2454 89.1765C61.2454 89.1765 61.2454 89.5775 61.646 89.5775ZM69.6584 89.1765C69.6584 89.5776 70.0591 89.5775 69.6584 89.5775C69.2578 89.5775 69.2578 89.1765 68.8572 89.1765C68.8572 89.5776 68.8572 89.9786 69.2578 89.9786C70.059 89.5775 70.8603 89.5776 71.2609 88.7754C70.4597 88.7754 70.0591 89.1765 69.6584 89.1765ZM57.6398 91.5829C57.6398 91.984 59.2423 93.5882 59.6429 93.9893C60.8447 94.7914 62.0466 95.9947 63.2485 95.9947C63.6491 95.9947 64.851 95.9947 65.2516 95.9947C66.0528 95.9947 66.0528 94.7915 66.4534 94.7915C67.2547 94.3904 68.0559 94.3904 68.4566 93.1872C67.6553 93.1872 66.4534 94.7914 65.6522 94.3904C66.8541 92.7861 69.2578 92.7861 70.059 91.1818C68.4566 91.984 66.8541 92.7861 65.2516 93.5882C64.851 93.5882 64.851 93.5882 64.851 93.5882C64.4503 93.9893 64.4503 95.5936 63.6491 95.5936C63.6491 94.7915 64.851 93.9893 63.6491 93.5882C63.2485 93.9893 63.2485 95.1925 62.4472 95.1925C62.4472 94.7915 62.8479 93.5882 62.0466 93.5882C61.646 93.9893 62.0466 94.3904 61.2454 94.7915C60.8447 93.9893 61.646 93.1872 61.646 92.385C62.4472 91.5829 62.4472 91.1818 61.646 91.1818C61.2454 91.984 61.2454 93.1872 60.4441 93.1872C60.4441 92.385 60.8447 92.385 60.8447 91.984C60.0435 91.984 60.0435 91.5829 59.6429 91.1818C59.2423 91.5829 59.6429 92.7861 58.8416 92.7861C58.441 91.5829 59.6429 89.9786 58.0404 89.1765C58.441 89.9786 57.6398 90.7808 57.6398 91.5829ZM61.2454 91.5829C61.646 90.7808 61.646 89.5776 60.4441 89.1765C59.6429 89.9786 60.4441 91.1818 61.2454 91.5829ZM68.8572 91.1818C68.0559 91.1818 67.6553 91.1818 67.2547 91.984C67.2547 91.984 67.2547 91.984 67.6553 92.385C69.2578 91.5829 71.2609 90.7808 72.0622 89.5775C70.8603 89.9786 69.6584 90.3797 68.8572 91.1818ZM68.0559 90.7808C68.0559 90.3797 67.6553 90.3797 67.2547 89.9786C66.4534 90.7807 68.0559 91.5829 68.0559 90.7808ZM64.4503 91.984C64.4503 91.1818 64.0497 90.3797 63.6491 89.9786C63.2485 90.7807 63.6491 91.5829 64.4503 91.984ZM65.6522 91.984C65.6522 91.1818 66.4535 90.3797 66.0528 89.9786C65.2516 89.9786 64.851 91.984 65.6522 91.984ZM62.8478 91.1818C62.8478 90.7808 62.8479 90.3797 62.4472 90.3797C62.0466 90.7807 62.4472 91.1818 62.8478 91.1818ZM66.0528 92.7861C66.4535 92.7861 66.8541 92.7861 67.2547 92.385C66.8541 91.1818 65.6522 91.5829 66.0528 92.7861ZM63.6491 93.1872C64.0497 92.7861 63.6491 91.5829 63.2485 91.5829C62.8479 91.984 62.8479 93.1872 63.6491 93.1872ZM64.851 93.5882C65.2516 93.1872 65.2516 92.385 64.851 92.385C64.4503 92.385 64.4503 93.1872 64.851 93.5882Z" fill="#034166"/>
</g>
<defs>
<filter id="filter0_d_51_1656" x="0" y="0" width="128" height="128" filterUnits="userSpaceOnUse" color-interpolation-filters="sRGB">
<feFlood flood-opacity="0" result="BackgroundImageFix"/>
<feColorMatrix in="SourceAlpha" type="matrix" values="0 0 0 0 0 0 0 0 0 0 0 0 0 0 0 0 0 0 127 0" result="hardAlpha"/>
<feOffset dx="2" dy="4"/>
<feGaussianBlur stdDeviation="2"/>
<feComposite in2="hardAlpha" operator="out"/>
<feColorMatrix type="matrix" values="0 0 0 0 0 0 0 0 0 0 0 0 0 0 0 0 0 0 0.25 0"/>
<feBlend mode="normal" in2="BackgroundImageFix" result="effect1_dropShadow_51_1656"/>
<feBlend mode="normal" in="SourceGraphic" in2="effect1_dropShadow_51_1656" result="shape"/>
</filter>
</defs>
</svg>
