<svg width="128" height="128" viewBox="0 0 128 128" fill="none" xmlns="http://www.w3.org/2000/svg">
<g filter="url(#filter0_d_51_1597)">
<circle cx="62" cy="60" r="60" fill="white"/>
</g>
<g opacity="0.8">
<path fill-rule="evenodd" clip-rule="evenodd" d="M69.4935 22.8837C69.4935 23.635 68.743 24.3864 67.9925 24.762C67.242 25.5134 66.8667 26.2647 66.1162 26.6404C66.1162 25.8891 66.8667 25.5134 67.6172 24.762C67.9925 24.0107 68.743 23.635 69.4935 22.8837Z" fill="#034166"/>
<path fill-rule="evenodd" clip-rule="evenodd" d="M58.9864 30.773C58.6111 31.1486 58.2359 31.5243 57.4854 31.9C57.4854 31.5243 57.4854 31.5243 57.4854 31.5243C57.8606 31.5243 58.2359 30.3973 58.9864 30.773Z" fill="#034166"/>
<path fill-rule="evenodd" clip-rule="evenodd" d="M61.2381 34.5295C61.6133 35.6566 61.2381 37.5349 60.8628 38.662C61.2381 39.0376 62.7391 38.662 62.7391 39.4133C62.7391 40.1647 60.1123 39.789 60.1123 39.0376C60.1123 38.662 60.4876 37.5349 60.4876 37.1593C60.8628 36.4079 60.4876 35.6566 60.8628 34.9052C60.8628 34.5295 60.8628 34.5295 61.2381 34.5295Z" fill="#034166"/>
<path fill-rule="evenodd" clip-rule="evenodd" d="M56.7346 36.408C55.6089 35.2809 57.4852 34.5296 57.8604 35.6566C57.8604 36.0323 57.4852 36.408 56.7346 36.408Z" fill="#034166"/>
<path fill-rule="evenodd" clip-rule="evenodd" d="M65.7409 35.281C66.4914 34.9054 66.4914 36.7837 65.7409 36.4081C65.3657 36.7837 65.3657 35.6567 65.7409 35.281Z" fill="#034166"/>
<path fill-rule="evenodd" clip-rule="evenodd" d="M65.741 41.6674C66.1162 42.4188 64.9904 42.7944 64.6152 42.7944C63.4894 43.1701 62.7389 43.5458 61.2379 43.5458C60.4874 43.5458 60.1122 43.1701 59.3616 42.7944C58.9864 42.7944 56.7349 41.6674 57.8606 41.2917C59.3616 41.2917 60.1121 42.4188 61.6132 42.4188C62.3637 42.4188 62.7389 42.4188 63.1142 42.4188C64.2399 42.0431 64.6152 41.6674 65.741 41.6674Z" fill="#034166"/>
<path fill-rule="evenodd" clip-rule="evenodd" d="M71.3698 55.1917C71.3698 55.943 70.6193 56.3187 70.244 56.6944C69.8687 57.07 69.4935 57.4457 68.743 57.8214C67.9925 58.5727 67.242 59.6997 66.1162 60.0754C66.1162 59.3241 66.8667 58.9484 67.242 58.5727C68.3677 57.4457 69.8687 56.3187 71.3698 55.1917Z" fill="#034166"/>
<path fill-rule="evenodd" clip-rule="evenodd" d="M72.1205 56.6943C71.7452 57.4457 70.9947 58.197 70.2442 58.9484C69.8689 59.324 69.4937 59.6997 69.1184 60.0754C68.7432 60.4511 68.7432 61.2024 67.9927 60.8267C68.3679 60.0754 69.1184 59.3241 69.8689 58.5727C70.6195 57.8214 71.37 57.4457 72.1205 56.6943Z" fill="#034166"/>
<path fill-rule="evenodd" clip-rule="evenodd" d="M67.617 57.4458C67.617 57.8215 66.8665 58.5728 66.4912 58.5728C66.4912 58.1971 67.2417 57.4458 67.617 57.4458Z" fill="#034166"/>
<path fill-rule="evenodd" clip-rule="evenodd" d="M73.2458 67.2131C73.6211 67.5888 73.6211 67.2131 73.2458 67.2131C73.6211 67.9645 72.8706 67.9645 72.4953 68.3402C68.3675 71.3455 64.2397 74.3509 60.1119 77.3563C59.3614 77.732 58.6109 78.4834 57.8604 79.2347C57.1099 79.986 56.3594 80.3617 55.6089 80.7374C55.6089 80.3617 56.3594 79.986 56.7346 79.6104C61.9882 75.478 67.9923 71.3455 73.2458 67.2131Z" fill="#034166"/>
<path fill-rule="evenodd" clip-rule="evenodd" d="M61.9882 68.3403C62.3635 68.716 62.3635 68.3403 61.9882 68.3403C61.9882 69.0917 60.8624 69.4674 60.4872 69.843C56.3594 72.4727 52.6069 75.4781 48.4791 78.4835C47.7285 78.8592 47.3533 79.6105 46.2275 79.6105C46.6028 78.8592 47.3533 78.4835 48.1038 78.1079C52.6069 75.1025 57.4852 71.7214 61.9882 68.3403Z" fill="#034166"/>
<path fill-rule="evenodd" clip-rule="evenodd" d="M64.9905 70.97C63.4895 72.097 61.9884 72.8483 60.4874 73.9754C59.3617 74.7267 58.2359 75.4781 57.1101 76.2294C56.7349 76.6051 56.3596 76.9808 55.9844 76.6051C56.3596 75.8537 57.1101 75.4781 57.8606 75.1024C59.7369 73.5997 62.3637 72.4727 64.6152 70.97H64.9905Z" fill="#034166"/>
<path fill-rule="evenodd" clip-rule="evenodd" d="M70.2439 72.8484C70.2439 73.5997 69.1181 73.9754 68.7429 74.3511C64.9903 76.9808 60.112 79.6105 57.11 83.3673C57.11 83.7429 56.7347 84.1186 56.3595 84.1186C55.9842 83.7429 56.7347 83.3673 56.7347 83.3673C59.3615 80.3619 62.7388 78.1078 66.1161 75.8538C67.2418 75.1024 68.7429 73.9754 69.8686 73.2241C69.8686 72.8484 69.8686 72.8484 70.2439 72.8484Z" fill="#034166"/>
<path fill-rule="evenodd" clip-rule="evenodd" d="M72.4957 72.8484C72.1205 73.5997 71.37 73.9754 70.6195 74.3511C67.6174 76.6051 64.6154 78.4835 61.9886 81.1132C61.2381 81.8646 60.4876 82.6159 59.3618 83.3673C58.9866 83.3673 58.9866 83.7429 58.6113 83.7429C58.6113 82.9916 59.3618 82.6159 60.1123 82.2402C63.4896 79.2348 67.9927 75.8538 71.7452 73.2241C72.1205 72.8484 72.1205 72.8484 72.4957 72.8484Z" fill="#034166"/>
<path fill-rule="evenodd" clip-rule="evenodd" d="M59.7368 73.2241C59.3615 73.9755 58.2358 74.3511 57.8605 74.7268C56.3595 75.4782 55.2337 76.6052 54.108 77.7322C53.3575 78.1079 52.9822 78.8592 51.8564 78.8592C52.2317 78.1079 52.9822 77.7322 53.7327 77.3565C55.2337 75.8538 57.11 74.3511 59.7368 73.2241Z" fill="#034166"/>
<path fill-rule="evenodd" clip-rule="evenodd" d="M38.7227 74.7267L38.3475 75.1023C37.9722 75.478 37.597 75.8537 37.2217 76.2294C36.8465 76.605 36.4712 77.3564 35.7207 77.3564C35.7207 76.605 36.4712 76.2294 37.2217 75.8537C37.2217 75.478 37.597 74.7267 38.7227 74.7267Z" fill="#034166"/>
<path fill-rule="evenodd" clip-rule="evenodd" d="M71.745 33.027C72.1202 33.7783 71.3697 34.5296 71.745 35.281C71.745 35.6567 72.4955 36.0323 72.8708 36.7837C72.8708 37.1594 72.8708 37.9107 72.4955 38.2864C72.1203 39.0377 70.9945 39.4134 70.9945 39.7891C70.9945 40.1648 70.9945 40.5404 70.9945 41.2918C70.9945 42.0431 70.6192 42.4188 70.6192 43.1701C70.244 43.9215 69.1182 44.6728 69.1182 45.0485C69.1182 45.4242 69.4935 46.1755 69.4935 46.5512C69.4935 47.3026 69.8687 47.6782 70.244 48.0539C74.3718 49.9323 78.8748 50.6836 83.0026 52.1863C84.8789 52.9377 87.5057 54.0647 88.2562 55.943C88.6314 56.3187 88.6314 56.6944 88.6314 57.0701C89.0067 57.8214 89.3819 58.1971 89.3819 58.9484C89.7572 60.4511 90.1324 61.9538 90.1324 63.8322C90.1324 64.2079 90.5077 64.5835 90.5077 65.3349C90.883 67.2133 90.5077 69.4673 90.5077 71.7214C90.5077 72.8484 90.5077 73.9754 90.5077 74.7267C90.5077 75.8538 90.883 76.6051 90.883 77.7321C90.883 79.9862 90.883 82.2402 90.883 84.4943C90.883 85.2456 91.2582 85.6213 91.2582 86.7483C90.883 90.1294 89.7572 94.2618 88.2562 96.1402C86.7552 98.0185 84.1284 99.5212 81.8769 100.648C81.1264 101.024 80.3758 101.775 79.6253 102.151C79.2501 102.151 78.8748 102.151 78.4996 102.151C77.7491 102.151 76.9986 102.902 76.248 102.902C73.9965 103.278 72.4955 102.527 71.3697 101.4C70.9945 101.024 70.244 100.273 69.8687 99.5212C69.4935 98.3942 69.8687 97.2672 69.4935 96.1402C64.9904 96.5158 59.3616 96.1401 54.4833 96.5158C54.108 98.0185 54.4833 98.0185 54.4833 99.1455C54.108 100.273 52.607 101.775 51.106 102.151C49.9803 102.527 48.8545 102.527 48.104 102.527C47.3535 102.527 46.603 102.151 45.8525 101.775C45.4772 101.775 45.1019 101.775 44.7267 101.775C43.9762 101.775 43.2257 101.024 42.4752 100.273C39.4731 98.7699 36.4711 96.8915 34.9701 93.8861C34.5948 93.1348 34.2196 92.3834 34.2196 91.6321C33.8443 90.8807 33.8443 89.7537 33.4691 89.0023C33.4691 88.6267 33.0938 88.251 33.0938 88.251C33.0938 87.8753 33.0938 87.124 33.0938 86.3726C33.0938 84.4943 33.0938 82.9916 33.0938 81.1132C33.0938 79.9862 33.0938 78.8592 33.0938 77.3565C33.0938 76.2294 33.4691 75.1024 33.4691 73.9754C33.4691 71.3457 33.0938 68.716 33.4691 66.0862C33.4691 65.3349 33.8443 64.5836 33.8443 63.8322C33.8443 61.5782 34.2196 59.3241 35.3453 57.8214C35.7206 57.4457 35.7206 56.6944 36.0959 56.3187C37.2216 54.0647 41.3494 52.562 43.9762 51.8106C45.1019 51.435 46.2277 51.0593 47.7287 50.6836C49.605 50.308 51.4813 49.5566 52.9823 48.8053C54.108 48.4296 54.108 48.0539 54.8586 46.9269C55.2338 46.1755 55.2338 45.4242 55.2338 45.0485C55.2338 44.6728 54.4833 43.9215 54.108 43.1701C53.7328 42.4188 53.3575 41.6675 52.9823 41.2918C52.9823 40.9161 52.607 40.1647 52.607 40.1647C52.2318 39.7891 51.8565 39.7891 51.4813 39.4134C50.3555 38.6621 49.605 36.408 50.7308 35.281C51.106 34.9053 51.4813 34.9053 51.4813 34.5296C51.4813 34.154 51.4813 33.7783 51.4813 33.4026C51.4813 33.0269 51.4813 32.6513 51.4813 32.2756C51.4813 31.1486 50.3555 30.7729 50.3555 30.0216C50.3555 29.6459 50.3555 28.8945 50.3555 28.5189C50.3555 27.7675 51.106 26.6405 51.106 25.8891C51.4813 25.1378 51.8565 24.3865 52.2318 23.6351C52.9823 22.1324 54.1081 20.254 55.6091 19.5027C57.4853 18.7513 60.4874 18 63.1142 18C63.8647 18 64.6152 18 65.3657 18.3757C66.1162 18.7513 67.2419 19.127 67.9925 19.8784C68.3677 20.254 68.743 20.254 69.1182 20.6297C69.4935 21.0054 69.8687 21.0054 70.244 21.3811C70.6192 21.7567 70.9945 22.1324 71.3697 22.8838C72.1202 23.6351 72.8707 24.7621 73.246 25.8891C73.6213 26.6405 73.246 28.5189 73.246 29.2702C73.6213 30.0216 74.3718 30.7729 73.9965 31.8999C73.246 32.2756 72.4955 32.6513 71.745 33.027ZM59.7369 19.127C59.3616 19.5027 58.9864 20.6297 58.6111 21.3811C57.8606 23.6351 57.4853 26.6405 57.1101 28.8945C59.3616 29.2702 62.3636 29.2702 64.9904 29.2702C64.6152 28.5189 64.9904 27.0162 64.6152 26.6405C64.9904 26.2648 64.6152 25.8892 64.6152 25.5135C64.2399 25.5135 64.2399 25.8891 63.8646 25.8891C63.4894 25.5135 64.2399 25.1378 64.2399 24.7621C64.2399 24.3865 63.8647 24.0108 63.4894 23.6351C63.8647 23.2594 63.8647 22.8838 63.4894 22.5081C63.1141 22.5081 63.1141 22.8838 62.7389 22.5081C62.7389 22.1324 63.4894 21.3811 63.1142 21.0054C62.7389 21.0054 62.7389 21.7567 62.3636 21.3811C62.3636 21.0054 63.1141 20.254 62.7389 19.5027C61.9884 19.127 60.4874 18.7513 59.7369 19.127ZM69.1182 25.1378C69.4935 24.7621 70.6192 24.0108 70.6192 23.2594C70.6192 22.5081 69.4935 21.7567 68.743 21.3811C67.9925 20.6297 66.8667 20.254 65.7409 19.8784C64.9904 19.5027 64.2399 19.127 63.1142 19.127C63.4894 19.5027 63.4894 20.254 63.4894 20.6297C64.2399 20.6297 63.8647 19.8784 64.2399 19.5027C64.6152 20.6297 63.1141 21.0054 63.8646 22.1324C64.6152 21.7567 64.9904 20.6297 65.7409 20.6297C65.3657 21.7567 63.1141 22.5081 64.2399 23.6351C64.6152 23.2594 64.9904 22.5081 65.3657 22.1324C65.7409 21.7567 66.1162 21.0054 66.8667 21.0054C66.8667 22.5081 63.4894 23.6351 64.6152 25.1378C65.3657 24.3864 66.4914 23.2594 67.2419 22.5081C67.6172 22.1324 67.6172 21.3811 67.9925 21.7567C67.6172 23.2594 65.3657 24.7621 64.6152 26.2648C64.2399 27.0162 64.9904 28.1432 64.9904 28.8945C65.3657 28.8945 65.7409 29.2702 66.4914 29.2702C66.4914 28.5189 67.2419 28.5189 67.6172 28.1432C68.3677 27.3918 69.1182 26.2648 70.244 25.8891C70.6192 26.2648 69.8687 27.0162 69.4935 27.3918C69.1182 27.7675 68.743 28.1432 68.3677 28.5189C67.9924 28.8945 67.2419 28.8945 67.2419 29.6459C68.743 29.2702 69.4935 28.1432 70.6192 27.3918C70.6192 28.5189 69.1182 28.5189 68.743 29.6459C69.4935 30.0216 70.6192 28.8945 70.9945 28.1432C71.3697 27.0162 70.6192 25.5135 70.244 24.7621C69.1182 25.5135 68.3677 27.0162 67.2419 27.7675C66.8667 28.1432 66.4914 28.5189 66.1162 28.5189C67.6172 27.0162 68.3677 26.2648 69.1182 25.1378ZM55.2338 20.254C54.108 21.0054 52.9823 22.8838 52.2318 24.0108C51.4813 25.5135 50.7308 27.0162 50.3555 28.5189C52.2318 28.5189 54.4833 28.5189 56.3596 28.8945C57.1101 26.6405 57.1101 23.6351 58.2358 21.3811C58.2358 20.254 58.9863 19.8784 58.9863 19.127C57.8606 19.5027 55.9843 19.8784 55.2338 20.254ZM70.9945 28.8945H71.3697V28.5189C71.3697 28.5189 71.3697 28.5189 70.9945 28.8945ZM50.3555 29.6459C51.4813 32.6513 54.4833 33.4026 58.6111 33.4026C59.3616 33.0269 59.7369 32.6513 60.4874 32.2756C61.2379 31.8999 61.9884 31.5243 62.7389 31.5243C61.9884 32.6513 60.4874 32.6513 59.7369 33.4026C61.2379 33.7783 61.9884 33.0269 62.7389 32.6513C63.8647 32.2756 64.6152 31.5243 65.3657 31.1486C65.7409 30.7729 66.4914 30.7729 66.4914 30.3972C64.9904 30.3972 63.4894 30.0216 62.3636 30.3972C61.9884 30.3972 61.6131 30.7729 61.6131 30.7729C60.8626 31.1486 60.4874 31.1486 59.7369 31.5243C59.3616 31.8999 58.6111 32.2756 57.8606 32.2756C58.2358 31.8999 58.6111 31.5243 58.9863 31.5243C59.7369 31.1486 60.4874 30.7729 61.2379 30.3972C57.8606 30.0216 54.108 29.6459 50.3555 29.6459ZM72.4955 31.1486C72.4955 30.7729 72.1202 30.0216 71.745 29.6459C71.3697 29.6459 70.9945 29.6459 70.6192 30.0216C69.4935 30.0216 68.3677 30.0216 67.2419 30.3972C67.2419 30.3972 67.2419 30.7729 66.8667 30.7729C66.1162 31.1486 65.3657 31.5243 64.6152 31.8999C63.8647 32.2756 63.1141 32.6513 62.3636 33.4026C63.1141 33.4026 63.8647 33.4026 64.6152 33.4026C64.9904 32.6513 66.1162 32.6513 66.8667 31.8999C67.2419 31.5243 67.9924 31.1486 68.3677 31.1486C68.3677 31.5243 67.6172 31.8999 67.2419 32.2756C66.8667 32.6513 66.1162 32.6513 66.1162 33.027C67.2419 33.4026 67.6172 31.8999 68.743 32.2756C68.743 32.6513 67.9925 32.6513 67.9925 33.027C69.4935 32.6513 72.4955 32.2756 72.4955 31.1486ZM64.2399 34.154C60.8626 34.154 57.1101 34.5297 54.4833 33.7783C53.3575 33.4026 52.2318 32.6513 51.4813 32.2756C51.4813 32.2756 51.4813 32.2756 51.4813 32.6513C51.4813 33.4026 51.8565 34.154 51.8565 34.9053C51.4813 35.281 50.3555 35.281 50.3555 36.0323C49.9803 37.1594 51.106 37.9107 51.4813 38.6621C52.9823 38.6621 52.607 39.4134 52.9823 40.5404C53.3575 41.6675 54.108 42.7945 54.8586 43.5458C55.2338 43.9215 55.2338 44.2972 55.6091 44.2972C56.7348 45.4242 59.7369 46.5512 61.6131 46.5512C62.3636 46.5512 63.1141 46.1755 63.8646 46.1755C67.2419 45.4242 69.8687 43.9215 70.244 40.5404C70.244 40.1648 70.244 39.7891 70.244 39.4134C70.6192 38.6621 72.1202 38.6621 72.1202 37.1594C72.1202 36.408 71.3697 36.408 70.9945 35.6567C70.9945 34.9053 71.745 34.154 71.3697 33.027C69.1182 33.4026 66.8667 34.154 64.2399 34.154ZM61.9884 47.3026C61.6131 47.3026 61.2379 47.3026 61.2379 47.3026C58.6111 47.3026 56.7348 45.7999 55.2338 45.0485C55.2338 45.0485 55.2338 45.0485 55.2338 45.4242C54.8586 46.9269 54.4833 47.6782 54.108 48.8053C54.8586 50.308 55.6091 51.435 56.7348 52.1863C58.2358 53.3133 62.3636 54.0647 64.6152 53.3133C65.7409 52.9377 67.6172 51.8106 68.743 51.0593C69.1182 50.6836 70.244 49.5566 70.244 49.1809C70.244 48.8053 69.4935 48.4296 69.4935 48.0539C69.1182 47.3026 68.743 46.1755 68.3677 45.4242C66.1162 46.5512 64.2399 47.3026 61.9884 47.3026ZM49.605 50.6836C49.9802 53.3133 49.9803 57.8214 49.9803 60.8268C57.8606 60.8268 64.9904 61.2025 72.8708 61.2025C72.8708 60.8268 72.8708 60.4511 72.8708 60.4511C72.4955 60.4511 72.4955 61.2025 71.745 61.2025C71.745 60.0755 73.246 60.0755 72.8708 58.9484C71.745 59.3241 71.745 60.8268 70.6192 60.8268C70.9945 60.0755 71.3697 60.0755 71.745 59.3241C72.1202 58.9484 72.8708 58.5728 72.8708 58.1971C73.246 57.4458 72.8708 55.9431 72.8708 54.816C72.8708 53.3133 72.8707 52.1863 73.246 51.0593C72.4955 50.6836 71.745 50.3079 70.9945 50.3079C69.1182 52.562 66.4914 54.816 61.9884 54.816C56.7348 54.816 54.4833 52.562 52.607 49.1809C51.8565 49.9323 50.3555 49.9323 49.605 50.6836ZM48.104 51.0593C46.9782 51.8106 45.4772 51.8106 44.3514 52.1863C44.7267 54.816 45.1019 57.8214 45.1019 60.8268C46.2277 60.8268 47.7287 60.4511 49.2297 60.4511C48.8545 57.4457 49.2297 53.3133 48.8545 50.6836C48.104 51.0593 48.104 51.0593 48.104 51.0593ZM74.3718 51.0593C73.9965 54.4404 73.9965 57.8214 73.9965 61.2025C75.1223 61.2025 76.6233 61.2025 77.7491 61.2025C77.7491 58.1971 78.1243 55.1917 78.4996 52.562C77.3738 51.8106 75.8728 51.8106 74.3718 51.0593ZM37.9721 92.7591C38.3474 92.7591 38.3474 92.0077 39.0979 92.3834C38.3474 93.1348 37.9721 94.6375 36.8464 95.3888C36.4711 94.6375 37.2216 94.2618 36.8464 93.8861C37.2216 92.7591 37.9721 92.0077 38.7226 91.2564H39.0979C39.0979 90.8807 39.0979 90.505 39.0979 90.505C38.3474 91.2564 37.5969 92.3834 36.8464 93.5104C36.8464 93.8861 36.4711 94.2618 36.0959 94.2618C36.0959 93.5104 36.8464 92.7591 37.2216 92.0077C37.9721 91.2564 39.0979 90.505 39.0979 89.0023C38.3474 89.7537 37.2216 90.8807 36.4711 92.0077C36.0958 92.0077 36.0958 92.3834 35.3453 92.3834C34.9701 92.0077 35.7206 91.2564 35.7206 90.8807C36.4711 90.505 36.8464 89.7537 37.2216 89.0023C37.5969 88.251 38.3474 87.8753 38.3474 87.124C37.2216 87.8753 36.4711 89.0024 35.7206 90.1294C35.3453 90.505 35.3453 90.8807 34.9701 91.2564C34.9701 90.8807 35.3453 90.1294 35.3453 89.7537C36.0958 88.6267 37.2216 87.4997 37.9721 86.3726C37.2216 86.7483 36.8464 87.4997 36.0959 88.251C35.7206 89.0024 35.3453 89.7537 34.5948 90.1294C34.5948 89.0024 36.0958 88.251 36.4711 87.124C34.9701 87.4996 34.9701 89.0023 33.8443 89.7537C33.8443 89.0023 34.2196 88.6267 34.5948 87.8753C34.9701 87.4997 35.7206 86.7483 35.7206 86.3726C34.5948 86.3726 34.5948 87.8753 33.4691 87.8753C33.8443 87.4997 34.2196 87.124 34.5948 86.3726C34.2196 85.997 34.5948 85.6213 34.2196 84.8699C35.3453 83.7429 36.8464 82.9916 37.9721 81.4889C37.9721 81.1132 37.9721 80.3619 37.9721 79.9862C37.2216 80.3619 36.8464 81.1132 36.0959 81.4889C35.3453 82.2402 34.9701 82.9916 34.2196 82.9916C34.2196 82.6159 34.5948 82.2402 34.9701 82.2402C35.7206 81.1132 37.2216 79.9862 38.3474 79.2348C38.3474 78.8592 38.3474 78.8592 38.3474 78.4835C37.5969 78.8592 37.2216 79.2348 36.4711 79.9862C36.0958 80.3619 35.3453 81.4889 34.5948 81.4889C34.9701 80.7375 36.0958 80.3618 36.4711 79.6105C37.5969 78.8592 38.7226 78.4835 38.3474 76.6051C37.5969 76.9808 36.8464 77.7321 36.0959 78.4835C35.7206 78.8592 35.7206 79.6105 34.9701 79.2348C34.9701 78.8592 35.7206 78.4835 36.0959 78.1078C36.4711 77.7321 36.8464 77.3565 37.2216 76.9808C37.5969 76.6051 38.3474 76.2294 38.7226 75.8538C39.0979 75.1024 38.7226 73.9754 38.7226 73.2241C37.5969 73.5997 37.5969 75.4781 36.4711 75.4781C37.2216 74.3511 37.9721 73.5997 39.0979 72.4727C39.0979 68.716 39.0979 64.9592 39.8484 61.9538C40.9742 61.5782 42.4752 61.5782 43.9762 61.2025C44.3514 60.0755 44.3514 58.5728 43.9762 57.0701C43.9762 55.5674 43.6009 54.0647 43.2257 52.9377C42.0999 53.3133 40.9742 53.689 39.8484 54.0647C38.7226 54.4404 37.5969 55.1917 36.8464 55.943C36.4711 56.3187 36.0958 57.0701 35.7206 57.8214C35.3453 58.5728 34.9701 59.3241 34.5948 59.6998C34.2196 61.9538 33.8443 64.5835 33.4691 67.2133C33.4691 69.4673 33.4691 71.7214 33.4691 73.5997C33.4691 74.7267 33.4691 75.4781 33.0938 76.9808C33.0938 78.1078 33.0938 79.6105 33.0938 80.3618C33.0938 83.3672 32.7186 86.3726 33.4691 89.0023C33.8443 90.505 34.2196 92.3834 34.9701 93.5104C35.3453 94.2618 36.0958 95.3888 36.8464 95.7645C37.5969 95.0131 37.5969 93.5104 38.3474 93.1348C37.9721 93.8861 37.5969 95.3888 36.8464 96.1402C38.3474 97.6428 40.2236 99.1455 42.4752 99.8969C41.7247 99.1455 42.0999 97.6428 41.7247 96.5158C41.3494 96.5158 40.9742 96.8915 40.5989 96.8915C40.5989 95.7645 39.4731 96.5158 38.7226 96.1402C38.7226 96.1402 38.7226 96.8915 38.3474 96.5158C37.9721 96.1401 38.3474 96.1402 38.3474 95.7645C37.9721 95.7645 38.3474 96.1402 37.9721 96.1402C37.5969 95.3888 38.7226 94.6375 39.0979 93.8861C39.0979 93.5104 39.0979 92.7591 39.0979 92.3834C39.0979 92.0077 39.0979 91.2564 38.7226 90.8807C38.3474 91.6321 37.9721 92.0077 37.9721 92.7591ZM83.7531 98.0185C84.8789 97.2672 86.0047 96.5158 86.7552 95.3888C87.8809 93.8861 89.0067 91.2564 89.3819 89.0023C89.3819 88.251 89.7572 87.124 89.7572 86.3726C89.7572 85.997 89.7572 85.997 89.3819 85.6213C89.3819 85.2456 89.3819 84.4943 89.3819 84.1186C89.0067 82.2402 89.3819 80.3619 89.3819 78.1078C89.3819 76.9808 89.0067 75.8538 89.0067 74.3511C89.0067 73.5997 89.0067 72.4727 89.0067 71.7214C89.0067 70.2187 89.3819 68.3403 89.0067 66.8376C89.0067 64.5836 88.6314 62.3295 88.2562 60.0755C88.2562 59.6998 88.2562 59.3241 88.2562 58.9484C87.8809 57.4457 86.7552 56.3187 86.3799 55.1917C84.5036 53.689 82.6274 52.562 80.0006 52.1863C79.6253 54.4404 78.8748 57.8214 79.6253 60.4511C81.5016 60.4511 83.3779 60.4511 83.7531 61.5782C84.1284 63.0809 84.1284 66.0862 84.1284 67.9646C84.1284 69.0916 84.1284 70.2187 84.1284 71.3457C84.8789 70.97 85.2541 69.4673 86.0046 69.0916C86.0046 70.5943 83.7531 71.3457 84.1284 73.2241C84.8789 72.8484 84.8789 71.7214 85.6294 71.7214C85.6294 72.8484 83.7531 73.5997 84.1284 74.7267C84.5036 74.3511 84.8789 73.9754 85.2541 73.5997C85.6294 73.224 86.0046 72.4727 86.3799 72.4727C85.6294 73.9754 83.7531 74.3511 84.1284 76.9808C84.8789 76.6051 85.2541 75.4781 86.0046 75.1024C86.7552 74.3511 87.1304 73.5997 88.2562 73.2241C88.2562 73.5997 87.8809 73.9754 87.5057 74.3511C87.1304 74.7267 86.7552 75.1024 86.3799 75.4781C85.6294 76.6051 84.5036 77.7321 84.5036 78.8592C85.6294 78.1078 86.0047 76.9808 86.7552 76.2294C87.1304 75.8538 87.5057 75.1024 88.2562 75.1024C87.8809 75.8538 87.1304 76.6051 86.3799 77.3565C85.6294 78.4835 84.5036 79.2348 84.5036 80.7375C85.6294 79.9862 86.3799 78.8592 87.5057 77.7321C87.8809 77.3565 88.2562 76.9808 88.6314 76.9808C87.8809 78.1078 86.7552 78.8592 86.0046 79.9862C85.6294 80.7375 84.8789 81.1132 84.5036 82.2402C85.2541 81.8645 85.6294 81.1132 86.3799 80.7375C86.7552 80.3619 87.5057 79.2348 88.2562 79.2348C87.8809 79.9862 87.1304 80.7375 86.3799 81.1132C86.0046 81.4889 85.6294 81.8645 85.2541 82.2402C84.8789 82.6159 84.5036 82.9916 84.5036 83.3672C85.2541 83.3672 85.6294 82.6159 86.0046 82.2402C86.3799 81.8645 86.7552 81.1132 87.5057 81.4889C87.1304 82.2402 86.0047 82.6159 85.6294 83.3672C86.7552 83.3672 87.1304 81.8645 88.2562 81.8645C87.8809 82.6159 86.7552 82.6159 86.7552 83.7429C87.8809 83.7429 88.2562 82.2402 89.3819 82.6159C89.0067 83.3672 87.8809 83.3672 87.8809 84.4943C87.8809 84.8699 88.2562 84.4943 88.2562 84.8699C88.2562 85.2456 87.8809 85.2456 87.8809 85.6213C88.2562 85.997 89.3819 86.3726 88.2562 86.7483H88.6314C88.6314 87.124 88.2562 87.124 88.6314 87.4997C89.0067 87.8753 89.7572 88.6267 89.3819 89.0023C89.0067 89.0023 89.0067 88.6267 88.6314 88.251C88.2562 88.251 87.8809 88.6267 87.8809 89.0023C87.8809 89.378 88.2562 89.378 88.2562 90.1294C87.8809 90.505 87.8809 90.1294 87.5057 89.7537C87.5057 90.505 88.2562 90.8807 88.2562 91.6321C87.5057 91.2564 87.5057 90.1294 86.7552 89.7537C85.2541 90.505 87.5057 92.3834 87.1304 93.1348C86.7552 92.7591 86.7552 92.0077 86.0046 91.6321C85.2541 92.3834 86.7552 93.5104 86.3799 93.8861C85.6294 93.8861 85.6294 92.7591 85.2541 92.3834C83.3779 93.1348 85.6294 94.6375 85.2541 95.7645C84.5036 95.7645 84.8789 93.8861 84.1284 93.8861C84.1284 94.2618 84.8789 95.0131 84.5036 95.7645C83.7531 95.3888 84.1284 94.2618 83.3779 94.2618C83.0026 95.7645 84.1284 96.8915 83.7531 98.0185C83.3779 97.6428 83.3779 97.2672 83.0026 96.8915C83.0026 96.8915 83.0026 97.2672 82.6274 96.8915C82.2521 96.5158 82.2521 95.3888 81.5016 95.0131C81.5016 95.7645 82.2521 96.8915 81.8769 97.6429C81.5016 96.8915 81.5016 95.0131 80.3758 95.3888C80.3758 96.5158 80.7511 99.1455 80.0006 100.273C81.5016 99.5212 82.6274 98.7699 83.7531 98.0185ZM40.5989 62.7052C39.4731 66.8376 40.5989 72.097 40.2236 76.9808C40.2236 78.8592 40.2236 80.7375 40.2236 82.2402C40.2236 82.9916 40.2236 83.3672 39.8484 84.1186C39.4731 87.4997 40.2236 90.505 40.2236 93.5104C40.2236 94.2618 40.2236 95.3888 40.5989 96.1402C42.4752 96.5158 42.4752 95.7645 43.2257 95.0131C43.6009 95.0131 43.6009 95.0131 43.9762 94.6375C43.6009 92.7591 44.3514 90.505 46.603 91.6321C46.9782 90.8807 48.104 90.8807 48.8545 91.2564C49.2297 90.8807 49.605 90.8807 50.3555 90.8807C50.3555 90.1294 50.3555 89.378 50.3555 88.6267C49.605 88.6267 47.7287 89.0023 47.7287 87.8753C47.7287 87.4997 48.4792 87.124 48.8545 86.7483C49.605 85.997 50.3555 85.2456 51.4813 84.4943C52.2318 83.7429 52.607 84.1186 53.3575 84.4943C53.7328 84.8699 54.4833 84.8699 54.8586 85.2456C55.2338 85.6213 55.6091 85.997 55.9843 86.3726C56.3596 86.7483 56.7348 86.7483 57.1101 86.7483C57.4853 87.124 57.1101 87.4997 57.4853 87.4997C57.8606 87.4997 58.2358 86.7483 58.6111 87.124C57.4853 88.6267 55.6091 89.378 54.108 90.505C54.108 90.8807 54.108 91.6321 54.108 92.0077C55.2338 91.6321 55.9843 90.8807 57.1101 90.1294C58.2358 89.378 58.9864 89.0024 59.7369 88.251C59.3616 87.8753 58.6111 87.8753 58.6111 87.4997C58.6111 86.7483 59.7369 86.3726 60.1121 85.6213C60.4874 84.8699 61.2379 84.4943 61.9884 83.7429C62.3636 83.3672 62.3636 82.6159 63.1142 82.6159C63.4894 82.6159 63.4894 83.3672 63.8646 83.3672C64.2399 83.3672 64.9904 82.6159 65.3657 82.6159C65.7409 82.2402 66.4914 81.8645 66.8667 81.4889C68.743 79.9862 70.6192 78.8592 72.4955 77.3565C73.6213 76.6051 74.3718 75.8538 75.4975 75.4781C75.4975 76.2294 74.747 76.2294 74.3718 76.6051C73.9965 76.9808 73.6213 77.3565 73.246 77.7321C70.6192 79.9862 67.6172 81.8645 64.9904 84.1186C65.7409 85.2456 66.4914 84.8699 67.2419 84.1186C69.8687 82.2402 72.4955 79.9862 75.1223 78.1078C75.4975 77.7321 75.8728 77.3565 76.6233 77.3565C76.6233 77.7321 75.8728 78.1078 75.4975 78.4835C72.8708 80.3618 70.244 82.6159 67.9925 84.1186C67.6172 84.4943 66.8667 84.8699 66.8667 85.2456C67.2419 85.6213 67.6172 84.8699 67.9925 84.8699C69.8687 83.3672 71.745 81.8646 73.246 80.7375C73.9965 80.3619 74.747 79.2348 75.4975 79.2348C75.1223 79.9862 74.3718 80.3619 73.6213 80.7375C71.745 81.8646 70.244 83.3672 68.3677 84.8699C67.6172 85.6213 66.8667 85.997 67.9925 86.3726C70.6192 84.8699 72.8707 82.6159 75.1223 81.1132C75.4975 80.7375 75.8728 80.3619 76.248 80.7375C73.9965 83.3672 70.9945 84.8699 68.743 87.124C70.244 88.6267 67.2419 88.251 66.4914 88.6267C66.4914 89.0023 66.4914 89.7537 66.4914 90.1294C67.6172 89.7537 68.3677 89.0024 69.1182 88.251C71.3697 86.7483 73.6213 85.2456 75.4975 83.3672C75.8728 82.9916 76.248 82.6159 76.6233 82.6159C76.6233 82.9916 75.8728 83.3672 75.4975 83.7429C72.4955 86.3726 69.1182 88.251 66.1162 90.8807C66.1162 91.2564 66.1162 91.6321 66.1162 92.0077C67.9925 90.8807 69.8687 89.0024 71.745 87.4997C73.246 86.3726 74.747 85.2456 76.248 84.4943C76.6233 84.1186 77.3738 83.7429 78.1243 83.7429C77.7491 84.4943 76.9985 84.4943 76.6233 84.8699C75.1223 85.997 73.6213 86.7483 72.1202 87.8753C70.6192 89.0023 69.1182 90.1294 67.6172 91.2564C66.8667 92.0077 66.1162 92.3834 66.1162 93.5104C67.2419 93.1348 67.9925 92.3834 68.743 91.6321C70.9945 90.1294 73.246 88.251 75.4975 86.3726C75.8728 85.997 76.248 85.6213 76.9985 85.6213C76.9985 85.997 76.6233 86.3726 76.248 86.3726C73.6213 88.251 71.3697 90.1294 68.743 92.0077C67.9925 92.7591 66.4914 93.1348 66.1162 94.2618C66.4914 94.2618 66.8667 93.8861 67.2419 93.5104C69.4935 92.0077 71.3697 90.1294 73.6213 88.6267C74.3718 87.8753 75.4975 87.124 76.248 86.7483C75.1223 87.8753 73.9965 88.6267 72.4955 89.7537C72.1203 90.1294 71.3697 90.1294 71.3697 90.8807C71.745 91.2564 72.1202 90.505 72.8708 90.505C73.6213 90.505 73.9965 90.505 74.3718 90.8807C74.747 90.1294 76.248 90.505 76.6233 91.2564C78.4996 90.505 79.2501 92.7591 79.2501 94.6375C80.3758 94.6375 81.5016 94.6375 82.6274 94.2618C83.0026 91.6321 82.6274 89.0023 82.6274 85.997C82.6274 82.9916 83.0026 80.3618 82.6274 77.7321C82.2521 72.4727 83.0026 67.2133 81.8769 62.3295C81.8769 62.3295 81.1263 62.3295 80.7511 62.3295C76.248 61.9538 70.6192 62.7052 65.7409 62.3295C64.9904 62.3295 64.2399 61.9538 63.8646 62.3295C63.8646 63.4565 64.6152 64.9592 63.8646 65.7106C63.1141 66.4619 60.1121 65.3349 58.9863 65.7106C58.2358 64.9592 58.6111 63.0809 58.6111 62.3295C52.607 61.9538 45.8525 61.5782 40.5989 62.7052ZM38.3474 82.9916C37.9721 83.3672 37.2216 83.7429 36.8464 84.4943C37.2216 84.4943 37.9721 84.4943 38.7226 84.4943C38.7226 83.7429 38.7226 82.9916 38.3474 82.9916ZM35.7206 85.6213C36.0958 85.2456 36.4711 85.2456 36.8464 84.8699C36.0958 84.8699 35.7206 85.2456 35.7206 85.6213ZM35.7206 85.997C36.8464 86.3726 37.5969 84.8699 38.7226 85.2456V84.8699C37.5969 85.2456 36.0958 85.2456 35.7206 85.997ZM84.8789 85.997C85.2541 85.997 85.2541 85.6213 84.8789 85.997C85.2541 85.6213 84.8789 85.6213 84.8789 85.997ZM86.7552 87.124C87.1304 87.4996 87.1304 87.4996 87.1304 87.124C87.1304 87.124 87.1304 86.7483 86.7552 87.124ZM86.0046 88.251C86.3799 88.251 86.3799 88.251 86.3799 87.8753C86.3799 87.4997 86.0046 87.8753 86.0046 88.251ZM55.9843 91.2564C55.6091 91.6321 54.4833 92.0077 54.108 92.3834C53.7328 92.7591 54.108 93.8861 54.108 94.2618C56.7348 92.7591 58.9864 90.8807 61.2379 89.378C61.2379 89.0024 61.6131 87.8753 60.8626 87.8753C60.1121 88.6267 57.8606 90.1294 55.9843 91.2564ZM54.108 87.8753C54.108 88.251 54.108 89.0024 54.108 89.378C54.8586 89.0024 55.6091 88.6267 55.9843 87.8753C55.6091 87.8753 54.8586 88.251 54.108 87.8753ZM84.1284 88.6267C84.8789 88.6267 84.8789 88.6267 84.8789 88.251C84.5036 87.8753 84.1284 87.8753 84.1284 88.6267ZM86.7552 88.6267L87.1304 88.251C86.7552 88.251 86.3799 88.251 86.7552 88.6267ZM87.1304 89.378C87.5057 89.378 87.8809 89.0023 87.8809 88.6267C87.1304 88.6267 87.1304 89.0024 87.1304 89.378ZM84.8789 89.378C85.2541 89.378 85.2541 89.0023 85.2541 89.0023C85.2541 89.0023 84.8789 89.0024 84.8789 89.378ZM61.6131 90.1294C59.7369 91.2564 57.8606 92.7591 55.9843 93.8861C55.6091 94.2618 54.4833 94.6375 54.4833 95.3888C55.9843 95.7645 56.3596 95.0131 57.1101 94.2618C58.6111 93.1348 60.4874 92.3834 61.6131 91.2564C61.6131 90.8807 61.9884 90.1294 61.6131 90.1294ZM84.1284 90.505C84.5036 90.505 84.5036 90.1294 84.1284 90.505C84.1284 90.1294 84.1284 90.1294 84.1284 90.505ZM85.6294 90.505C86.0047 90.505 86.0046 90.505 86.0046 90.1294C85.6294 90.1294 85.6294 90.505 85.6294 90.505ZM84.1284 93.1348C84.5036 93.1348 84.8789 92.7591 84.8789 92.3834C84.8789 92.3834 84.5036 92.3834 84.5036 92.0077C84.5036 91.6321 84.5036 91.6321 84.5036 91.2564C84.1284 92.0077 84.1284 92.7591 84.1284 93.1348ZM85.2541 92.0077C85.6294 92.0077 85.6294 91.6321 85.6294 91.6321C85.2541 91.2564 84.8789 91.6321 85.2541 92.0077ZM51.4813 96.1402C51.4813 96.5158 51.106 96.8915 51.106 96.8915C50.3555 96.8915 50.7308 94.6375 50.7308 93.8861C50.7308 93.5104 50.3555 91.6321 49.9803 91.6321C48.8545 92.0077 49.605 94.6375 49.2297 95.3888C49.605 95.7645 49.605 97.2672 48.8545 96.8915C48.4792 96.1402 48.4792 94.6375 48.4792 93.8861C48.4792 93.1348 48.8545 92.0077 48.104 92.0077C47.7287 93.1348 47.7287 94.2618 47.7287 95.7645C47.7287 96.5158 48.104 97.2672 47.3535 96.8915C46.603 96.8915 46.9782 95.7645 46.9782 95.0131C46.9782 94.6375 46.9782 94.6375 46.603 94.2618C46.603 93.1348 46.9782 92.0077 46.2277 92.0077C45.4772 92.0077 45.8525 93.1348 45.8525 93.8861C45.8525 94.6375 45.4772 95.0131 45.4772 95.3888C45.8525 95.7645 45.8525 96.1402 45.8525 96.8915C46.603 97.2672 48.104 98.3942 49.2297 98.3942C51.106 98.7699 52.607 97.6428 53.7328 96.8915C53.7328 96.5158 53.7328 95.7645 53.7328 95.3888C53.7328 93.8861 54.108 91.6321 52.607 91.6321C51.106 92.7591 51.8565 94.2618 51.4813 96.1402ZM73.9965 93.8861C73.9965 93.5104 73.9965 92.7591 73.9965 92.3834C73.6213 91.2564 72.4955 92.0077 72.4955 92.7591C72.4955 93.1348 72.4955 93.8861 72.4955 94.2618C72.4955 94.6375 72.4955 95.0131 72.1202 95.0131C72.1202 95.7645 72.4955 96.5158 71.745 96.5158C70.6192 96.1401 71.745 93.1348 70.9945 92.3834C70.6192 92.7591 70.244 93.8861 70.244 94.6375C70.244 95.3888 69.8687 96.1401 69.8687 96.5158C69.8687 97.2672 71.745 98.0185 72.4955 98.0185C74.3718 98.3942 76.6233 97.6428 77.3738 96.5158C77.7491 96.1401 77.7491 95.0131 77.7491 94.2618C77.7491 94.2618 77.7491 93.8861 77.3738 93.5104C77.3738 92.7591 77.7491 91.6321 76.9985 91.6321C76.6233 91.6321 76.6233 92.0077 76.248 92.0077C76.6233 93.5104 75.8728 95.3888 75.8728 96.5158C75.1223 96.5158 75.4975 95.0131 75.4975 94.2618C75.4975 93.5104 75.4975 92.0077 75.1223 91.2564C74.3718 91.6321 74.747 92.3834 74.747 93.1348C74.747 93.5104 74.747 93.8861 74.3718 93.8861C74.3718 94.6375 74.747 95.7645 73.9965 95.7645C74.3718 95.7645 74.3718 94.6375 73.9965 93.8861ZM61.6131 92.0077C60.8626 92.7591 60.1121 93.1348 58.9863 93.8861C58.2358 94.2618 57.1101 94.6375 56.7348 95.3888C57.1101 95.3888 57.4853 95.3888 57.8606 95.3888C57.8606 95.3888 57.8606 95.0131 58.2358 95.0131C58.9863 94.2618 59.7369 93.8861 60.4874 93.5104C61.2379 93.1348 61.9884 92.7591 61.6131 92.0077ZM66.4914 95.0131C67.2419 95.0131 68.743 95.0131 69.4935 95.0131C69.4935 93.8861 69.8687 92.7591 70.244 92.0077C68.743 93.1348 67.2419 93.8861 66.4914 95.0131ZM61.6131 93.1348C60.8626 93.8861 59.3616 94.2618 58.9863 95.0131C59.3616 95.0131 60.1121 94.6375 60.4874 94.2618C61.2379 94.2618 61.9884 93.8861 61.6131 93.1348ZM60.8626 95.0131C61.2379 95.0131 61.6131 95.0131 61.9884 95.0131C61.9884 94.6375 62.3636 94.2618 61.9884 94.2618C61.2379 94.6375 60.8626 94.6375 60.8626 95.0131ZM38.7226 95.7645C39.0979 95.7645 39.0979 95.3888 38.7226 95.3888C39.0979 95.3888 38.7226 95.3888 38.7226 95.7645ZM43.6009 97.6429C43.6009 97.6429 43.6009 97.2672 43.6009 96.8915C43.6009 96.8915 43.6009 96.8915 43.2257 96.8915C43.6009 96.8915 43.2257 97.2672 43.6009 97.6429ZM44.7267 98.0185V97.6429C44.7267 97.6429 44.7267 97.6429 44.3514 97.6429C44.3514 97.6429 44.3514 98.0185 44.7267 98.0185ZM49.9803 99.5212C49.605 99.8969 50.3555 100.648 49.9803 101.024C49.605 100.648 49.9803 99.5212 49.2297 99.5212C48.8545 99.8969 49.605 101.024 49.605 101.4C51.4813 101.024 52.607 99.8969 52.9823 98.3942C51.8565 98.7699 51.106 99.5212 49.9803 99.5212ZM70.6192 99.5212C70.6192 99.1455 70.6192 98.7699 70.244 98.7699C70.244 98.7699 70.6192 99.1455 70.6192 99.5212ZM45.4772 100.273C45.102 100.273 45.4772 99.8969 45.1019 99.8969C45.1019 100.273 44.7267 100.273 44.7267 100.273C45.1019 100.648 45.8525 101.024 46.603 101.024C46.603 100.648 46.603 100.648 46.603 100.273C46.2277 100.273 46.2277 100.648 45.8525 100.273C45.8525 99.8969 45.8525 99.1455 45.8525 98.3942C45.4772 98.3942 45.4772 98.0185 45.4772 98.0185C45.4772 99.1455 45.8525 99.8969 45.4772 100.273ZM76.9985 101.024C76.6233 100.648 76.9985 99.5212 76.6233 99.1455C75.8728 99.1455 76.6233 100.648 76.248 100.648C75.8728 100.273 76.248 99.5212 76.248 99.1455C75.8728 99.1455 75.8728 99.1455 75.8728 99.1455C75.4975 99.5212 75.8728 100.648 75.4975 101.024C75.4975 100.648 75.1223 100.648 74.747 100.273C74.747 99.8969 74.747 99.5212 74.3718 99.5212C73.9965 99.8969 74.3718 100.648 73.9965 101.024C73.246 101.024 73.9965 99.8969 73.6213 99.5212C73.6213 99.8969 73.6213 100.273 73.246 100.273C72.8707 99.8969 73.6213 99.1455 72.8708 99.1455C72.4955 99.5212 72.8708 99.8969 72.4955 99.8969C72.1203 99.8969 72.1202 99.5212 71.745 99.5212C71.745 99.1455 72.1202 98.3942 71.3697 98.3942C71.3697 98.7699 70.9945 99.1455 71.3697 99.1455C71.3697 99.8969 72.8708 100.648 73.6213 100.648C75.4975 101.024 78.4996 100.273 79.2501 99.1455C78.8748 99.1455 78.8748 99.5212 78.4996 99.5212C78.1243 99.1455 78.4996 98.3942 78.1243 98.3942C78.1243 98.7699 78.1243 99.8969 77.7491 99.8969C77.3738 99.5212 77.7491 98.7699 77.7491 98.3942C76.6233 98.7699 77.3738 100.648 76.9985 101.024ZM78.8748 99.1455C78.8748 99.5212 78.8748 99.5212 78.8748 99.1455C79.2501 99.5212 79.2501 99.5212 78.8748 99.1455ZM46.9782 101.4C47.3535 101.4 48.4792 101.4 49.2297 101.4C48.8545 101.024 49.2297 99.8969 48.4792 99.5212C48.4792 100.273 49.2297 101.024 48.4792 101.4C48.104 101.4 48.4792 101.024 48.104 100.648C47.7287 100.648 48.104 101.024 47.7287 101.024C47.3535 100.648 47.7287 99.5212 46.9782 99.5212C46.603 99.8969 47.3535 100.648 46.9782 101.4ZM44.3514 99.8969V99.5212C43.9762 99.5212 43.9762 99.8969 44.3514 99.8969Z" fill="#034166"/>
</g>
<defs>
<filter id="filter0_d_51_1597" x="0" y="0" width="128" height="128" filterUnits="userSpaceOnUse" color-interpolation-filters="sRGB">
<feFlood flood-opacity="0" result="BackgroundImageFix"/>
<feColorMatrix in="SourceAlpha" type="matrix" values="0 0 0 0 0 0 0 0 0 0 0 0 0 0 0 0 0 0 127 0" result="hardAlpha"/>
<feOffset dx="2" dy="4"/>
<feGaussianBlur stdDeviation="2"/>
<feComposite in2="hardAlpha" operator="out"/>
<feColorMatrix type="matrix" values="0 0 0 0 0 0 0 0 0 0 0 0 0 0 0 0 0 0 0.25 0"/>
<feBlend mode="normal" in2="BackgroundImageFix" result="effect1_dropShadow_51_1597"/>
<feBlend mode="normal" in="SourceGraphic" in2="effect1_dropShadow_51_1597" result="shape"/>
</filter>
</defs>
</svg>
