<svg width="128" height="128" viewBox="0 0 128 128" fill="none" xmlns="http://www.w3.org/2000/svg">
<g filter="url(#filter0_d_51_1481)">
<circle cx="62" cy="60" r="60" fill="white"/>
</g>
<g opacity="0.8">
<path fill-rule="evenodd" clip-rule="evenodd" d="M91.019 62.4181C92.05 68.0953 97.2053 72.2241 96.1743 78.9335C95.6587 81.5141 94.6277 82.5463 92.0501 83.5785C91.019 84.0946 89.9879 84.6107 88.9568 84.6107C85.8637 85.1268 82.2549 85.6429 78.6462 85.6429C75.553 86.159 71.9444 85.6429 68.8512 85.6429C67.3046 85.6429 65.758 86.159 64.2114 86.159C62.6648 86.159 61.1182 86.159 59.5716 86.159C58.5406 86.159 58.025 86.6751 56.994 86.6751C54.9318 86.6751 52.8697 86.6751 50.8076 86.6751C48.7455 86.6751 46.6833 86.6751 45.1367 86.6751C43.5902 86.6751 41.528 86.159 39.9814 85.6429C36.3727 84.6107 33.2795 84.0946 32.2485 80.4819C31.733 73.2564 34.3106 68.6114 34.8261 62.9342C33.2795 62.9342 31.733 62.9342 30.1864 62.4181C27.0932 60.8698 24.5155 57.7731 24 54.1604C24 52.6121 24 50.5476 24 48.9993C24.5155 46.9349 25.5466 45.3866 26.5777 43.3221C27.6087 41.7738 28.6398 40.2255 30.1864 39.1933C34.8262 35.5805 42.5591 35.5805 49.7765 34.0322C52.3542 33.5161 54.4163 33 56.994 33C59.0561 33 61.6338 33 63.6959 33C66.2735 33 69.8822 33 72.9754 33.5161C76.0686 34.0322 79.1618 34.0322 82.255 34.5483C85.3481 35.0644 88.4413 35.0644 91.019 36.0966C92.5656 36.6128 94.6277 37.645 95.6588 38.1611C98.7519 39.7094 100.299 42.806 100.814 46.9349C101.33 51.0637 100.814 55.1926 98.7519 57.7731C98.2364 58.2893 97.2053 58.8054 96.6898 59.8376C94.6277 60.8698 93.0811 61.3859 91.019 62.4181ZM81.2239 55.7087C81.2239 57.257 82.7705 58.8054 83.8015 59.8376C84.3171 60.3537 85.8637 61.3859 86.3792 61.3859C87.4102 61.3859 88.9569 61.3859 89.9879 60.8698C92.5656 60.3537 93.5966 59.3215 95.1432 57.7731C95.6588 57.257 96.6898 56.7409 97.2054 56.2248C99.2675 53.6443 99.2675 50.5476 98.7519 46.4188C98.2364 41.7738 96.1743 39.7094 92.5656 38.1611C89.9879 37.1289 86.8947 36.6128 83.286 36.0966C82.255 36.0966 81.2239 35.5805 80.1928 35.5805C76.5841 35.0644 72.9754 35.0644 69.3667 34.5483C67.8201 34.5483 65.2425 34.0322 63.6959 34.5483C61.6338 35.0644 59.5716 34.5483 56.994 34.5483C54.9318 34.5483 52.8697 35.0644 50.8076 35.5805C45.1368 36.6127 38.4349 37.1289 33.7951 39.1933C30.7019 40.7416 28.6398 42.806 27.0932 45.9027C26.5776 46.9349 25.5466 48.4832 25.5466 49.5154C25.0311 52.6121 25.5466 56.2248 26.5777 58.2892C27.6087 59.8376 30.1864 61.902 32.2485 61.902C32.764 61.902 33.7951 61.902 34.8261 61.902C36.3727 61.902 38.9504 60.8698 39.9814 59.8376C41.0125 58.8054 42.5591 57.257 43.0747 56.2248C43.5902 54.6765 43.0746 53.1282 42.5591 52.096C42.0436 51.0637 41.528 49.5154 42.0436 48.4832C42.0436 47.451 44.6212 46.9349 46.1678 46.9349C48.23 46.4188 49.7765 46.4188 51.3231 45.9027C52.8697 45.3866 54.9318 45.3866 56.994 45.3866C59.0561 45.3866 60.6027 44.8705 62.6648 44.8705C66.2735 44.3544 70.3977 44.8705 72.9754 45.3866C74.522 45.3866 75.5531 45.3866 76.5841 45.9027C79.1618 46.4188 81.7394 45.9027 83.286 47.451C82.7705 50.0315 80.7084 52.096 81.2239 55.7087ZM62.1493 46.4188C61.6337 47.9671 61.1182 49.5154 59.5716 51.0638C59.5716 49.5154 61.1182 48.4832 61.1182 46.9349C59.5716 46.9349 59.5716 48.4832 59.0561 48.9993C58.5406 50.0315 58.025 51.0638 56.994 51.5799C56.994 50.0315 59.0561 48.4832 59.0561 46.9349C58.5406 46.9349 58.5405 46.9349 58.025 46.9349C57.5095 47.9671 56.994 48.4832 56.4784 49.5154C55.9629 50.5476 55.9629 51.5799 54.9318 52.096C54.9318 50.0315 56.4784 48.9993 56.994 46.9349C55.4474 46.4188 54.9318 48.4832 54.4163 50.0315C53.9008 51.0637 53.3852 52.6121 52.8697 53.1282C52.8697 52.096 53.3853 51.0637 53.9008 50.0315C54.4163 48.9993 54.9318 47.9671 54.9318 46.9349C53.3852 46.9349 52.8697 48.9993 52.3542 50.0315C52.3542 50.5476 51.8387 51.5799 51.8387 52.096C51.8387 52.6121 51.3231 53.6443 50.8076 53.6443C50.2921 53.1282 50.8076 52.6121 51.3231 52.096C51.8387 50.5476 52.8697 48.4832 53.3853 46.9349C52.8697 46.9349 52.3542 46.9349 51.8387 46.9349C51.3231 47.9671 50.8076 48.9993 50.292 50.5476C49.7765 51.5799 49.261 53.1282 48.23 53.6443C48.23 52.6121 49.261 51.5799 49.7765 50.5476C50.2921 49.5154 50.8076 48.4832 50.8076 47.451C49.7766 47.451 49.261 47.9671 48.23 47.9671C47.7144 48.9993 47.1989 50.5476 46.6834 51.5799C46.1678 52.6121 45.6523 54.1604 44.6212 54.6765C44.6212 53.6443 45.6523 52.6121 46.1678 51.5799C46.6834 50.5476 47.1989 49.5154 47.1989 47.9671C46.1678 48.4832 46.1678 49.5154 45.6523 50.5476C45.1368 51.0637 44.6212 52.6121 44.1057 53.6443C44.1057 54.1604 44.1057 54.1604 44.1057 54.6765C44.1057 57.7731 42.5591 59.8376 41.0125 60.8698C40.497 61.3859 39.4659 61.902 38.4349 61.902C37.4038 62.4181 36.3727 62.4181 35.8572 62.9342C35.8572 63.4503 35.8572 63.9664 35.8572 64.4825C35.3417 66.0309 35.3417 68.0953 34.8261 69.6436C34.3106 71.708 33.7951 73.2564 33.7951 74.8047C33.2796 76.353 33.2795 79.9657 34.3106 81.5141C34.8261 82.0302 35.8572 82.5463 36.3727 83.0624C37.4038 83.5785 38.9504 83.5785 40.497 84.0946C42.5591 84.6107 45.1367 85.6429 47.7144 85.6429C50.8076 85.6429 53.9008 85.6429 56.994 85.6429C58.5406 85.6429 60.0872 85.1268 61.6337 85.1268C62.6648 85.1268 63.6959 85.1268 65.2424 85.1268C66.789 85.1268 67.8201 84.6107 69.3667 84.6107C70.3978 84.6107 71.4288 84.6107 72.4599 84.6107C72.9754 84.6107 72.9754 84.6107 73.4909 84.0946C76.5841 83.5785 80.1928 84.0946 83.286 84.0946C86.3792 83.5785 90.5034 83.0624 93.0811 81.5141C95.1432 80.4819 95.6588 78.4174 95.6588 75.8369C95.6588 73.7725 95.1432 72.7402 94.6277 71.1919C93.0811 68.0953 91.5345 64.4825 89.9879 61.902C88.9569 61.902 87.4102 62.4181 86.3792 61.902C84.3171 60.8698 81.2239 57.7731 80.7084 55.1926C80.7084 54.1604 81.2239 52.096 80.1928 51.5799C79.6773 51.5799 79.6773 52.6121 79.1618 52.6121C79.1618 51.0637 80.1928 50.5476 80.7084 48.9993C80.1928 49.5154 80.1928 50.0315 79.6773 50.5476C78.1307 52.096 78.1307 53.1282 77.6152 53.1282C77.6152 51.0637 79.6773 49.5154 80.1928 47.451C79.1618 46.9349 78.6462 46.9349 77.6152 46.9349C77.0997 48.4832 76.0686 50.0315 75.5531 51.0638C75.5531 51.5799 75.5531 52.6121 74.522 52.096C74.522 50.0315 76.5841 48.4832 76.5841 46.4188C75.5531 46.9349 75.5531 47.9671 75.0375 48.9993C74.522 50.0315 74.0065 51.0638 73.4909 51.0638C73.4909 49.5154 75.5531 47.9671 75.5531 46.4188C74.522 46.4188 74.0065 47.9671 73.4909 48.4832C73.4909 48.9993 72.9754 48.9993 72.9754 49.5154C72.9754 50.0315 72.4599 50.5476 71.9444 50.5476C71.9444 48.4832 73.491 47.451 74.0065 45.9027C72.9754 45.9027 72.4599 46.9349 72.4599 47.451C71.9443 47.9671 71.9444 48.4832 71.4288 48.9993C70.9133 50.0315 70.3978 51.5799 69.8822 52.096C69.3667 51.0637 70.9133 50.0315 70.9133 48.9993C71.4288 48.4832 71.9444 47.9671 71.9444 46.9349C70.9133 46.9349 70.3978 47.9671 69.8822 48.9993C69.3667 50.0315 68.8511 51.0638 68.3356 51.5799C68.3356 50.0315 70.3977 48.4832 70.3977 46.9349C68.8512 46.9349 68.8511 48.4832 68.3356 49.5154C67.8201 50.5476 67.3046 52.096 66.2735 52.096C67.3046 50.0315 68.3356 48.9993 68.8512 46.9349C66.2735 46.4188 66.789 50.0315 65.2424 50.5476C65.2424 48.9993 66.7891 47.9671 66.7891 46.9349C66.2735 46.9349 65.2425 46.9349 64.2114 46.9349C63.6959 47.451 63.1803 48.4832 62.6648 48.9993C62.1493 48.9993 62.1493 50.0315 61.1182 50.5476C61.1182 48.9993 62.6648 47.9671 63.1803 46.4188C63.1803 45.9027 62.1493 45.9027 62.1493 46.4188ZM80.7084 49.5154C81.2239 48.9993 81.7394 48.4832 81.2239 47.451C81.2239 48.4832 80.7084 48.9993 80.7084 49.5154ZM43.0747 49.5154C43.0747 50.0315 43.0746 50.5476 43.5902 50.5476C44.1057 50.0315 44.1057 48.9993 45.1367 48.9993C45.1367 50.0315 44.6212 51.0638 43.5902 51.0638C43.5902 51.5799 43.5902 52.096 44.1057 52.096C44.6212 51.0637 45.1368 49.5154 45.6523 48.4832C44.6212 48.4832 43.5902 48.9993 43.0747 49.5154Z" fill="#034166"/>
<path fill-rule="evenodd" clip-rule="evenodd" d="M52.8697 41.7733C52.3542 42.2894 51.3232 43.3216 50.8076 43.8377C50.2921 44.3539 49.261 45.3861 48.23 45.3861C49.261 43.3216 51.3231 42.8055 52.8697 41.7733Z" fill="#034166"/>
<path fill-rule="evenodd" clip-rule="evenodd" d="M54.932 41.7733C54.4165 42.2894 53.901 42.8055 53.3855 43.3216C52.8699 43.8377 52.3544 44.3539 51.8389 44.3539C52.3544 43.3216 53.901 42.2894 54.932 41.7733Z" fill="#034166"/>
<path fill-rule="evenodd" clip-rule="evenodd" d="M92.5657 41.7733C92.0501 42.2894 92.0501 43.3216 91.019 43.3216C91.019 42.8055 91.5346 41.7733 92.5657 41.7733Z" fill="#034166"/>
<path fill-rule="evenodd" clip-rule="evenodd" d="M50.8076 42.2897C50.2921 43.3219 49.2611 43.838 48.23 44.3541C47.1989 44.8702 46.6834 45.9024 45.6523 46.4185C46.1679 45.3863 47.1989 44.8702 47.7144 44.3541C48.7455 43.3219 49.7766 42.2897 50.8076 42.2897Z" fill="#034166"/>
<path fill-rule="evenodd" clip-rule="evenodd" d="M94.1121 42.2896C93.0811 43.8379 92.05 44.8701 90.5034 45.9023C90.5034 44.8701 91.0189 44.354 91.5345 43.8379C92.5655 43.3218 93.0811 42.8057 94.1121 42.2896Z" fill="#034166"/>
<path fill-rule="evenodd" clip-rule="evenodd" d="M58.5407 42.2896C58.5407 42.8057 58.0252 42.8057 56.9941 43.3218C56.9941 42.8057 58.0252 42.2896 58.5407 42.2896Z" fill="#034166"/>
<path fill-rule="evenodd" clip-rule="evenodd" d="M47.7145 42.2896C47.1989 43.3218 46.1679 43.8379 45.6524 44.354C45.1368 44.8701 44.1058 45.9023 43.0747 45.9023C43.0747 44.8701 44.1057 44.354 44.6213 43.8379C46.1679 43.8379 46.6834 43.3218 47.7145 42.2896Z" fill="#034166"/>
<path fill-rule="evenodd" clip-rule="evenodd" d="M55.9629 42.8059C55.4473 43.322 54.9318 43.8381 54.4163 43.8381C53.9007 43.322 55.4473 42.8059 55.9629 42.8059Z" fill="#034166"/>
<path fill-rule="evenodd" clip-rule="evenodd" d="M95.6586 43.8386C94.6276 45.3869 93.081 46.4192 91.5344 47.4514C91.0188 47.9675 90.5033 48.4836 89.9878 47.9675C91.5344 46.4192 93.5965 45.3869 95.6586 43.8386Z" fill="#034166"/>
<path fill-rule="evenodd" clip-rule="evenodd" d="M43.5902 44.3549C43.5902 45.3871 42.5592 45.9032 42.0436 46.4193C41.5281 46.9354 41.0126 47.4515 40.4971 47.9676C40.4971 46.9354 41.0126 46.9354 41.5281 46.4193C42.5592 45.3871 43.0747 44.871 43.5902 44.3549Z" fill="#034166"/>
<path fill-rule="evenodd" clip-rule="evenodd" d="M96.1741 45.3862C95.1431 46.9346 93.081 47.9668 91.5344 49.5151C91.0188 50.0312 90.5033 50.5473 89.9878 50.5473C89.9878 49.5151 91.0188 49.5151 91.5344 48.999C93.081 47.4507 94.112 46.4184 96.1741 45.3862Z" fill="#034166"/>
<path fill-rule="evenodd" clip-rule="evenodd" d="M66.2734 46.4188C65.7579 46.9349 65.2423 47.9672 64.7268 48.4833C64.2113 48.9994 64.2112 50.0316 63.1802 50.0316C63.1802 48.4833 64.7268 47.451 65.2423 46.4188C65.7578 46.4188 65.7579 46.4188 66.2734 46.4188C65.7579 46.4188 65.7579 45.9027 66.2734 46.4188Z" fill="#034166"/>
<path fill-rule="evenodd" clip-rule="evenodd" d="M96.1745 47.4514C96.1745 48.4836 95.1434 48.4836 94.6279 48.9997C94.1124 49.5158 93.0813 50.032 92.5658 50.032C91.0192 51.0642 89.9881 52.0964 88.957 52.6125C88.957 52.0964 89.9881 51.5803 90.5036 51.0642C92.0502 50.032 94.6279 48.9997 96.1745 47.4514Z" fill="#034166"/>
<path fill-rule="evenodd" clip-rule="evenodd" d="M79.1616 47.4514C79.1616 48.4836 78.1305 49.5158 77.615 50.032C77.0994 51.0642 76.5839 52.0964 76.0684 52.6125C76.0684 51.5803 76.5839 50.5481 77.0994 50.032C77.615 49.5158 78.1305 48.4836 79.1616 47.4514C78.646 47.4514 78.646 47.4514 79.1616 47.4514Z" fill="#034166"/>
<path fill-rule="evenodd" clip-rule="evenodd" d="M49.2611 47.9664C49.7767 48.4825 49.7767 48.4825 49.2611 47.9664C49.2611 50.0309 47.7145 52.0953 47.199 53.6436C47.199 54.1597 46.6835 55.1919 46.168 55.1919C46.6835 53.1275 48.2301 50.547 49.2611 47.9664Z" fill="#034166"/>
<path fill-rule="evenodd" clip-rule="evenodd" d="M39.4659 48.4827C39.4659 48.9988 38.9504 49.5149 38.9504 49.5149C38.4349 50.031 37.9193 51.0632 37.4038 50.5471C37.9193 50.031 38.4349 48.9988 39.4659 48.4827Z" fill="#034166"/>
<path fill-rule="evenodd" clip-rule="evenodd" d="M96.174 50.0316C96.174 51.5799 94.1119 51.5799 93.0809 52.6122C91.5343 53.1283 91.0188 54.1605 89.4722 54.6766C89.4722 54.1605 90.5032 53.6444 90.5032 53.6444C92.0498 52.096 94.1119 51.0638 96.174 50.0316Z" fill="#034166"/>
<path fill-rule="evenodd" clip-rule="evenodd" d="M39.9813 50.548C39.4657 51.0641 38.9502 51.5802 38.4347 52.6124C37.9192 53.1285 37.4036 54.1607 36.3726 54.1607C36.8881 52.6124 37.9191 51.5802 39.9813 50.548C39.4657 50.548 39.4657 50.548 39.9813 50.548Z" fill="#034166"/>
<path fill-rule="evenodd" clip-rule="evenodd" d="M55.9631 73.2557C55.4476 73.7718 55.4476 74.804 54.4165 74.804C53.3855 74.804 52.3544 73.2557 51.3234 72.2235C50.8078 71.7074 49.2612 69.643 49.2612 68.6108C49.2612 67.5785 50.2923 68.0947 50.8078 67.5785C49.7768 63.4497 50.2923 58.2886 52.3544 55.7081C53.3855 54.6759 54.9321 53.6437 55.9631 53.1275C58.0253 52.0953 59.5718 51.5792 62.665 51.5792C65.7582 51.5792 69.3669 52.6114 71.4291 54.1598C74.5222 56.2242 76.0688 60.353 75.5533 64.4819C75.0377 67.0624 72.9756 69.643 70.9135 71.1913C68.3358 73.2557 65.2427 74.804 59.5718 74.2879C59.0563 74.2879 58.0253 73.7718 55.9631 73.2557ZM68.8514 71.7074C69.8825 71.1913 70.398 70.1591 71.4291 69.643C73.4912 68.0946 75.5533 66.0302 75.0378 62.4175C74.5222 56.2242 69.8825 54.1598 63.6961 53.6437C63.1806 53.6437 62.1495 53.6437 61.634 53.6437C59.0563 54.1598 55.9631 55.7081 54.4165 57.2564C52.8699 59.3208 52.3544 64.4819 53.3855 67.5785C54.4166 67.5785 55.4476 67.0624 56.4787 67.0624C57.5097 67.0624 59.5718 66.5463 59.5718 67.5785C59.5718 68.6108 58.5408 69.1269 58.0252 69.643C57.5097 69.643 56.9942 70.6752 56.9942 71.7074C59.5718 73.2557 65.7582 73.7718 68.8514 71.7074ZM51.8389 69.643C51.8389 70.6752 53.3855 72.2235 54.4165 72.7396C55.4476 71.1913 55.9631 70.1591 56.9942 68.0947C54.9321 68.6108 52.8699 68.6108 51.8389 69.643Z" fill="#034166"/>
<path fill-rule="evenodd" clip-rule="evenodd" d="M39.9816 52.0956C39.4661 53.1278 38.4351 54.16 37.404 54.6761C36.8885 55.1922 36.8885 55.7083 35.8574 55.1922C36.8885 54.16 38.4351 53.6439 39.9816 52.0956Z" fill="#034166"/>
<path fill-rule="evenodd" clip-rule="evenodd" d="M95.143 53.6445C94.1119 54.1606 93.5964 54.6768 92.5653 55.1929C91.5343 55.709 90.5032 56.2251 89.4722 56.2251C89.4722 55.709 89.9877 55.709 90.5032 55.1929C92.0498 55.1929 93.5964 54.1606 95.143 53.6445Z" fill="#034166"/>
<path fill-rule="evenodd" clip-rule="evenodd" d="M40.4971 54.1606C39.9816 54.6767 38.9505 55.709 37.9194 56.2251C36.8884 56.7412 36.3729 57.7734 35.3418 57.7734C36.3729 56.2251 38.4349 55.1929 39.9815 53.6445C40.4971 53.6445 40.4971 54.1606 40.4971 54.1606Z" fill="#034166"/>
<path fill-rule="evenodd" clip-rule="evenodd" d="M40.4969 55.7084C40.4969 56.7406 39.4658 57.2567 38.9503 57.7728C38.4348 58.2889 37.9192 58.805 36.8882 58.805C36.8882 58.2889 37.9193 57.7728 38.4348 57.2567C38.9503 56.2245 39.4659 55.7084 40.4969 55.7084Z" fill="#034166"/>
<path fill-rule="evenodd" clip-rule="evenodd" d="M65.7578 57.2575C65.2423 58.8058 63.1802 58.2897 63.1802 56.7414C63.1802 55.193 66.2734 55.193 65.7578 57.2575Z" fill="#034166"/>
<path fill-rule="evenodd" clip-rule="evenodd" d="M56.9938 57.2565C59.0559 55.7081 60.0869 59.3209 58.0248 59.3209C56.9937 59.3209 56.4782 57.7726 56.9938 57.2565Z" fill="#034166"/>
<path fill-rule="evenodd" clip-rule="evenodd" d="M70.9131 59.8378C69.882 60.87 68.3354 59.8378 68.3354 58.2895C68.3354 56.7412 71.4286 57.2573 70.9131 59.8378Z" fill="#034166"/>
<path fill-rule="evenodd" clip-rule="evenodd" d="M54.4162 60.8689C56.9938 59.8367 55.9628 64.9977 53.9006 63.4494C53.3851 62.4172 53.3851 60.8689 54.4162 60.8689Z" fill="#034166"/>
<path fill-rule="evenodd" clip-rule="evenodd" d="M65.7579 62.9344C66.2734 65.5149 63.1803 67.0632 61.6337 65.5149C61.1182 64.4827 60.6026 62.4183 62.1492 61.9022C63.6958 61.3861 65.2424 61.9022 65.7579 62.9344ZM62.1492 63.9666C62.1492 64.9988 64.2114 64.4827 63.6958 62.9344C63.1803 62.9344 62.1492 63.4505 62.1492 63.9666ZM63.6958 65.5149C64.2114 65.5149 64.2114 65.5149 63.6958 65.5149C64.2114 64.9988 63.6958 64.9988 63.6958 65.5149Z" fill="#034166"/>
<path fill-rule="evenodd" clip-rule="evenodd" d="M70.3979 64.9982C69.8823 62.4176 72.46 62.4176 72.9755 63.966C72.9755 64.4821 72.9755 65.5143 71.9445 66.0304C70.9134 66.0304 70.9134 65.5143 70.3979 64.9982Z" fill="#034166"/>
<path fill-rule="evenodd" clip-rule="evenodd" d="M84.8324 62.9342C84.8324 63.9664 84.3168 64.4825 83.8013 65.5147C83.2858 66.547 82.7702 67.5792 82.7702 68.0953C82.2547 69.1275 82.2547 70.1597 81.2236 70.1597C81.2236 69.1275 81.7392 68.6114 82.2547 67.5792C82.7702 66.547 83.8013 64.4825 84.8324 62.9342Z" fill="#034166"/>
<path fill-rule="evenodd" clip-rule="evenodd" d="M85.348 66.0306C84.8324 67.0629 84.3169 68.6112 83.8013 69.6434C83.2858 70.6756 82.7703 71.7078 81.7393 72.74C81.7393 71.7078 82.7703 70.6756 83.2858 69.6434C83.8014 68.6112 84.3169 67.579 84.8324 66.5467C84.8324 66.0306 84.8324 66.0306 85.348 66.0306Z" fill="#034166"/>
<path fill-rule="evenodd" clip-rule="evenodd" d="M86.8945 66.547C86.379 67.5792 85.8635 68.6114 85.3479 69.6436C84.8324 70.6759 84.3169 71.7081 83.2858 72.2242C82.7703 71.7081 83.2858 71.192 83.8013 70.6759C84.3169 69.6436 84.8324 68.6114 85.3479 68.0953C85.8635 67.5792 85.8635 67.0631 86.8945 66.547Z" fill="#034166"/>
<path fill-rule="evenodd" clip-rule="evenodd" d="M68.3354 67.5795C70.3976 67.5795 70.3976 70.16 68.851 70.16C67.3044 70.16 66.2733 67.5795 68.3354 67.5795Z" fill="#034166"/>
<path fill-rule="evenodd" clip-rule="evenodd" d="M87.9256 68.0946C87.9256 69.1268 86.8945 70.159 86.379 71.1912C85.8635 72.2235 85.348 73.2557 84.3169 73.7718C84.3169 72.7396 84.8324 72.2235 85.3479 71.1912C86.379 70.159 86.8945 69.1268 87.9256 68.0946Z" fill="#034166"/>
<path fill-rule="evenodd" clip-rule="evenodd" d="M61.6338 69.6436C64.2114 69.1275 63.6959 71.708 62.1493 71.708C61.1183 71.708 60.6027 70.1597 61.6338 69.6436Z" fill="#034166"/>
<path fill-rule="evenodd" clip-rule="evenodd" d="M87.9257 71.7086C87.4102 73.2569 86.3791 74.8053 85.3481 75.8375C84.8325 76.3536 84.317 77.3858 83.8015 77.9019C83.2859 78.418 83.2859 79.4502 82.2549 79.4502C82.7704 77.9019 83.8015 76.8697 84.317 75.3214C85.8636 74.8053 86.3791 73.2569 87.9257 71.7086Z" fill="#034166"/>
<path fill-rule="evenodd" clip-rule="evenodd" d="M80.1929 72.2238C80.7084 72.2238 80.7084 72.2238 80.1929 72.2238C79.6774 75.3204 78.1308 77.9009 76.5842 79.9654C76.0687 80.4815 75.5531 81.5137 75.0376 82.0298C75.0376 80.9976 75.5531 80.4815 76.0686 79.9654C77.6152 77.3848 79.1618 74.8043 80.1929 72.2238Z" fill="#034166"/>
<path fill-rule="evenodd" clip-rule="evenodd" d="M89.4722 72.7401C89.9877 73.2562 88.9566 74.2884 88.4411 74.8045C87.9256 76.3529 86.8945 77.3851 85.8635 78.9334C85.3479 79.4495 85.348 80.4817 84.3169 80.9978C84.3169 79.4495 85.8635 78.4173 86.379 77.3851C87.41 75.8368 87.9256 74.2884 89.4722 72.7401C88.9567 73.2562 88.9567 73.2562 89.4722 72.7401C88.9567 72.7401 88.9567 72.7401 89.4722 72.7401Z" fill="#034166"/>
<path fill-rule="evenodd" clip-rule="evenodd" d="M77.0996 73.2562C77.0996 74.2884 76.5841 74.8045 76.0686 75.8368C75.0375 77.3851 74.522 78.9334 73.4909 80.9978C72.9754 81.5139 72.4599 82.5462 71.9443 83.0623C71.9443 82.03 72.4599 81.5139 72.9754 80.4817C73.4909 79.9656 74.0065 78.9334 74.522 77.9012C75.0375 76.869 76.0686 74.8045 77.0996 73.2562Z" fill="#034166"/>
<path fill-rule="evenodd" clip-rule="evenodd" d="M81.7395 73.7726C82.255 74.8048 81.2239 75.3209 81.2239 75.837C80.7084 76.3531 80.7084 77.3853 80.1929 77.9014C79.1618 79.4498 78.6463 80.9981 77.6152 82.0303C77.6152 81.5142 78.1307 80.482 78.6463 79.9659C79.1618 78.4175 80.7084 75.837 81.7395 73.7726Z" fill="#034166"/>
<path fill-rule="evenodd" clip-rule="evenodd" d="M83.2858 73.7726C82.7702 75.3209 81.7392 76.8692 81.2236 77.9014C80.7081 79.4498 80.1926 80.9981 78.646 82.0303C78.646 80.9981 79.1616 80.482 79.6771 79.9659C80.7081 77.9014 81.7392 75.837 82.7703 73.7726C82.7703 74.2887 83.2858 74.2887 83.2858 73.7726Z" fill="#034166"/>
<path fill-rule="evenodd" clip-rule="evenodd" d="M89.9881 74.804C89.9881 75.8362 88.9571 76.8684 88.4415 78.4167C87.926 78.9328 87.926 79.4489 87.4105 79.965C86.8949 80.4811 86.8949 81.5133 86.3794 81.5133C86.3794 80.4811 87.4105 79.4489 87.926 78.4167C88.4415 76.8684 88.9571 75.8362 89.9881 74.804Z" fill="#034166"/>
<path fill-rule="evenodd" clip-rule="evenodd" d="M74.0065 75.3202C73.491 76.8685 72.4599 78.4168 71.9444 79.9652C70.9133 81.5135 70.3978 83.0618 69.3667 84.094C69.3667 83.5779 69.8822 82.5457 69.8822 82.0296C70.9133 79.449 72.4599 77.3846 74.0065 75.3202C73.491 75.3202 73.491 75.3202 74.0065 75.3202Z" fill="#034166"/>
<path fill-rule="evenodd" clip-rule="evenodd" d="M47.7145 75.3202C47.7145 76.8685 46.1679 77.9007 45.6524 79.449C45.1368 79.9652 44.6213 80.9974 44.6213 81.5135C44.1057 82.0296 43.5902 83.0618 43.0747 83.0618C43.5902 82.0296 44.6213 80.4813 45.1368 79.449C45.6523 77.9007 46.6834 76.3524 47.7145 75.3202Z" fill="#034166"/>
<path fill-rule="evenodd" clip-rule="evenodd" d="M71.4287 75.8366C70.9132 78.4171 68.8511 79.9654 67.82 82.0298C67.3045 82.546 67.3045 83.5782 66.2734 84.0943C66.2734 83.5782 66.789 82.546 67.3045 82.0298C67.82 81.5137 68.3355 80.9976 68.3355 79.9654C69.3666 78.4171 70.3977 77.3849 71.4287 75.8366Z" fill="#034166"/>
<path fill-rule="evenodd" clip-rule="evenodd" d="M69.3667 75.8365C68.3357 78.4171 67.3046 79.9654 65.758 82.0298C65.2425 82.5459 65.2425 83.5782 64.2114 83.5782C64.2114 83.062 64.7269 82.0298 65.2425 81.5137C66.7891 79.9654 67.8201 77.901 68.8512 75.8365H69.3667Z" fill="#034166"/>
<path fill-rule="evenodd" clip-rule="evenodd" d="M53.9006 76.3529C54.4162 78.4173 52.8696 79.4496 52.354 80.9979C51.8385 81.514 51.8385 82.0301 51.323 82.5462C50.8074 83.0623 50.2919 83.5784 49.7764 83.5784C49.7764 82.5462 50.8074 82.0301 51.323 81.514C51.8385 80.9979 51.8385 79.9657 52.354 79.4496C52.8696 78.4173 53.3851 77.9012 53.9006 76.3529Z" fill="#034166"/>
<path fill-rule="evenodd" clip-rule="evenodd" d="M62.6649 76.3529C62.6649 77.3851 61.6338 78.4173 61.1183 79.4496C60.6028 80.4818 60.0872 81.514 59.0562 82.0301C59.0562 81.514 59.5717 80.9979 59.5717 80.4818C60.0872 79.4495 61.1183 78.4173 62.6649 76.3529C62.1493 76.869 62.1493 76.869 62.6649 76.3529C62.1493 76.3529 62.1493 76.3529 62.6649 76.3529Z" fill="#034166"/>
<path fill-rule="evenodd" clip-rule="evenodd" d="M67.3047 76.8693C66.7892 78.9337 65.2426 80.482 63.696 82.0303C63.1805 82.5465 63.1805 83.5787 62.1494 83.5787C62.1494 83.0626 62.6649 82.5465 63.1805 82.0303C64.7271 79.9659 65.7581 78.4176 67.3047 76.8693Z" fill="#034166"/>
<path fill-rule="evenodd" clip-rule="evenodd" d="M90.5036 76.8693C89.9881 77.9015 89.4726 78.9337 88.957 79.4498C88.957 78.4176 89.9881 77.9015 89.9881 76.8693H90.5036Z" fill="#034166"/>
<path fill-rule="evenodd" clip-rule="evenodd" d="M49.2609 76.8693C48.7453 77.9015 48.2298 78.9337 47.1987 79.9659C46.1677 80.9981 45.6522 82.5464 44.6211 83.0625C44.6211 82.0303 45.6522 80.9981 46.6832 79.9659C47.1988 78.9337 48.2298 77.9015 49.2609 76.8693Z" fill="#034166"/>
<path fill-rule="evenodd" clip-rule="evenodd" d="M65.7579 77.3855C65.7579 78.4177 64.2113 79.4499 63.6958 79.966C63.1803 80.4821 63.1803 80.9982 62.6647 81.5144C62.1492 82.0305 62.1492 82.5466 61.1182 82.5466C61.6337 80.4821 63.1803 79.4499 64.2113 78.4177C65.2424 77.9016 65.2424 77.3855 65.7579 77.3855Z" fill="#034166"/>
<path fill-rule="evenodd" clip-rule="evenodd" d="M40.4972 77.3855C40.4972 78.4177 39.4661 79.4499 38.4351 80.4821C38.4351 79.4499 39.4661 78.4177 40.4972 77.3855Z" fill="#034166"/>
<path fill-rule="evenodd" clip-rule="evenodd" d="M51.3233 77.3855C51.3233 77.9016 50.8077 78.4177 50.2922 78.9338C49.2611 79.966 48.7456 80.9983 47.7145 82.0305C47.199 82.5466 46.6835 83.0627 46.168 83.0627C46.168 82.5466 46.6835 82.0305 47.199 81.5144C48.7456 80.4821 49.7767 78.4177 51.3233 77.3855Z" fill="#034166"/>
<path fill-rule="evenodd" clip-rule="evenodd" d="M58.5404 77.3855C58.5404 78.4177 57.5093 79.4499 56.9938 80.4821C56.4782 81.5144 55.9627 82.5466 54.9316 83.0627C54.9316 82.0305 55.9627 81.5144 56.4782 80.4821C56.9938 79.4499 57.5093 77.9016 58.5404 77.3855Z" fill="#034166"/>
<path fill-rule="evenodd" clip-rule="evenodd" d="M55.9627 77.9017C55.9627 78.4178 55.4472 78.9339 55.4472 79.4501C54.4161 80.4823 53.385 82.0306 52.8695 83.5789C52.354 83.0628 53.3851 81.5145 53.9006 80.9984C54.4161 79.4501 54.9317 78.4178 55.9627 77.9017Z" fill="#034166"/>
<path fill-rule="evenodd" clip-rule="evenodd" d="M40.4969 78.4181C40.4969 79.4503 40.4969 80.9986 39.4658 81.5147C39.4658 79.9664 39.9814 78.9342 40.4969 78.4181Z" fill="#034166"/>
<path fill-rule="evenodd" clip-rule="evenodd" d="M42.5589 78.4181C43.0745 78.4181 43.0745 78.4181 42.5589 78.4181C42.5589 79.9664 41.5279 80.4825 41.0124 82.0308C40.4968 81.5147 41.0124 80.9986 41.5279 80.4825C42.0434 79.4503 42.5589 78.9342 42.5589 78.4181Z" fill="#034166"/>
</g>
<defs>
<filter id="filter0_d_51_1481" x="0" y="0" width="128" height="128" filterUnits="userSpaceOnUse" color-interpolation-filters="sRGB">
<feFlood flood-opacity="0" result="BackgroundImageFix"/>
<feColorMatrix in="SourceAlpha" type="matrix" values="0 0 0 0 0 0 0 0 0 0 0 0 0 0 0 0 0 0 127 0" result="hardAlpha"/>
<feOffset dx="2" dy="4"/>
<feGaussianBlur stdDeviation="2"/>
<feComposite in2="hardAlpha" operator="out"/>
<feColorMatrix type="matrix" values="0 0 0 0 0 0 0 0 0 0 0 0 0 0 0 0 0 0 0.25 0"/>
<feBlend mode="normal" in2="BackgroundImageFix" result="effect1_dropShadow_51_1481"/>
<feBlend mode="normal" in="SourceGraphic" in2="effect1_dropShadow_51_1481" result="shape"/>
</filter>
</defs>
</svg>
